<svg id="Layer_1" data-name="Layer 1" xmlns="http://www.w3.org/2000/svg" viewBox="0 0 91.11 20"><defs><style>.cls-1{fill:#fff;}</style></defs><path class="cls-1" d="M2.48,15.6a8.33,8.33,0,0,0,5.64,2.45V14.93a5.27,5.27,0,0,1-5-4.88H0A8.31,8.31,0,0,0,2.48,15.6Z"/><path class="cls-1" d="M13.39,11.36a5.28,5.28,0,0,1-4.27,3.53,6.16,6.16,0,0,0,.36.73l.33.62-.63-.3a3.21,3.21,0,0,1-.5-.31v2.42a8.39,8.39,0,0,0,7.93-6.69,8.23,8.23,0,0,0,.16-1.31H10.36a6.52,6.52,0,0,0-.79,1.31Z"/><path class="cls-1" d="M9.27,15.73S6.21,14.29,7.51,10s6-3.37,6-3.37-8.07,2-4.22,9.1Z"/><path class="cls-1" d="M13.49,6.63s-6,3.64-4.56,7.67c0,0-2.57-5.44,4.56-7.67Z"/><path class="cls-1" d="M8.12,4.43V1.31A8.37,8.37,0,0,0,0,9.49H3.15a5.17,5.17,0,0,1,.62-2.3c-.19-.13-.38-.25-.58-.36L2.13,6.28l1.19.12c.32,0,.61.07.88.12A5.25,5.25,0,0,1,8.12,4.43Z"/><path class="cls-1" d="M3.3,6.63a7.64,7.64,0,0,1,3.48,4.1l.3-1.09a4.85,4.85,0,0,0-1.74-2A4.69,4.69,0,0,1,7.28,9.2s.61-.65-.48-1.34A6.89,6.89,0,0,0,3.3,6.63Z"/><path class="cls-1" d="M8.21,4.77c.54,0,1,.59,1,1.31s-.44,1.3-1,1.3-1-.58-1-1.3.44-1.31,1-1.31Z"/><path class="cls-1" d="M16.54,7.68A8.38,8.38,0,0,0,8.68,1.31V4.43a5.21,5.21,0,0,1,3.71,1.82A5.79,5.79,0,0,1,14,6.43l-1,.79c.08.15.15.3.22.46Z"/><path class="cls-1" d="M82.08,6.94a1.8,1.8,0,1,0,0,3.6h5.35A3.62,3.62,0,0,1,91,14.15a3.63,3.63,0,0,1-3.61,3.6h-9V16h9a1.8,1.8,0,0,0,0-3.6H82.08a3.62,3.62,0,0,1,0-7.24h9V6.94ZM75.21,3.65V1.85H77v1.8Zm0,1.54H77V17.75h-1.8V5.19ZM64.74,6.94a1.8,1.8,0,1,0,0,3.6H70.1a3.62,3.62,0,0,1,3.6,3.61,3.61,3.61,0,0,1-3.6,3.6h-9V16h9a1.8,1.8,0,1,0,0-3.6H64.74a3.62,3.62,0,0,1,0-7.24h9V6.94ZM53.38,16a4.3,4.3,0,0,0,2.45-.74,4.59,4.59,0,0,0,1.63-1.94h1.93a6.15,6.15,0,0,1-2.25,3.22,6.09,6.09,0,0,1-3.76,1.26,6,6,0,0,1-4.44-1.84,6.06,6.06,0,0,1-1.85-4.44A6.06,6.06,0,0,1,48.94,7a6.26,6.26,0,0,1,8.87,0,6.06,6.06,0,0,1,1.85,4.44H48.9A4.47,4.47,0,0,0,53.38,16Zm2.45-8.23a4.46,4.46,0,0,0-6.54,1.93h8.17a4.44,4.44,0,0,0-1.63-1.93ZM39.33,5.19A6,6,0,0,1,43.77,7a6,6,0,0,1,1.84,4.44v6.28h-1.8V11.47a4.48,4.48,0,1,0-9,0v6.28h-1.8V5.16h1.8V7.07a6.08,6.08,0,0,1,4.48-1.88ZM25.28,16a4.28,4.28,0,0,0,2.45-.74,4.46,4.46,0,0,0,1.63-1.94H31.3a6.3,6.3,0,0,1-6,4.48,6,6,0,0,1-4.44-1.84A6,6,0,0,1,19,11.47,6,6,0,0,1,20.84,7a6.28,6.28,0,0,1,8.88,0,6,6,0,0,1,1.84,4.44H20.81A4.47,4.47,0,0,0,25.28,16Zm2.45-8.23a4.49,4.49,0,0,0-4.9,0A4.44,4.44,0,0,0,21.2,9.65h8.16a4.42,4.42,0,0,0-1.62-1.93Z"/></svg>