<svg id="Layer_1" data-name="Layer 1" xmlns="http://www.w3.org/2000/svg" viewBox="0 0 614.25 61.12"><defs><style>.cls-1{fill:#111;}.cls-2{fill:#2b2b2b;}</style></defs><polygon class="cls-1" points="24.35 48.31 24.35 12.03 68.03 44.01 68.03 54.34 33.58 29.21 33.58 38.99 24.35 48.31"/><polygon class="cls-2" points="35.65 33.63 35.65 54.34 44.97 45.02 44.97 40.27 35.65 33.63"/><polygon class="cls-2" points="79.33 12.03 79.33 48.31 35.65 16.32 35.65 6 70.1 31.13 70.1 21.35 79.33 12.03"/><polygon class="cls-1" points="68.03 26.71 68.03 6 58.71 15.32 58.71 20.07 68.03 26.71"/><rect class="cls-1" x="81.33" y="16.02" width="4.27" height="28.3" rx="2.14" transform="translate(166.93 60.34) rotate(180)"/><rect class="cls-1" x="88.13" y="20.06" width="4.27" height="20.21" rx="2.14" transform="translate(180.54 60.34) rotate(180)"/><rect class="cls-1" x="81.9" y="29.07" width="5.47" height="2.2"/><path class="cls-1" d="M95.12,29.07a1.1,1.1,0,0,1,0,2.2h-7v-2.2Z"/><rect class="cls-2" x="17.94" y="16.02" width="4.27" height="28.3" rx="2.14"/><rect class="cls-2" x="11.13" y="20.06" width="4.27" height="20.21" rx="2.14"/><rect class="cls-2" x="16.17" y="29.07" width="5.47" height="2.2"/><path class="cls-2" d="M8.42,29.07a1.1,1.1,0,1,0,0,2.2h7v-2.2Z"/><path d="M150.2,37l-44-20.54V43.61h4.46V23.22c37,17.24,42.88,20.11,43.85,20.5l.16.08V16.61H150.2Z"/><path d="M157.35,43.84h37.83l-3.89-4.23H167.18l15-16.47L183,24c3.61,4,17.94,19.62,18.14,19.81h5.9C201,37.16,185,19.57,182.21,16.65Z"/><path d="M252.12,36.58a3.06,3.06,0,0,1-3.15,3H215.73a3.19,3.19,0,0,1-3.15-3v-20h-4.43v20c0,4,3.69,7.22,7.58,7.22H249a7.51,7.51,0,0,0,7.57-7.22v-20h-4.42Z"/><polygon points="261.21 16.61 261.21 43.8 265.64 43.8 265.64 26.09 285.4 42.95 305.25 26.09 305.25 43.8 309.68 43.8 309.68 16.61 285.37 37.24 261.21 16.61"/><path d="M355.12,16.61H322a7.47,7.47,0,0,0-7.65,7.27V36.62A7.47,7.47,0,0,0,322,43.88h33.13a7.47,7.47,0,0,0,7.65-7.26V23.88A7.47,7.47,0,0,0,355.12,16.61Zm3.22,20a3.18,3.18,0,0,1-3.26,3H322a3.19,3.19,0,0,1-3.26-3V23.84A3.13,3.13,0,0,1,322,20.89h33.13a3.12,3.12,0,0,1,3.26,2.95Z"/><path d="M366.31,24.38v.16c0,4.46,4.08,7.76,8.12,7.76H406.5a3.62,3.62,0,0,1,3.69,3.58,3.69,3.69,0,0,1-3.76,3.61H366.27v4.23h40.16a8.09,8.09,0,0,0,8.23-7.88c0-4.35-4-7.85-8.19-7.85h-32a3.69,3.69,0,0,1-3.77-3.61,3.54,3.54,0,0,1,3.57-3.49h40.39V16.61H374.5C370.19,16.61,366.31,20,366.31,24.38Z"/><path d="M441,32.3l0,0,2.09,1.75c1.25,1,2.92,2.53,4.59,4l6.64,5.71h6.6c-4.85-4.23-8-6.91-16.2-13.94Z"/><path d="M459.48,16.65l-7.84-.07L422.59,35.76V16.58h-4.43V43.72l4.43-2.87c6.56-4.27,15.77-10.33,23.34-15.3Z"/><rect x="463.64" y="16.61" width="4.47" height="27.19"/><path d="M474.75,40a2,2,0,0,0-2,2,2,2,0,0,0,2,1.9,2,2,0,0,0,2.06-1.9A2.08,2.08,0,0,0,474.75,40Z"/><polygon points="481.51 43.8 485.94 43.8 485.94 32.3 527.22 32.3 527.22 28.07 481.47 28.07 481.51 43.8"/><polygon points="481.47 20.81 529.86 20.81 529.86 16.54 481.47 16.58 481.47 20.81"/><rect x="532.97" y="16.61" width="4.47" height="27.19"/><polygon points="540.54 16.61 540.54 20.89 562.49 20.89 562.49 43.8 566.91 43.8 566.91 20.89 588.93 20.89 588.93 16.61 540.54 16.61"/></svg>