<svg id="master-artboard" xmlns="http://www.w3.org/2000/svg" viewBox="0 0 185.23 35.85"><defs><style>.cls-1{fill:#fff;}</style></defs><path class="cls-1" d="M23.66,17.19c-.23.76-1.54,1.22-2.17,1.44L4.56,24.42a3,3,0,0,0-2.31,3.12v7.31l19.3-6.62a3,3,0,0,0,2.11-2.77C23.67,22.77,23.66,17.19,23.66,17.19Z"/><path class="cls-1" d="M8.4,12,21.48,7.5c.63-.21,1.94-.67,2.18-1.44,0,0,0,5.58,0,8.27a3,3,0,0,1-2.12,2.77L6.09,22.4V15.1A3,3,0,0,1,8.4,12Z"/><path class="cls-1" d="M21.47,3.25a1.48,1.48,0,0,1,0,2.81L14.82,8.3V1Z"/><path class="cls-1" d="M48.32,25.31H45.9c-2.63,0-4.6-.8-5.88-2.43a6.9,6.9,0,0,1-1-6.16,10.46,10.46,0,0,1,4.18-5.9,11.53,11.53,0,0,1,7-2.52h2.32L52,10.43H50a8.76,8.76,0,0,0-5.41,1.8,8.09,8.09,0,0,0-3,4.63c-.48,2-.24,3.5.72,4.63a5.71,5.71,0,0,0,4.57,1.68h2Z"/><path class="cls-1" d="M58.57,15.46H58a3.84,3.84,0,0,0-2.76,1.16,5.16,5.16,0,0,0-1.42,2.57l-1.5,6.12H50.08l2.86-11.65H55.1L54.77,15a4.68,4.68,0,0,1,3.61-1.6h.7Z"/><path class="cls-1" d="M68.85,20.57a6.36,6.36,0,0,1-5.23,4.93l-1.22,5H60.08l1.22-5c-2.48-.7-3.44-2.16-2.9-4.36l1.84-7.52h2.27l-1.71,7c-.47,1.92.25,2.89,2.16,2.89a3.65,3.65,0,0,0,3.56-2.84l1.71-7h2.32Z"/><path class="cls-1" d="M81.53,23.73a7.12,7.12,0,0,1-4.83,1.82,6.67,6.67,0,0,1-3.37-.85l.55-2.23,1.42.7a4.31,4.31,0,0,0,1.65.34,4.64,4.64,0,0,0,3.18-1.21,5.65,5.65,0,0,0,1.69-2.91,3,3,0,0,0-3.14-4,4.57,4.57,0,0,0-3.35,1.45A6.6,6.6,0,0,0,73.58,20L71,30.52H68.74l2.7-11a7.75,7.75,0,0,1,2.77-4.34,7.6,7.6,0,0,1,4.91-1.72,5.06,5.06,0,0,1,4.17,1.7,4.54,4.54,0,0,1,.81,4.27A8.24,8.24,0,0,1,81.53,23.73Z"/><path class="cls-1" d="M91.51,25.31H88.65c-2.47,0-3.49-1.31-2.92-3.64l2.69-11h2.24l-.73,3h4.44l-.5,2H89.43l-1.56,6.38a.78.78,0,0,0,.32.9,1.61,1.61,0,0,0,1,.29H92Z"/><path class="cls-1" d="M104.19,23.68a7.36,7.36,0,0,1-4.82,1.87,5.82,5.82,0,0,1-4.46-1.67,4.5,4.5,0,0,1-1-4.44l.08-.1a7.31,7.31,0,0,1,2.9-4.18,8.15,8.15,0,0,1,4.94-1.74,5.19,5.19,0,0,1,4.2,1.7,4.49,4.49,0,0,1,.83,4.27A8.13,8.13,0,0,1,104.19,23.68Zm-2.76-8.22a5.17,5.17,0,0,0-3.21,1.09,4.81,4.81,0,0,0-1.8,2.74,3.67,3.67,0,0,0,.31,3,3.19,3.19,0,0,0,2.83,1.18c2.63,0,4.3-1.43,5-4.31C105.11,17,103.83,15.46,101.43,15.46Z"/><path class="cls-1" d="M119.51,22.78a10.28,10.28,0,0,1-6.82,2.53h-1.47l.53-2.19h1.67A6.79,6.79,0,0,0,118.13,21a8.69,8.69,0,0,0,2.64-4.35,4.8,4.8,0,0,0-.8-4.51,5.5,5.5,0,0,0-4.45-1.74h-1.67l-3.64,14.87h-2.4L112,8.3h4.76a6.53,6.53,0,0,1,5.56,2.45,6.75,6.75,0,0,1,1,5.95A11.27,11.27,0,0,1,119.51,22.78Z"/><path class="cls-1" d="M136.9,20.14a6.58,6.58,0,0,1-3.05,3.93A8.72,8.72,0,0,1,129,25.6a5.06,5.06,0,0,1-4-1.72,4.48,4.48,0,0,1-.84-4.13A8.31,8.31,0,0,1,127,15.27a7.64,7.64,0,0,1,5-1.85,4.92,4.92,0,0,1,5.16,3.69l-9.43,4.36-.55-1.72,6.94-3.2a3.16,3.16,0,0,0-2.62-1.09,4.69,4.69,0,0,0-3.21,1.23,5.73,5.73,0,0,0-1.79,3,3,3,0,0,0,.49,2.74,3.24,3.24,0,0,0,2.64,1.09,4.92,4.92,0,0,0,3.13-1,6.66,6.66,0,0,0,1.89-2.67Z"/><path class="cls-1" d="M143.27,25.31h-6.16l.49-2c4.2,0,6.33,0,6.38,0,1-.09,1.58-.43,1.72-1s-.39-1.14-1.65-1.55c-2.13-.68-3.3-1.07-3.5-1.19a2.27,2.27,0,0,1-1.36-2.77c.51-2.09,2.19-3.13,5-3.13h5.33l-.5,2h-5.77c-1,0-1.5.34-1.68,1-.13.54.44,1,1.71,1.34a20.48,20.48,0,0,1,3.45,1.19,2.45,2.45,0,0,1,1.3,3C147.54,24.29,146,25.31,143.27,25.31Z"/><path class="cls-1" d="M154.6,12.33A1,1,0,0,1,153.51,11a1.78,1.78,0,0,1,1.67-1.23,1,1,0,0,1,1,1.28A1.66,1.66,0,0,1,154.6,12.33Zm-2.13,13h-2.26l2.85-11.65h2.27Z"/><path class="cls-1" d="M168.39,24.82a7.66,7.66,0,0,1-2.81,4.35,8.07,8.07,0,0,1-5,1.65,11.53,11.53,0,0,1-4.06-.68l1.05-1.94a12.84,12.84,0,0,0,3.43.58,4.93,4.93,0,0,0,5-3.47l1.39-5.68a3.84,3.84,0,0,0-.25-2.89,2.74,2.74,0,0,0-2.52-1.28,5.12,5.12,0,0,0-5.23,4.12,3.1,3.1,0,0,0,.47,2.81,3.17,3.17,0,0,0,2.69,1.12,8,8,0,0,0,3.22-1l-.55,2.24a9.24,9.24,0,0,1-3.38.75,4.71,4.71,0,0,1-4-1.72,4.84,4.84,0,0,1-.71-4.25,8.16,8.16,0,0,1,7.9-6.16A5.1,5.1,0,0,1,169,15a4,4,0,0,1,.82,3.91Z"/><path class="cls-1" d="M181.07,25.31H178.8l1.68-6.87a2.26,2.26,0,0,0-2.27-3,3.89,3.89,0,0,0-2.35.84,3.58,3.58,0,0,0-1.36,2l-1.73,7.07h-2.32l1.74-7.11a5.94,5.94,0,0,1,2.4-3.45,6.92,6.92,0,0,1,4.12-1.38,4.09,4.09,0,0,1,3.41,1.45,4,4,0,0,1,.65,3.57Z"/></svg>