<svg id="Layer_1" data-name="Layer 1" xmlns="http://www.w3.org/2000/svg" viewBox="0 0 600 408.38" style=""><defs><style>.cls-1,.cls-2{fill:none;stroke:#f4f4f4;stroke-miterlimit:10;}.cls-1{stroke-width:3px;}</style></defs><path class="cls-1 qipsJrMD_0" d="M131.22,278.16L131.22,54.84L400.1,251.72L400.1,315.28L188.03,160.59L188.03,220.78L131.22,278.16Z"></path><path class="cls-1 qipsJrMD_1" d="M200.78,187.78L200.78,315.28L258.16,257.91L258.16,228.66L200.78,187.78Z"></path><path class="cls-1 qipsJrMD_2" d="M469.66,54.84L469.66,278.16L200.78,81.28L200.78,17.72L412.85,172.41L412.85,112.22L469.66,54.84Z"></path><path class="cls-1 qipsJrMD_3" d="M400.1,145.22L400.1,17.72L342.72,75.09L342.72,104.34L400.1,145.22Z"></path><path class="cls-1 qipsJrMD_4" d="M508.25,84.73a5.36,5.36,0,0,0-5.34-5.34H487.27a5.35,5.35,0,0,0-5.34,5.34V248.27a5.35,5.35,0,0,0,5.34,5.34h15.64a5.36,5.36,0,0,0,5.34-5.34v-75h10.89V159.73H508.25Z"></path><path class="cls-1 qipsJrMD_5" d="M566.84,159.73H550.15V109.64a5.35,5.35,0,0,0-5.34-5.34H529.17a5.35,5.35,0,0,0-5.33,5.34v50.09h0v13.54h0v50.09a5.35,5.35,0,0,0,5.33,5.34h15.64a5.35,5.35,0,0,0,5.34-5.34V173.27h16.69a6.77,6.77,0,0,0,0-13.54Z"></path><path class="cls-1 qipsJrMD_6" d="M112.73,79.39H97.09a5.36,5.36,0,0,0-5.34,5.34v75H80.86v13.54H91.75v75a5.36,5.36,0,0,0,5.34,5.34h15.64a5.35,5.35,0,0,0,5.34-5.34V84.73A5.35,5.35,0,0,0,112.73,79.39Z"></path><path class="cls-1 qipsJrMD_7" d="M76.16,109.64a5.35,5.35,0,0,0-5.33-5.34H55.19a5.35,5.35,0,0,0-5.34,5.34v50.09H33.16a6.77,6.77,0,1,0,0,13.54H49.85v50.09a5.35,5.35,0,0,0,5.34,5.34H70.83a5.35,5.35,0,0,0,5.33-5.34V173.27h0V159.73h0Z"></path><path class="cls-2 qipsJrMD_8" d="M247.31,298l-1.41-.14c-1.27-.14-1.41,0-1.41,1.27,0,4.51-4.93,24.93-9,37-5.63,16.91-14.37,34-22.54,44.1-4.08,5.07-11.69,11.13-15.78,12.68-6.62,2.53-11.13,1.26-14.37-4.09-3.52-5.78-4.93-13.95-4.93-28.46,0-13.8,1.27-24.51,5.36-44.66,2.11-10.42,2.67-14.79,2-15.92a2.05,2.05,0,0,0-3.52-.28c-.71.85-7.19,12.12-10.71,18.6-6.76,12.25-10.71,19.58-15.08,28-15.77,30.86-22.25,44.52-21.69,45.79a2,2,0,0,0,1.55.56l.28-.28c1,0,1.41-.42,2.11-2.25,2.82-7,24.52-49.45,34.66-67.77,7.61-13.8,8.45-15.35,8.6-15.21a22.29,22.29,0,0,1-.85,4.51c-1.27,5.77-3.8,19.58-4.79,26.06-2.4,16.2-2.4,32,0,42.26,2.25,9.87,5.78,14.66,11.83,16.49,12.4,3.52,28.6-10.43,41.14-35.36,9.16-18.18,18-46.64,18.46-59.18Z"></path><path class="cls-2 qipsJrMD_9" d="M478.92,343.4c1.41-1.69,1.26-2.82-.43-3.1-1-.15-3.66,3.38-3.24,4.22C475.82,345.65,477.51,345.09,478.92,343.4Z"></path><path class="cls-2 qipsJrMD_10" d="M490.75,354.53h.14c-9.16,5.91-17.19,9.43-20.29,9.43-3.38,0-3.1-2.39.85-8.73,2.11-3.38,2.39-4.09,1.83-4.65a1.93,1.93,0,0,0-1.27-.7c-1,0-2.07,1.22-4,4.05l-.4.31c-3.81,3-10.43,6.06-14.23,7.75-5.64,2.4-9.44,2.4-12.26.14-2.11-1.69-2.11-3.1,0-3.38a27.49,27.49,0,0,0,8.59-3.52c2-1.55,3-3.24,2.54-4.37-1.13-3.52-8-1.12-16.91,5.92l-4.5,3.52,1.83-3.24c3.1-5.63,11.41-18.6,17.47-27.33,3.24-4.65,5.91-8.74,5.91-9.16a1.14,1.14,0,0,0-1.26-1.12,2.26,2.26,0,0,0-1.27.42c-2.12,1.55-14.23,19.3-21,30.85-.2.33-.38.64-.58,1a27.54,27.54,0,0,0-2.95,1l.14-.14c-2.11.85-6.48,2.26-10.42,3.81s-7.47,3-7.89,3.24c-1,.7-1.27.28-2-2.4s-.28-4.37,1.27-5.21c1.26-.7,1.26-1.55-.15-2.11a1.78,1.78,0,0,0-.84-.14c-1.17,0-2.44.95-3.3,2.53-.77.4-1.7,1-2.9,1.69-6.2,3.81-12.11,5.5-16.76,5.5H384l.71-2c1.26-3.24,1-4.93-1.27-7a4.94,4.94,0,0,0-3-.85,5.72,5.72,0,0,0-3.1.85,12.83,12.83,0,0,1-2,1,9.28,9.28,0,0,0-2.2,2.08c-.63.44-1.35,1-2.17,1.58-8,6.06-11.83,8.73-15.78,9.86-2.11.56-2.39.56-3-.14-.7-.85-.7-.56,1.13-6.76,1.27-4.51,1.27-4.79.42-5.78-.7-1-1.12-1.13-2.81-1-2.26.28-4.51,1.4-10,5.35l-3.94,2.82.42-2.4c.85-4.93,0-6.62-3.1-6.62-2.68,0-5.77,2-12,7.33a32.28,32.28,0,0,1-3.24,2.53,15.91,15.91,0,0,1,1.55-3.66c2.53-5.5,3-6.76,2.25-7.33a1.36,1.36,0,0,0-1.27-.28c-.53.18-1.4,1.43-2.35,3.17l-.33.21c-.84.57-2,1.27-3.09,2.12-12.4,8.45-20,11.41-20,7.74a24.37,24.37,0,0,1,1.55-4.93c.84-2.11,1.41-4.22,1.27-4.51-.71-1.54-2-1-7.05,3.1-5.63,4.51-9.72,7.47-10.42,7.47s-.57-2.25.28-4.23c.42-1,1.55-3.1,2.54-4.79,1.69-2.81,1.83-3.09,1.12-3.66-1-.83-1.85-.66-3.18,1.09a10.23,10.23,0,0,0-2,1.17l.28.14c-1.12.7-2.53,1.83-4.36,3.24-6.48,5.21-10.43,7.32-13.67,7.6-1.69.15-2.11,0-2.68-.7-.84-1.27-.28-3.8,1.55-7.19,1.27-2.25,1.41-2.81.85-3.38-.85-.84-1.41-.7-3,.57l-1.41,1.12-.7-1.4a4.59,4.59,0,0,0-4.37-2.54,11.11,11.11,0,0,0-5.35,1.69c-6.91,3.94-11.7,12.54-8.17,14.65,2.53,1.55,7.18-.14,13.66-5.07l3.38-2.54v2.4c0,2.11.14,2.54,1.69,3.8,2.82,2.26,6.34,1.84,12.54-1.69a68.74,68.74,0,0,0,8.35-6c-1.38,3.09-1.69,5.41-.74,6.57,2.11,2.53,5.35,1.69,11.55-3.24l3.8-3.1-.28,2.81c-.28,2.54.71,5.36,4.79,5.5,3.52.14,10.57-3.24,18.18-8.45l1.13-.77c-1.26,3-2.26,6.05-2.26,7.53,0,1.69.14,1.83,1.27,2s1.83-.28,4.22-2.68c6.2-6.2,12-10.7,13.81-10.7.56,0,.56.42.28,2.95-.56,4.09-.42,5.36.57,5.92,1.4.85,3.09.14,7.46-3,4.79-3.38,8.31-5.49,8.74-5.07a4,4,0,0,1-.28,2c-.29,1-1,3.24-1.41,4.94-1,3.52-.57,5.21,1.41,6.05,3.89,1.56,9.12-.37,18.2-6.86-1.08,3-.65,5.5,1.38,7,1.83,1.27,3.38,1.41,5.91.57,1.84-.57,5.64-3.67,6.06-4.79.28-.57.85-.71,3.24-.71,5.78,0,11.41-1.41,18.74-5.63l.91-.54c.11.55.27,1.22.5,2.09l.84,3.66-1.12.56a39.78,39.78,0,0,0-7,5.08c-1.27,1.4-1.27,3.8,0,4.5s4.23.71,6.76-.28a8.76,8.76,0,0,0,5.36-6.9l.28-2.26,8-3.24c4.33-1.62,8.9-3.24,11.13-4.11-4.51,7.91-7.08,13.52-6.48,14.12a2.09,2.09,0,0,0,1.27.56c.42,0,2.81-2.11,5.49-4.65s5.07-4.79,5.36-4.93.84.42,1.26,1.13a9.78,9.78,0,0,0,5.78,4.22c3.1,1,6.76.57,11.13-1.26a85.47,85.47,0,0,0,12-6.33,13,13,0,0,0-1.29,4.49,3,3,0,0,0,1.55,2.68,5.12,5.12,0,0,0,3.94,1.27c3,0,5.21-.7,11.13-3.66a116.32,116.32,0,0,0,13.38-7.89c1.7-1.27,2.82-2.12,2.82-2.4C497.09,351,495.26,351.57,490.75,354.53Zm-48.89.28a26.83,26.83,0,0,1,5.78-3.24c.85,0,.28.84-1.13,1.69-.84.42-2.39,1.12-3.38,1.55C441.44,355.37,441.3,355.37,441.86,354.81Zm-190.19,4.36-.28-.14c-1.83,1.41-4.65,3.24-6.2,4.23-3.66,2.11-4.5,2.25-4.08.42,1-4.08,8.73-10.7,11.83-10.56a1.1,1.1,0,0,1,.71.28,4.14,4.14,0,0,1,1,1.83C255.06,356.64,254.92,356.78,251.67,359.17ZM378.61,363a8.77,8.77,0,0,1-2.82,2.11c-2.25,1.13-3.24,1.13-3.94-.14s-.29-3.1,1.26-5.78l1.13-2,1.13,1.55a12.79,12.79,0,0,0,3,2.4l1.26.7Zm3.38-6.2h-.14a5.56,5.56,0,0,1-1,2.39c-.28.15-1.12-.14-2-.7-1.13-.85-1.55-1.41-1.55-2.4a3.93,3.93,0,0,1,3-3.52h.42Q382.84,352.76,382,356.78Zm21.84,11.83.14.14a6.15,6.15,0,0,1-2.82,1c-1.13,0-1.27-.14-.85-.84s5.5-4.51,6.06-4.51C407.63,364.39,405.94,367.21,403.83,368.61Z"></path><style data-made-with="vivus-instant">.qipsJrMD_0{stroke-dasharray:1024 1026;stroke-dashoffset:1025;animation:qipsJrMD_draw_0 6600ms ease-in 0ms infinite,qipsJrMD_fade 6600ms linear 0ms infinite;}.qipsJrMD_1{stroke-dasharray:309 311;stroke-dashoffset:310;animation:qipsJrMD_draw_1 6600ms ease-in 0ms infinite,qipsJrMD_fade 6600ms linear 0ms infinite;}.qipsJrMD_2{stroke-dasharray:1024 1026;stroke-dashoffset:1025;animation:qipsJrMD_draw_2 6600ms ease-in 0ms infinite,qipsJrMD_fade 6600ms linear 0ms infinite;}.qipsJrMD_3{stroke-dasharray:309 311;stroke-dashoffset:310;animation:qipsJrMD_draw_3 6600ms ease-in 0ms infinite,qipsJrMD_fade 6600ms linear 0ms infinite;}.qipsJrMD_4{stroke-dasharray:414 416;stroke-dashoffset:415;animation:qipsJrMD_draw_4 6600ms ease-in 0ms infinite,qipsJrMD_fade 6600ms linear 0ms infinite;}.qipsJrMD_5{stroke-dasharray:334 336;stroke-dashoffset:335;animation:qipsJrMD_draw_5 6600ms ease-in 0ms infinite,qipsJrMD_fade 6600ms linear 0ms infinite;}.qipsJrMD_6{stroke-dasharray:414 416;stroke-dashoffset:415;animation:qipsJrMD_draw_6 6600ms ease-in 0ms infinite,qipsJrMD_fade 6600ms linear 0ms infinite;}.qipsJrMD_7{stroke-dasharray:334 336;stroke-dashoffset:335;animation:qipsJrMD_draw_7 6600ms ease-in 0ms infinite,qipsJrMD_fade 6600ms linear 0ms infinite;}.qipsJrMD_8{stroke-dasharray:646 648;stroke-dashoffset:647;animation:qipsJrMD_draw_8 6600ms ease-in 0ms infinite,qipsJrMD_fade 6600ms linear 0ms infinite;}.qipsJrMD_9{stroke-dasharray:15 17;stroke-dashoffset:16;animation:qipsJrMD_draw_9 6600ms ease-in 0ms infinite,qipsJrMD_fade 6600ms linear 0ms infinite;}.qipsJrMD_10{stroke-dasharray:1094 1096;stroke-dashoffset:1095;animation:qipsJrMD_draw_10 6600ms ease-in 0ms infinite,qipsJrMD_fade 6600ms linear 0ms infinite;}@keyframes qipsJrMD_draw{100%{stroke-dashoffset:0;}}@keyframes qipsJrMD_fade{0%{stroke-opacity:1;}93.93939393939394%{stroke-opacity:1;}100%{stroke-opacity:0;}}@keyframes qipsJrMD_draw_0{1.5151515151515151%{stroke-dashoffset: 1025}62.121212121212125%{ stroke-dashoffset: 0;}100%{ stroke-dashoffset: 0;}}@keyframes qipsJrMD_draw_1{4.545454545454546%{stroke-dashoffset: 310}65.15151515151516%{ stroke-dashoffset: 0;}100%{ stroke-dashoffset: 0;}}@keyframes qipsJrMD_draw_2{7.575757575757576%{stroke-dashoffset: 1025}68.18181818181817%{ stroke-dashoffset: 0;}100%{ stroke-dashoffset: 0;}}@keyframes qipsJrMD_draw_3{10.606060606060606%{stroke-dashoffset: 310}71.21212121212122%{ stroke-dashoffset: 0;}100%{ stroke-dashoffset: 0;}}@keyframes qipsJrMD_draw_4{13.636363636363635%{stroke-dashoffset: 415}74.24242424242425%{ stroke-dashoffset: 0;}100%{ stroke-dashoffset: 0;}}@keyframes qipsJrMD_draw_5{16.666666666666664%{stroke-dashoffset: 335}77.27272727272727%{ stroke-dashoffset: 0;}100%{ stroke-dashoffset: 0;}}@keyframes qipsJrMD_draw_6{19.696969696969695%{stroke-dashoffset: 415}80.3030303030303%{ stroke-dashoffset: 0;}100%{ stroke-dashoffset: 0;}}@keyframes qipsJrMD_draw_7{22.727272727272727%{stroke-dashoffset: 335}83.33333333333334%{ stroke-dashoffset: 0;}100%{ stroke-dashoffset: 0;}}@keyframes qipsJrMD_draw_8{25.757575757575758%{stroke-dashoffset: 647}86.36363636363636%{ stroke-dashoffset: 0;}100%{ stroke-dashoffset: 0;}}@keyframes qipsJrMD_draw_9{28.78787878787879%{stroke-dashoffset: 16}89.39393939393939%{ stroke-dashoffset: 0;}100%{ stroke-dashoffset: 0;}}@keyframes qipsJrMD_draw_10{31.818181818181817%{stroke-dashoffset: 1095}92.42424242424242%{ stroke-dashoffset: 0;}100%{ stroke-dashoffset: 0;}}</style></svg>