<svg id="Layer_1" data-name="Layer 1" xmlns="http://www.w3.org/2000/svg" viewBox="0 0 691.19 95.34"><defs><style>.cls-1{fill:#efefef;}</style></defs><polygon class="cls-1" points="34.67 78.95 51.09 62.37 51.09 44.98 112.38 89.68 112.38 71.31 34.67 14.41 34.67 78.95"/><polygon class="cls-1" points="54.77 89.68 71.36 73.1 71.36 64.65 54.77 52.83 54.77 89.68"/><polygon class="cls-1" points="116.06 48.39 54.77 3.69 54.77 22.05 132.48 78.95 132.48 14.41 116.06 31 116.06 48.39"/><polygon class="cls-1" points="112.38 3.69 95.79 20.27 95.79 28.72 112.38 40.53 112.38 3.69"/><path class="cls-1" d="M143.63,24.18A2.68,2.68,0,0,0,141,21.51h-2.27A2.67,2.67,0,0,0,136,24.18v45a2.67,2.67,0,0,0,2.66,2.67H141a2.68,2.68,0,0,0,2.67-2.67V48.64h3.15V44.73h-3.15Z"/><path class="cls-1" d="M160.57,44.73h-4.83V31.37a2.67,2.67,0,0,0-2.67-2.66H150.8a2.67,2.67,0,0,0-2.66,2.66V62a2.67,2.67,0,0,0,2.66,2.67h2.27A2.68,2.68,0,0,0,155.74,62V48.64h4.83a2,2,0,0,0,0-3.91Z"/><path class="cls-1" d="M28.2,21.51H25.93a2.67,2.67,0,0,0-2.66,2.67V44.73H20.12v3.91h3.15V69.19a2.67,2.67,0,0,0,2.66,2.67H28.2a2.68,2.68,0,0,0,2.67-2.67v-45A2.68,2.68,0,0,0,28.2,21.51Z"/><path class="cls-1" d="M18.76,31.37a2.67,2.67,0,0,0-2.67-2.66H13.82a2.67,2.67,0,0,0-2.66,2.66V44.73H6.33a2,2,0,0,0,0,3.91h4.83V62a2.67,2.67,0,0,0,2.66,2.67h2.27A2.68,2.68,0,0,0,18.76,62V48.64h0V44.73h0Z"/><path class="cls-1" d="M223.13,53.84,177,32.32V60.76h4.67V39.4c38.78,18.06,44.92,21.07,45.94,21.48l.16.08V32.48h-4.64Z"/><path class="cls-1" d="M230.62,61h39.63l-4.07-4.43H240.92l15.74-17.25.86.94c3.78,4.15,18.79,20.54,19,20.74h6.18c-6.35-7-23.15-25.42-26-28.48Z"/><path class="cls-1" d="M329.9,53.4a3.2,3.2,0,0,1-3.3,3.13H291.78a3.34,3.34,0,0,1-3.3-3.13V32.48h-4.64V53.4c0,4.23,3.87,7.56,7.94,7.56H326.6a7.87,7.87,0,0,0,7.94-7.56V32.48H329.9Z"/><polygon class="cls-1" points="339.43 32.48 339.43 60.96 344.06 60.96 344.06 42.41 364.77 60.07 385.56 42.41 385.56 60.96 390.2 60.96 390.2 32.48 364.73 54.09 339.43 32.48"/><path class="cls-1" d="M437.81,32.48H403.1a7.82,7.82,0,0,0-8,7.61V53.44a7.81,7.81,0,0,0,8,7.6h34.71a7.81,7.81,0,0,0,8-7.6V40.09A7.82,7.82,0,0,0,437.81,32.48Zm3.37,20.92a3.33,3.33,0,0,1-3.41,3.13H403.06a3.34,3.34,0,0,1-3.42-3.13V40.05A3.28,3.28,0,0,1,403.06,37h34.71a3.27,3.27,0,0,1,3.41,3.09Z"/><path class="cls-1" d="M449.53,40.62v.16c0,4.68,4.27,8.14,8.5,8.14h33.61a3.79,3.79,0,0,1,3.86,3.74,3.87,3.87,0,0,1-3.94,3.79H449.49v4.43h42.07a8.47,8.47,0,0,0,8.62-8.26c0-4.55-4.23-8.21-8.58-8.21H458.07a3.87,3.87,0,0,1-3.94-3.79A3.71,3.71,0,0,1,457.87,37h42.31V32.48H458.11C453.6,32.48,449.53,36.06,449.53,40.62Z"/><path class="cls-1" d="M527.73,48.92l0,0,2.2,1.83c1.3,1.1,3,2.65,4.8,4.15l7,6h6.91c-5.08-4.43-8.42-7.24-17-14.6Z"/><path class="cls-1" d="M547.14,32.52l-8.22-.08-30.43,20.1V32.44h-4.64V60.88l4.64-3c6.87-4.47,16.51-10.82,24.45-16Z"/><rect class="cls-1" x="551.49" y="32.48" width="4.68" height="28.48"/><path class="cls-1" d="M563.13,56.94A2.1,2.1,0,0,0,561.06,59a2,2,0,0,0,2.07,2,2.11,2.11,0,0,0,2.16-2A2.18,2.18,0,0,0,563.13,56.94Z"/><polygon class="cls-1" points="570.21 60.96 574.85 60.96 574.85 48.92 618.1 48.92 618.1 44.49 570.17 44.49 570.21 60.96"/><polygon class="cls-1" points="570.17 36.88 620.86 36.88 620.86 32.4 570.17 32.44 570.17 36.88"/><rect class="cls-1" x="624.12" y="32.48" width="4.68" height="28.48"/><polygon class="cls-1" points="632.06 32.48 632.06 36.96 655.04 36.96 655.04 60.96 659.68 60.96 659.68 36.96 682.75 36.96 682.75 32.48 632.06 32.48"/></svg>