<svg id="Layer_1" data-name="Layer 1" xmlns="http://www.w3.org/2000/svg" viewBox="0 0 1080 511.06" style=""><defs><style>.cls-1{fill:none;stroke:#fff;stroke-width:3px;}</style></defs><path class="cls-1 DCanqAFj_0" d="M825.56,171.65c3.7-4.45,3.33-7.41-1.11-8.15-2.6-.37-9.63,8.89-8.52,11.11C817.41,177.57,821.85,176.09,825.56,171.65Z"></path><path class="cls-1 DCanqAFj_1" d="M976,171.65c3.71-4.45,3.34-7.41-1.11-8.15-2.59-.37-9.63,8.89-8.52,11.11C967.8,177.57,972.25,176.09,976,171.65Z"></path><path class="cls-1 DCanqAFj_2" d="M1007.07,200.91h.37c-24.08,15.56-45.19,24.82-53.34,24.82-8.89,0-8.15-6.3,2.22-23,5.56-8.89,6.3-10.74,4.82-12.22a5.13,5.13,0,0,0-3.34-1.85c-2,0-4.33,2.09-7.76,6.8a97.88,97.88,0,0,0-11.87,7.27l-.37-.74c-32.6,22.23-52.6,29.27-66.31,26.3-8.89-1.85-10.37-8.15-4.07-18.89,3.7-6.67,13.7-15.19,16.67-14.45a5.82,5.82,0,0,1,2.22,3.71c1.11,4.44,2.22,5.93,5.18,5.93,6.3,0,3.34-12.6-3.7-15.19-5.22-1.92-11.58-.07-17.32,4.15-2.75.61-7.17,3-13.8,7.33h.38c-24.08,15.56-45.2,24.82-53.35,24.82-8.89,0-8.15-6.3,2.22-23,5.56-8.89,6.3-10.74,4.82-12.22a5.11,5.11,0,0,0-3.33-1.85c-2.14,0-4.53,2.27-8.21,7.42-2.28,1.46-5.17,3.53-8.84,6.28-21.11,15.93-31.11,23-41.48,25.93-5.56,1.49-6.3,1.49-7.78-.37-1.86-2.22-1.86-1.48,3-17.78,3.33-11.85,3.33-12.59,1.11-15.19-1.85-2.59-3-3-7.41-2.59-5.92.74-11.85,3.71-26.3,14.08l-10.37,7.41,1.11-6.3c2.22-13,0-17.41-8.15-17.41-7,0-15.19,5.19-31.49,19.26-4.44,3.71-8.15,6.67-8.52,6.67s1.49-4.45,4.08-9.63c6.67-14.45,7.78-17.78,5.93-19.27a3.57,3.57,0,0,0-3.34-.74c-4.44,1.49-18.15,31.86-18.15,40.75,0,4.45.37,4.82,3.33,5.19s4.82-.74,11.12-7c16.3-16.3,31.48-28.15,36.3-28.15,1.48,0,1.48,1.11.74,7.78-1.48,10.74-1.11,14.07,1.48,15.55,3.71,2.23,8.15.37,19.64-7.77,12.59-8.9,21.85-14.45,23-13.34.37.37,0,2.59-.74,5.19s-2.59,8.52-3.7,13c-2.6,9.26-1.48,13.71,3.7,15.93,11,4.38,25.89-1.69,53-21.75-1.58,3.9-2.57,7.53-2.57,9.9,0,3,1.11,4.81,4.08,7,3.33,2.6,5.18,3.34,10.37,3.34,7.78,0,13.71-1.85,29.26-9.63a319.46,319.46,0,0,0,27.83-15.83,39,39,0,0,0-3.38,8.42c-2.59,9.26,3.34,17.78,13,19.63a31.71,31.71,0,0,1,4.81,1.11c5.19,1.48,20.75-1.85,31.86-6.67A265.51,265.51,0,0,0,942,208.84c-2.3,5-3.83,9.87-3.83,12.82s1.11,4.81,4.07,7c3.34,2.6,5.19,3.34,10.38,3.34,7.78,0,13.7-1.85,29.26-9.63a302.9,302.9,0,0,0,35.19-20.75c4.45-3.33,7.41-5.55,7.41-6.29C1023.74,191.65,1018.92,193.13,1007.07,200.91Z"></path><path class="cls-1 DCanqAFj_3" d="M130.57,303.77c-1.82-1-4.65-1.24-17.82-1.24-6.19,0-10.92-.1-13.32-.21,1.84-4.28,7.39-15.91,11.94-24.67,9.67-18.52,59.82-97.74,61.18-100.07,1.73-2.79,2.81-4,3.78-4.11,2.64-.43,38.13.28,40.47.83a3.33,3.33,0,0,0,3.79-1.59,3.29,3.29,0,0,0-1.05-3.93h0c-.85-.72-2.61-2.24-33.47-2.24-20.54,0-37.3,1.06-49.84,3.15-4,.72-5.92,1.75-6.36,3.33a2.75,2.75,0,0,0,1.11,2.86c1.65,1.32,3.18,1.12,6.81.52a220.82,220.82,0,0,1,27.73-2.63h.26c-2.53,4-9.18,14-12,18.23-27.81,42-49.66,80-60,104.32l-.41.41-2.67,6.1-1.8.13c-5.65.41-25.66,2.08-27.82,2.52s-3.66,1.34-3.91,2.74c-.1.55-.13,1.93,1.8,3a7.55,7.55,0,0,0,3.18.66,6.74,6.74,0,0,0,1.21-.1c3.48-.41,14.15-1.24,21.18-1.66,3.66-.28,5.92-.42,6.32,0a4.32,4.32,0,0,0,3.24,1.26,5,5,0,0,0,3.49-1.7c.62-.55,2.86-.6,13.94-.78h.6c13.24,0,15.23.43,15.43.5,2.68,1.17,4.59.27,5.23-1.06S133,305.06,130.57,303.77Z"></path><path class="cls-1 DCanqAFj_4" d="M239.48,175.87c1.64,1.32,3.18,1.12,6.8.52A221.15,221.15,0,0,1,274,173.76h.27c-2.53,4-9.19,14-12,18.23-27.81,42-49.66,80-60,104.32l-.41.41-2.66,6.1-1.81.13c-5.64.41-25.65,2.08-27.82,2.52s-3.66,1.34-3.91,2.74c-.1.55-.12,1.93,1.8,3a7.63,7.63,0,0,0,3.19.66,6.7,6.7,0,0,0,1.2-.1c3.48-.41,14.16-1.24,21.18-1.66,3.67-.28,5.92-.42,6.33,0a4.29,4.29,0,0,0,3.23,1.26,5,5,0,0,0,3.5-1.7c.61-.55,2.85-.6,13.94-.78h.59c13.24,0,15.23.43,15.43.5,2.68,1.17,4.59.27,5.24-1.06s.19-3.25-2.22-4.54c-1.83-1-4.66-1.24-17.83-1.24-6.18,0-10.92-.1-13.32-.21,1.85-4.28,7.39-15.91,11.95-24.67,9.67-18.52,28.4-49.46,50.11-82.76l.88-1.36c4.34-6.7,8.82-13.62,10.18-15.95,1.74-2.79,2.82-4,3.78-4.11,2.64-.43,38.13.28,40.47.83a3.33,3.33,0,0,0,3.79-1.59,3.29,3.29,0,0,0-1.06-3.94c-.85-.72-2.61-2.24-33.47-2.24-20.53,0-37.29,1.06-49.83,3.15-4,.72-5.93,1.75-6.36,3.33A2.72,2.72,0,0,0,239.48,175.87Z"></path><path class="cls-1 DCanqAFj_5" d="M244.14,356.69c0-3.34-3.7-3.34-11.85-.37l-.37-.75a45,45,0,0,1-15.19,2.6c-8.89,0-10.74-2.22-13.7-6.67-4.45-7.41-6.3-7-20,3.7-11.11,8.89-11.48,8.89-8.52,4.45,2.59-4.45,2.59-4.82.74-6.3-3.33-3-5.92-.74-14.07,12.6-9.64,15.55-13.71,25.56-11.49,27.78a5.51,5.51,0,0,0,3.34,1.48c1.11,0,7-5.56,13.33-12.59C179,368.91,193,355.2,194.88,355.2c.74,0,2.59,1.49,4.44,3.34,4.45,4.44,10,7.41,20.75,6.67a59,59,0,0,0,19.26-4.45C242.29,359.28,244.14,357.8,244.14,356.69Z"></path><path class="cls-1 DCanqAFj_6" d="M266,335.2c1.48,3,5.92,1.48,9.63-3s3.33-7.41-1.11-8.15C271.92,323.72,264.89,333,266,335.2Z"></path><path class="cls-1 DCanqAFj_7" d="M427.13,305.57c8.89-1.12,83.35,1.11,83.72-1.49.74-4.81-1.48-5.18-43.71-5.55l.37.37c-21.86-.37-39.64-.74-39.64-1.11S484.38,208,486.61,208c.74,0,12.59-1.11,26.67-2.59,23-2.23,50-4.45,80-6.3l11.11-.74-.74,2.59c-3.33,11.11-8.15,31.12-11.85,49.27-8.52,39.27-10.37,54.45-7.41,58.9,1.48,2.22,7.41,2.59,8.52.37.37-.74.37-3.71,0-6.67-1.11-8.89,6.3-47.41,17.41-88.9l4.45-16.3H630c14.82,0,15.56,0,15.93-2.22.74-3.34-4.07-4.45-17.78-4.45h-1.48c-6.3,0-11.48-.37-11.48-.74s5.18-20,11.48-43.34c12.6-47.79,15.19-60.38,15.19-73S638.11,55,630.34,55c-5.93,0-14.08,3.7-24.82,11.11C576.62,86.45,529.58,136.45,484,195.36L478.83,202l-17.78,2.23c-33,4.44-51.5,9.26-51.5,13.33,0,3.71,3,3.71,16.3.37,13-3.33,45.57-8.52,46.68-7.41.37.37-56.14,88.36-56.14,88.36H409c-11.85,0-90.14,3.53-92.55,3.42,1.85-4.28,7.39-15.91,11.95-24.67,9.67-18.52,28.41-49.46,50.12-82.77l.88-1.35c4.33-6.7,8.81-13.62,10.17-15.95,1.74-2.79,2.82-4,3.78-4.11,2.64-.43,38.13.28,40.47.83a3.32,3.32,0,0,0,3.79-1.59,3.28,3.28,0,0,0-1-3.93h0c-.84-.72-2.61-2.24-33.46-2.24-20.54,0-37.3,1.06-49.84,3.15-4,.72-5.92,1.75-6.36,3.33a2.72,2.72,0,0,0,1.11,2.86c1.64,1.32,3.18,1.12,6.81.52a220.85,220.85,0,0,1,27.72-2.63h.27c-2.53,4-9.19,14-12,18.23-27.81,42-49.66,80-60,104.32l-.41.41-2.67,6.1-1.8.13c-5.65.41-25.66,2.08-27.82,2.52s-3.67,1.34-3.92,2.74c-.09.55-.12,1.93,1.81,3a7.55,7.55,0,0,0,3.18.66,6.7,6.7,0,0,0,1.2-.1c3.48-.41,14.16-1.24,21.19-1.66,3.66-.28,5.91-.42,6.32,0a4.32,4.32,0,0,0,3.24,1.26,5,5,0,0,0,3.49-1.7c.62-.55,2.86-.6,13.94-.78h.59c5,0,81-3.3,81.7-2.56.37.37-2.59,6.29-6.66,13.33s-11.86,20.38-17,29.64c-.85,1.51-1.86,3.3-3,5.28-1.63.51-3.57,1.21-5.91,2.13l.38-.37c-5.56,2.22-17,5.92-27.42,10s-19.63,7.78-20.74,8.52c-2.59,1.85-3.34.74-5.19-6.3s-.74-11.48,3.34-13.71c3.33-1.85,3.33-4.07-.37-5.55a4.75,4.75,0,0,0-2.23-.37c-3,0-6.27,2.38-8.52,6.35a83.73,83.73,0,0,0-10.73,6.24h.37c-24.08,15.56-45.2,24.82-53.35,24.82-8.89,0-8.15-6.3,2.23-23,5.55-8.89,6.29-10.74,4.81-12.22a5.11,5.11,0,0,0-3.33-1.85c-2.6,0-5.56,3.33-10.75,11.11-4.81,7-8.89,17-8.89,21.86,0,3,1.12,4.81,4.08,7,3.33,2.6,5.18,3.34,10.37,3.34,7.78,0,13.71-1.85,29.27-9.63a308,308,0,0,0,33.91-19.87,56.29,56.29,0,0,0,1.64,7.64l2.23,9.63-3,1.49c-5.93,3.33-15.93,10.37-18.52,13.33-3.33,3.71-3.33,10,0,11.86,3.7,2.22,11.11,1.85,17.78-.75a23.09,23.09,0,0,0,14.08-18.15l.74-5.92,21.11-8.52c10.28-3.86,21.1-7.71,27.42-10.11-5.18,9.07-11.3,19.76-16.3,28.63C340.45,431.14,326,461.89,328.6,466c1.48,2.6,7,3,8.89.75.74-.75,1.11-3.71,1.11-6.3,0-7,9.63-27.41,67-126,4.07-7,9.63-16.3,12.22-20.37C422,307.05,422.69,306.31,427.13,305.57Zm65-105.4c0-.74,22.23-28.89,31.86-40.38,28.89-34.45,52.23-58.53,76.68-78.53,15.93-13,25.93-19.26,30.38-18.89h1.11c4.44,1.48,3.33,17.78-2.6,41.86-1.85,7.41-6.66,25.56-10.74,40.38s-8.52,31.48-10,36.67l.37.37-2.59,9.63-5.19.37c-21.85,1.11-72.23,5.19-88.16,7C491.79,200.91,492.16,200.91,492.16,200.17ZM311.93,398.54l.37.38a16.29,16.29,0,0,1-7.41,2.59c-3,0-3.34-.37-2.22-2.22,1.48-2.23,14.44-11.86,15.92-11.86C321.93,387.43,317.48,394.84,311.93,398.54Z"></path><path class="cls-1 DCanqAFj_8" d="M580.12,356.69c0-3.34-3.7-3.34-11.85-.37l-.37-.75a45,45,0,0,1-15.19,2.6c-8.89,0-10.74-2.22-13.71-6.67-4.44-7.41-6.3-7-20,3.7-11.11,8.89-11.48,8.89-8.52,4.45l.36-.63a4.48,4.48,0,0,0,1.47-2.84c.51-1.39.09-1.88-1.09-2.83-2.11-1.88-3.93-1.67-7.05,2.13-2,1.06-4.57,2.57-7.77,4.54-16.29,10-31.85,14.45-44.08,14.45H446.4l1.85-5.19c3.33-8.52,2.59-13-3.34-18.52-1.85-1.48-4.81-2.22-7.78-2.22a14.92,14.92,0,0,0-8.14,2.22,33.76,33.76,0,0,1-5.19,2.59c-1.11.37-4.45,3.71-7.41,7.41-11.85,14.45-14.08,27.41-5.56,33.71,4.82,3.33,8.89,3.7,15.56,1.48,4.82-1.48,14.82-9.63,15.93-12.59.74-1.48,2.22-1.86,8.52-1.86,13.81,0,27.32-3.08,44.14-12-8.06,13.51-11.37,22.17-9.32,24.22a5.51,5.51,0,0,0,3.33,1.48c1.11,0,7-5.56,13.34-12.59,12.59-13.71,26.67-27.42,28.52-27.42.74,0,2.6,1.49,4.45,3.34,4.44,4.44,10,7.41,20.74,6.67a59,59,0,0,0,19.27-4.45C578.27,359.28,580.12,357.8,580.12,356.69Zm-147.8,27a22.92,22.92,0,0,1-7.41,5.55c-5.93,3-8.52,3-10.37-.37s-.74-8.15,3.33-15.18l3-5.19,3,4.07c1.48,2.23,5.19,4.45,7.78,6.3l3.33,1.85Zm8.89-16.3h-.37c-.74,3-1.85,5.93-2.59,6.3s-3-.37-5.19-1.86c-3-2.22-4.07-3.7-4.07-6.29,0-4.08,4.07-8.89,7.77-9.26h1.12Q443.43,356.88,441.21,367.43Z"></path><path class="cls-1 DCanqAFj_9" d="M875,298.53s-39.27-.37-39.27-.74A103.36,103.36,0,0,1,841.64,287c6.3-10.37,6.67-14.44,1.48-13.7-1.85.37-4.82,4.07-10.74,13l-8.15,12.6h-7.41c-11.86,0-47.05,2.22-58.53,3.7-11.11,1.48-13.71,3-11.11,5.93,1.48,1.85,2.59,1.85,11.48.74,12.22-1.48,59.27-3.7,60-3,.37.37-2.59,6.29-6.67,13.33S800.15,340,795,349.28L792,354.49a63,63,0,0,0-10,6.27c-25.93,18.52-45.94,28.89-52.6,27-2.6-.74-1.86-7.78,1.85-16.67,4.07-10,4.44-15.18.74-17.78-6.3-4.81-20,1.48-44.45,20.38-10.37,8.15-14.45,10.74-13.71,8.89,1.11-3.34,10-18.16,14.82-24.82,3.33-4.45,3.33-4.82,1.11-6.67-1.48-1.48-2.59-1.48-4.07-.74s-3.82,3.34-6.36,6.83l-.31.21.12.06-1,1.36c-2.67,1.84-5.9,4.39-9.89,7.47-17,13.7-27.41,19.26-35.93,20-4.45.37-5.56,0-7-1.85-2.22-3.34-.74-10,4.07-18.89,3.34-5.93,3.71-7.41,2.23-8.89-2.23-2.23-3.71-1.86-7.78,1.48l-3.71,3-1.85-3.7c-2.22-4.45-6.3-6.67-11.48-6.67-4.08,0-8.89,1.48-14.08,4.44-18.15,10.38-30.75,33-21.49,38.53,6.67,4.07,18.9-.37,35.94-13.34l8.89-6.66V380c0,5.56.37,6.67,4.44,10,7.41,5.92,16.67,4.81,33-4.45a158.08,158.08,0,0,0,15-10.25,43.59,43.59,0,0,0-3.86,9.88c-.37,2.59,0,4.44,1.48,5.56a7.82,7.82,0,0,0,4.82,1.85c2.59,0,16.3-9.26,26.3-17.78s28.15-19.27,30-17.78c.37.37-.74,4.44-2.59,9.26-4.81,12.59-5.56,17-3,21.11,4.44,7,13.33,7.78,26.67,1.85,10.58-4.4,25.58-13.94,36.51-22.13-4.7,8.23-9.92,17.35-14.29,25.1-22.22,38.89-36.67,69.64-34.08,73.71,1.49,2.6,7,3,8.89.75.75-.75,1.12-3.71,1.12-6.3,0-7,9.63-27.41,67-126,4.08-7,9.64-16.3,12.23-20.37,4.07-7,4.82-7.78,9.26-8.52,8.89-1.12,72.61-.75,74.09.37,2.59,1.85,9.26.74,9.63-1.86C919.43,299.27,917.21,298.9,875,298.53Zm-270.42,75.2-.74-.37c-4.81,3.7-12.22,8.52-16.3,11.11-9.63,5.56-11.85,5.93-10.74,1.11,2.59-10.74,23-28.15,31.12-27.78a2.83,2.83,0,0,1,1.85.74c.74.37,1.85,2.59,2.59,4.81C613.45,367.06,613.08,367.43,604.56,373.73Z"></path><path class="cls-1 DCanqAFj_10" d="M892.39,361.87l-.37-.37c-25.19,19.63-41.86,28.15-54.83,28.15q-13.89,0-14.45-8.89a12.69,12.69,0,0,1,.75-6.66c1.11-2.23,1.85-1.11,9.26-1.49,4.44-.37,8.89-1.11,13-4.81,7.41-6.3,7.78-13,1.48-15.93a9.85,9.85,0,0,0-4.44-1.11c-11.49,0-27.41,14.08-28.9,27-1.11,9.26,5.56,15.93,18.16,18.15,16.29,2.59,35.19-5.55,62.6-27,8.52-6.67,12.22-11.11,12.22-12.22C907.2,354.46,905.72,351.5,892.39,361.87Zm-59.27-1.11-.37,1.11c3.7-3,8.15-5.18,10-5.18h.74c1.48,1.11-1.48,5.18-5.19,7-4.81,2.23-4.81,2.23-7,1.12C830.15,364.09,830.52,363,833.12,360.76Z"></path><style data-made-with="vivus-instant">.DCanqAFj_0{stroke-dasharray:38 40;stroke-dashoffset:39;animation:DCanqAFj_draw_0 9800ms ease 0ms infinite,DCanqAFj_fade 9800ms linear 0ms infinite;}.DCanqAFj_1{stroke-dasharray:38 40;stroke-dashoffset:39;animation:DCanqAFj_draw_1 9800ms ease 0ms infinite,DCanqAFj_fade 9800ms linear 0ms infinite;}.DCanqAFj_2{stroke-dasharray:1331 1333;stroke-dashoffset:1332;animation:DCanqAFj_draw_2 9800ms ease 0ms infinite,DCanqAFj_fade 9800ms linear 0ms infinite;}.DCanqAFj_3{stroke-dasharray:631 633;stroke-dashoffset:632;animation:DCanqAFj_draw_3 9800ms ease 0ms infinite,DCanqAFj_fade 9800ms linear 0ms infinite;}.DCanqAFj_4{stroke-dasharray:631 633;stroke-dashoffset:632;animation:DCanqAFj_draw_4 9800ms ease 0ms infinite,DCanqAFj_fade 9800ms linear 0ms infinite;}.DCanqAFj_5{stroke-dasharray:263 265;stroke-dashoffset:264;animation:DCanqAFj_draw_5 9800ms ease 0ms infinite,DCanqAFj_fade 9800ms linear 0ms infinite;}.DCanqAFj_6{stroke-dasharray:38 40;stroke-dashoffset:39;animation:DCanqAFj_draw_6 9800ms ease 0ms infinite,DCanqAFj_fade 9800ms linear 0ms infinite;}.DCanqAFj_7{stroke-dasharray:3427 3429;stroke-dashoffset:3428;animation:DCanqAFj_draw_7 9800ms ease 0ms infinite,DCanqAFj_fade 9800ms linear 0ms infinite;}.DCanqAFj_8{stroke-dasharray:612 614;stroke-dashoffset:613;animation:DCanqAFj_draw_8 9800ms ease 0ms infinite,DCanqAFj_fade 9800ms linear 0ms infinite;}.DCanqAFj_9{stroke-dasharray:1583 1585;stroke-dashoffset:1584;animation:DCanqAFj_draw_9 9800ms ease 0ms infinite,DCanqAFj_fade 9800ms linear 0ms infinite;}.DCanqAFj_10{stroke-dasharray:350 352;stroke-dashoffset:351;animation:DCanqAFj_draw_10 9800ms ease 0ms infinite,DCanqAFj_fade 9800ms linear 0ms infinite;}@keyframes DCanqAFj_draw{100%{stroke-dashoffset:0;}}@keyframes DCanqAFj_fade{0%{stroke-opacity:1;}95.91836734693878%{stroke-opacity:1;}100%{stroke-opacity:0;}}@keyframes DCanqAFj_draw_0{4.081632653061225%{stroke-dashoffset: 39}44.89795918367347%{ stroke-dashoffset: 0;}100%{ stroke-dashoffset: 0;}}@keyframes DCanqAFj_draw_1{6.122448979591836%{stroke-dashoffset: 39}46.93877551020408%{ stroke-dashoffset: 0;}100%{ stroke-dashoffset: 0;}}@keyframes DCanqAFj_draw_2{8.16326530612245%{stroke-dashoffset: 1332}48.97959183673469%{ stroke-dashoffset: 0;}100%{ stroke-dashoffset: 0;}}@keyframes DCanqAFj_draw_3{10.204081632653061%{stroke-dashoffset: 632}51.02040816326531%{ stroke-dashoffset: 0;}100%{ stroke-dashoffset: 0;}}@keyframes DCanqAFj_draw_4{12.244897959183673%{stroke-dashoffset: 632}53.06122448979592%{ stroke-dashoffset: 0;}100%{ stroke-dashoffset: 0;}}@keyframes DCanqAFj_draw_5{14.285714285714285%{stroke-dashoffset: 264}55.10204081632652%{ stroke-dashoffset: 0;}100%{ stroke-dashoffset: 0;}}@keyframes DCanqAFj_draw_6{16.3265306122449%{stroke-dashoffset: 39}57.14285714285714%{ stroke-dashoffset: 0;}100%{ stroke-dashoffset: 0;}}@keyframes DCanqAFj_draw_7{18.367346938775512%{stroke-dashoffset: 3428}59.183673469387756%{ stroke-dashoffset: 0;}100%{ stroke-dashoffset: 0;}}@keyframes DCanqAFj_draw_8{20.408163265306122%{stroke-dashoffset: 613}61.224489795918366%{ stroke-dashoffset: 0;}100%{ stroke-dashoffset: 0;}}@keyframes DCanqAFj_draw_9{22.448979591836736%{stroke-dashoffset: 1584}63.26530612244898%{ stroke-dashoffset: 0;}100%{ stroke-dashoffset: 0;}}@keyframes DCanqAFj_draw_10{24.489795918367346%{stroke-dashoffset: 351}65.3061224489796%{ stroke-dashoffset: 0;}100%{ stroke-dashoffset: 0;}}</style></svg>