<svg id="Layer_1" data-name="Layer 1" xmlns="http://www.w3.org/2000/svg" viewBox="0 0 1080 1080"><defs><style>.cls-1{fill:#323232;}.cls-2{fill:#009069;}.cls-3{fill:#fff;}</style></defs><path class="cls-1" d="M713.4,548.26a2.64,2.64,0,0,1-2.36-2.83c0-1.27,1.29-2.83,2.36-2.72a2,2,0,0,1,1.89,2.1C715.29,547.15,714.62,548.26,713.4,548.26Z"/><path class="cls-1" d="M582,575.57a24.62,24.62,0,0,1,4.49,1.26,22.6,22.6,0,0,0,9,2.55c1.51.07,3,.51,4.5.63a20.14,20.14,0,0,0,4.39,0c1.68-.24,2.67-2.35,1.64-3.46a5.24,5.24,0,0,0-2.7-1.18c-1.69-.36-3.64-.07-5.08-.82a27.06,27.06,0,0,0-13.5-3,22.19,22.19,0,0,0-4.08.07,2.76,2.76,0,0,0-1.79,1.54c-.16.44.57,1.38,1.12,1.81A5.84,5.84,0,0,0,582,575.57Z"/><path class="cls-1" d="M682.37,496.24c-.67,0-1.37.36-2.06.38a5.3,5.3,0,0,0-4,1.55,2.68,2.68,0,0,1-1.25.73c-1.41.35-2.85.56-4.26.92-1.08.28-2.35.49-2.34,2s1.13,2,2.46,2,2.51,0,3.77,0v-.11a20.6,20.6,0,0,0,3.93-.06,7.69,7.69,0,0,0,3.13-1.46,36.17,36.17,0,0,0,3.12-3.19c.63-.65,1.43-1.45.37-2.14A6,6,0,0,0,682.37,496.24Z"/><path class="cls-1" d="M615.18,588.91a37.19,37.19,0,0,0,4.76,1c.45.06,1-.58,1.74-1.06-.7-.9-1-1.68-1.6-2a31.14,31.14,0,0,0-3.92-1.45c-1.27-.44-1.86.42-2.18,1.36A1.57,1.57,0,0,0,615.18,588.91Z"/><path class="cls-1" d="M578.3,603.8a6.37,6.37,0,0,0,2-1.37l-1.72-1.69-1.85,1.88C577.29,603.05,577.9,603.9,578.3,603.8Z"/><path class="cls-1" d="M565.11,604.59a11.14,11.14,0,0,0-2.36-1.26c-1.86,0-2.84,1-3,2.41s.64,1.78,1.75,1.82a12.65,12.65,0,0,0,2.82-.13A1.61,1.61,0,0,0,565.11,604.59Z"/><path class="cls-1" d="M713.4,542.71c-1.07-.11-2.38,1.45-2.36,2.72a2.64,2.64,0,0,0,2.36,2.83c1.22,0,1.89-1.11,1.89-3.45A2,2,0,0,0,713.4,542.71Z"/><path class="cls-1" d="M847.93,540.93a2.24,2.24,0,0,0-1.43-1.49,19.75,19.75,0,0,0-5.49-.59c-7,.65-13.75-.62-20.41-2.58a18.31,18.31,0,0,0-10.45.05c-2,.58-3.89,1.33-6,.15-.71-.39-1.8-.07-2.71-.14a30,30,0,0,1-3.66-.44c-1.39-.3-2.43-.14-3.2,1.21a4.39,4.39,0,0,1-4,2.47c-1.53,0-3.06,0-4.58.09-1.75,0-3.76-.44-5.19.25-4.09,2-7.73.11-11.42-.88A7.43,7.43,0,0,0,765,539c-3,1-5.84,1-8.34-1.42a7,7,0,0,0-3-1.76c-3.34-.81-3.49-.89-3.31-4.34.11-1.94-.61-2.72-2.57-2.72-1.65,0-3.29,0-4.93.1a3.37,3.37,0,0,1-3.23-1.83c-.27-.45-.89-1.06-1.27-1s-.92.72-1.13,1.22-.08,1.32-.29,1.93a5.37,5.37,0,0,1-1.07,2.1,26.87,26.87,0,0,1-3,2.43c-1.53,1.14-2.64.83-3.53-.91-.5-1-1-2-1.63-3-.84.77-1.35,1.62-2,1.81-1.75.49-1.93,1.76-2,3.17-.08,2.74,0,5.48-.23,8.21a9.06,9.06,0,0,1-1,3.4,2.31,2.31,0,0,1-1.83,1c-.51-.06-1.07-.92-1.36-1.54a5.76,5.76,0,0,1-.35-2.08c-.21-3.65-.35-7.31-.57-11-.11-1.78-1.31-2.51-3-1.95s-2.82.27-4-1.31a6.44,6.44,0,0,0-1.11-1c-.94-.77-1.84-1.61-2.84-2.3a2.72,2.72,0,0,0-1.85-.62,2.41,2.41,0,0,0-1.21,1.53,14,14,0,0,0-.14,2.44,3.12,3.12,0,0,1-3.63,2.68c-1.24-.3-2.55-.34-3.81-.57s-2.71-.27-3.7-1a76.84,76.84,0,0,1-6.31-5.1c-1.57-1.34-3-2.88-4.62-4.11a37.9,37.9,0,0,0-4.48-2.56c-2.79-1.54-5.91-2.47-8.4-4.58-.11-.09-.32-.05-.47-.11-1.36-.5-3.19-.63-4-1.6-2-2.54-5.1-3.28-7.62-4.84-2.82-1.73-6.86-1.14-9.15-4.3a1,1,0,0,0-.74-.3c-2.54-.17-4.28-1.94-6.31-3.13a5.69,5.69,0,0,0-1.19-.51,4.89,4.89,0,0,1-3.33-2.1,2.45,2.45,0,0,0-1.29-.93c-2.48-.75-5-1.36-7.12-3-.91-.69-2.36-.63-3.52-1-1.56-.54-3.38-.85-4.56-1.87a8.78,8.78,0,0,0-5-2.08,6.51,6.51,0,0,1-3.47-1.54,8.21,8.21,0,0,0-5.12-2.18,8.66,8.66,0,0,1-2.47-.73c-1.93-.88-3.42-2.72-5.82-2.65a2.22,2.22,0,0,1-1.26-.71c-3.08-2.73-6.11-5.53-9.22-8.22a19.44,19.44,0,0,0-3-1.8,9.66,9.66,0,0,1-2.1-1.23,54.09,54.09,0,0,1-4.35-4.86c-1.52-2-3.44-1.68-5.49-1.45-2.48.28-5,.54-7.46.58-1.6,0-2.56-1-2.79-2.67s-.56-3.44-.9-5.15a3.55,3.55,0,0,0-2.75-3.1c-3.22-.7-8.46,1.6-9.79,4.79a3.61,3.61,0,0,1-3.33,2.44,3.78,3.78,0,0,0-3.42,3.73,33.62,33.62,0,0,1-.22,3.77,9,9,0,0,1-1.21,3.81,16.43,16.43,0,0,0-3,5.3c-.5,1.64-2.2,3-2.53,4.58-.74,3.66-4.18,5.4-5.48,8.74-1,2.65-3.49,4.74-5.32,7.08a2.88,2.88,0,0,1-.3.39,55.87,55.87,0,0,1-5.86,5.17c-1.79,1.2-4.12,1.48-5.8,3.11a3.38,3.38,0,0,1-2.72.73,28.24,28.24,0,0,0-8.73-.88,10.94,10.94,0,0,1-3.3-.82c-1.29-.37-2.56-.83-3.87-1.11-2.95-.63-5.76-1.5-7.19-4.44a19.56,19.56,0,0,1-1.35-4.45,1.59,1.59,0,0,1,.9-1.28c1.61-.17,3.2-.23,4.66.94a6.13,6.13,0,0,0,3.44,1.53,59.78,59.78,0,0,0,8-.88c.41-.06.76-.6,1.13-.92-.38-.25-.73-.65-1.14-.73-2.57-.49-5.17-.84-7.73-1.39-1-.2-2.22-.56-2.66-1.27-1.48-2.38-2.32-4.89-1.36-7.89.81-2.54,1.47-5,3.7-6.73.33-.25.46-.76.78-1a7.28,7.28,0,0,1,2.3-1.64c2.28-.69,4.69-1,6.95-1.73a4.22,4.22,0,0,1,4.42.68,16.9,16.9,0,0,0,2.56,2,7.33,7.33,0,0,1,4,5.77,3.35,3.35,0,0,1-1,3.4,2.62,2.62,0,0,0-.94,1.45,6.6,6.6,0,0,1-2.45,4.82,1.38,1.38,0,0,0-.32,1.13c0,.21.61.42.94.42,1.86.05,4.82-2.71,5.12-4.55.15-.87.35-2.08,1-2.47a6.35,6.35,0,0,0,2.69-5c.21-1.71.31-3.84-.51-5.19a20.1,20.1,0,0,0-5.58-6.29c-2.12-1.44-4.65-2.34-6.6-4.15-.11-.1-.32-.07-.47-.13-1.73-.74-3.44-1.53-5.19-2.2a12.09,12.09,0,0,0-3.25-.85c-1.32-.11-2.57-.17-3.14-1.57a4,4,0,0,1,1.32-4.11,12.08,12.08,0,0,0,1.73-2.26c.71-1.05,1.33-2.16,2-3.22.3-.45.74-.8,1.06-1.24,1.05-1.43,2-3,3.14-4.29q2.43-2.79,5.12-5.33c3.57-3.38,7.22-6.69,10.87-10,.37-.33,1-.36,1.49-.56,1.43-.58,3.28-.8,4.17-1.84a6,6,0,0,1,4-2.1,9,9,0,0,0,3.94-1.62,7.92,7.92,0,0,1,5-2c2.41,0,4.67-.43,6.41-2.33a1.88,1.88,0,0,1,1.1-.68,73.73,73.73,0,0,1,8.28.22c1.27.14,2.4,1.38,3.69,1.64,2.77.56,5.63.66,8.4,1.23a32.61,32.61,0,0,1,5.14,1.86c1.54.59,3,1.56,4.59,1.75a8.34,8.34,0,0,1,4.71,1.95,7.12,7.12,0,0,0,3,1.33c2.54.57,5.39.25,7.21,2.74.14.2.46.28.71.39,1.51.61,3.36.86,4.44,1.9a9.77,9.77,0,0,0,7.45,2.65,4.81,4.81,0,0,1,3.68,1.82c.49.53,1.22,1.18,1.84,1.17a5.55,5.55,0,0,1,4.58,2.45,4.05,4.05,0,0,0,3.56,1.62,7.3,7.3,0,0,1,3.7.41,53.37,53.37,0,0,1,7.53,5,31.44,31.44,0,0,1,4,4.54c1.7,2,3.41,4.05,5.05,6.13a3,3,0,0,1,.3,1.42,3.47,3.47,0,0,0,1.78,2.91,4.14,4.14,0,0,1,2.27,3.86,5.8,5.8,0,0,0,1.26,3.71c3.51,3.43,3,7.44,2.24,11.6-.09.53.36,1.16.55,1.74a18.59,18.59,0,0,0,1.95-.81c.15-.08.15-.5.17-.77.22-3.21.54-6.42.57-9.64,0-1-.81-1.93-1.29-2.88-.72-1.43-1.47-2.84-2.21-4.25a7.07,7.07,0,0,0-1.23-2.2,4.9,4.9,0,0,1-1.92-4.27,10.41,10.41,0,0,0-1.65-6.37,20,20,0,0,1-2.79-4.56c-1-2.87-.4-5.26,2.95-6.36a7.23,7.23,0,0,0,1.94-.78,12.93,12.93,0,0,1,6.51-2.36,7.21,7.21,0,0,0,2.9-.89c2.13-1.2,4.16-2.37,6.78-2.49a7.31,7.31,0,0,0,5-2.09,6.09,6.09,0,0,1,3.71-1.36c3.27-.23,6.56-.18,9.85-.19a9.76,9.76,0,0,0,5.75-1.56,3.87,3.87,0,0,1,1.69-.58c3.3-.35,6.6-.79,9.91-.92,7.64-.31,15.29-.47,22.93-.68,1.59,0,3.18,0,4.76-.13a4.45,4.45,0,0,0,2.24-.38c2.26-1.7,5.1-1,7.52-1.95a12.61,12.61,0,0,1,3.82-.78c4.34-.35,8.7-.52,13-.93a26,26,0,0,0,6.89-1.29,17.73,17.73,0,0,1,6.42-1.55c2.68,0,5.37.08,8-.12,1.65-.12,3.6-.26,4.81-1.18,2.4-1.83,5-1.94,7.73-2.06a19.47,19.47,0,0,0,4.46-.82,2.67,2.67,0,0,0,1.55-3.5c-.53-1.33-1.32-1.52-3.1-.78a3,3,0,0,1-.93.27c-2.82.26-5.63.61-8.46.71a7.93,7.93,0,0,0-4.81,1.74,3.92,3.92,0,0,1-1.74.81c-2,.27-4.09.45-6.15.61-3.85.3-7.73.42-11.57.86a78.43,78.43,0,0,0-10.46,1.74,32.51,32.51,0,0,1-7.52,1.27c-4.17.07-8.42-.13-12.1,2.5a4.36,4.36,0,0,1-2.16.67c-4.19.26-8.38.54-12.57.63-4.87.1-9.75,0-14.62,0s-9.7.2-14.47,2.1c-3.11,1.24-6.85,1-10.32,1.21-2.66.17-5.18.44-7.19,2.45a2.43,2.43,0,0,1-1.28.66,61.36,61.36,0,0,1-6.46.72,4.64,4.64,0,0,0-3.9,1.63,5,5,0,0,1-3.39,1.72c-2.64.46-5.39.56-7.76,2.24a7.47,7.47,0,0,1-3.78,1.38c-4.26.15-8.54.12-12.8,0a5.31,5.31,0,0,1-3.27-1.23,7.19,7.19,0,0,0-5.39-1.89,6.66,6.66,0,0,1-5.33-2.37,5,5,0,0,0-2.62-1.37,8.92,8.92,0,0,1-5-2.3A3.24,3.24,0,0,0,599,428c-1.48-.35-3-.53-4.47-.86-.5-.11-1.17-.33-1.37-.71-1.08-2-2.82-2.4-4.93-2.57a7.76,7.76,0,0,1-4.32-1.56,8.92,8.92,0,0,0-5.78-2.23,5.69,5.69,0,0,1-3-1.07c-1.3-1-2.49-2.08-4.24-2.22a17.34,17.34,0,0,1-3.38-.5,21.91,21.91,0,0,1-3.29-1.27c-1.25-.56-2.45-1.66-3.71-1.71-4.81-.21-9.63-.11-14.45-.07a5.88,5.88,0,0,0-2,.56c-2.4,1-4.56,2.53-7.32,2.7a6.1,6.1,0,0,0-3.69,1.42,8.33,8.33,0,0,1-5.53,2.45,6.29,6.29,0,0,0-2.56,1.22c-.84.53-1.51,1.35-2.38,1.83-1.39.78-3,1.13-3.75,2.87-.2.46-1.05.67-1.62.95a9.74,9.74,0,0,0-2.72,1.35c-2,2.1-4.53,3.56-6.44,5.9-3.45,4.21-7.55,7.9-11.4,11.79-1.12,1.13-2.26,2.18-2.34,4,0,.55-.64,1.1-1,1.62q-1.45,2.06-2.94,4.08c-.39.52-.89,1-1.23,1.52a9.83,9.83,0,0,0-1.53,2.89c-.45,2.16-1.66,3.5-3.84,3.41-3.53-.16-7.06-.7-10.59-.66-7.53.09-15.07.38-22.59.74-1.82.08-3.59.91-5.42,1.14-2.87.35-5.77.49-8.66.68a2.52,2.52,0,0,1-1.59-.22c-2.46-1.93-5.36-1.63-8.19-1.69a13,13,0,0,1-7.66-2.31,8.57,8.57,0,0,0-4.1-1.35c-3.8-.35-7.61-.44-10.86-2.87a4.59,4.59,0,0,0-1.4-.42c-1.63-.53-3.71-.62-4.8-1.7-1.93-1.91-4-2.24-6.49-2.39a10.66,10.66,0,0,1-5.12-1.3,14.17,14.17,0,0,0-7.47-2.45,5.33,5.33,0,0,1-3-1c-2.51-2.13-5.53-2.38-8.55-2.67-6.64-.63-13.43.84-19.93-1.73-2.61-1-5.43-1.53-8.11-2.4-.77-.25-1.34-1.18-2.11-1.37-2.74-.67-5.54-1.11-8.29-1.73a18,18,0,0,1-3.16-1.11c-1.18-.53-2.26-1.61-3.45-1.72-4.78-.45-9.58-.63-14.38-.88-1.64-.09-3.28-.13-4.92-.13a4.08,4.08,0,0,1-3.09-1.55,5.38,5.38,0,0,0-2.75-1.46c-1.44-.27-3,0-4.42-.22a7.81,7.81,0,0,1-3.55-1c-3-2.25-6.4-2.81-10-2.69-2,.07-4-.15-5.91.05-1.24.12-2.81.49-2.91,2.08,0,.55,1.05,1.52,1.78,1.71,2.31.61,4.68,1,7,1.37,2,.35,4,.58,5.93,1,2.49.49,4.94,1.31,7.44,1.59a7.49,7.49,0,0,1,4.65,2,6,6,0,0,0,3,1.28c2.09.35,4.22.49,6.33.64,1.87.12,3.64.66,5.63.23,1.81-.39,4.06-.94,5.67.6,2,1.95,4.43,2.27,7.05,2.51a11.38,11.38,0,0,1,5.52,1.65,10.58,10.58,0,0,0,5.8,1.87,19,19,0,0,1,8.2,2.48c2.39,1.35,5.75,1.19,8.7,1.32,3.43.14,6.88-.25,10.31-.17a6.72,6.72,0,0,1,4,1.13,10.17,10.17,0,0,0,7.37,2.51,8.68,8.68,0,0,1,5.14,1.81,9.08,9.08,0,0,0,3.25,1.29c1.34.25,2.75,0,4.09.23s3.13.28,4.2,1.09a14.5,14.5,0,0,0,8.7,2.76,3.42,3.42,0,0,1,2.22.84c2,2.23,4.62,2.65,7.37,2.93a4.85,4.85,0,0,1,2.44.8c2.13,1.68,4.59,2.07,7.17,2.44a31.45,31.45,0,0,1,5.83,1.89c1.32.47,2.58,1.48,3.9,1.51,6.34.18,12.69.17,19,.1,2.1,0,4.19-.59,6.3-.65a6.78,6.78,0,0,0,4.4-1.43A3.91,3.91,0,0,1,461,468c3.88-.07,7.77,0,11.66,0a4,4,0,0,1,1.27.24c2.66,1,5.36,1.85,7.93,3a3.64,3.64,0,0,1,1.75,2.26c.42,1.75-.36,3.22-1.66,4.51a5.08,5.08,0,0,0-1.39,2.49,12.16,12.16,0,0,1-2.15,5.54,5.79,5.79,0,0,0-.71,3.22c0,1.46.3,2.93.37,4.4.09,1.86,0,3.74,1.42,5.23a1.83,1.83,0,0,1,.23.78,5.11,5.11,0,0,0,2.45,3.67c.69.37,1.14,1.16,1.75,1.7,1,.88,2,1.75,3,2.56a18.2,18.2,0,0,0,2.19,1.36,8.1,8.1,0,0,0,2.27,1.11,7.76,7.76,0,0,1,6.27,5.05,29.21,29.21,0,0,0,3.86,6.63c2,2.82,4.41,3.37,7.42,3.2a8,8,0,0,1,2.13,0c4.85,1.08,8-2.26,11.34-4.62,2.82-2,5.07-4.85,7.52-7.36a3.41,3.41,0,0,0,.78-1.55c.4-1.77.86-3.48,2.38-4.69a3.85,3.85,0,0,0,1.44-3.63,6.08,6.08,0,0,1,2.18-5.7,4.44,4.44,0,0,0,.94-1.66c.94-2.11,1.25-4.49,3-6.22a4.71,4.71,0,0,0,.86-2.4c.36-1.94.72-3.85,2.31-5.26a3.14,3.14,0,0,0,.79-1.22c.94-2.35,4.86-4.92,7.5-4.93,2.07,0,4.14-.13,6.22-.14,2.93,0,5.94-.55,8.73.82a17.34,17.34,0,0,0,7.7,1.89,5.81,5.81,0,0,1,3.34,1.45,12.17,12.17,0,0,0,5.82,2.35,8.13,8.13,0,0,1,3.39,1.39,7.42,7.42,0,0,0,4.67,1.69,9,9,0,0,1,5.8,2.3,10.92,10.92,0,0,0,3.52,1.52c1,.32,2.07.25,3,.61,2.63,1,5.22,2.12,7.79,3.26,1,.44,1.84,1.14,2.79,1.64a15.76,15.76,0,0,0,3.3,1.5c1.94.5,4,.56,5.59,2a6.63,6.63,0,0,0,4.73,1.89,5.43,5.43,0,0,1,4.14,1.93,6.44,6.44,0,0,0,2.38,1.32c1.51.56,3.05.84,4.11,2.37.56.8,1.86,1.1,2.85,1.56a14.1,14.1,0,0,1,3,1.26,11.24,11.24,0,0,0,6.74,2.59,4.28,4.28,0,0,1,3.81,2.11,2.08,2.08,0,0,0,1.47.86,7.41,7.41,0,0,1,4.6,2.27,18.16,18.16,0,0,0,2.57,1.7c1,.62,2,1.18,3,1.81,2.59,1.66,5.16,3.34,7.74,5a.68.68,0,0,0,.32.07,8.84,8.84,0,0,1,5.89,3.21,2.41,2.41,0,0,0,.89.7c2.46,1,3.84,3.63,6.59,4.2.53.1.93.88,1.38,1.35s.67.67,1,1c2.81,2.87,5.71,5.66,8.38,8.66.8.9.9,2.39,1.38,3.58a10.67,10.67,0,0,1,.58,6.27c-.6,3-1.09,6-1.66,8.94a2.93,2.93,0,0,1-.56,1.49c-2.59,2.71-3.18,6.83-6.45,9.05a8.08,8.08,0,0,0-1.45,1.47c-.65.78-1.24,1.61-1.88,2.41a7.54,7.54,0,0,1-1.15,1.3c-3.21,2.53-8.62,1.27-11.29-.78a10.75,10.75,0,0,0-5.61-2.33,3.75,3.75,0,0,1-2-.84c-1.45-1.34-2.72-2.88-4.15-4.26a38.93,38.93,0,0,0-5.36-4.78c-2.65-1.73-5.79-2.74-8.35-4.58s-4.91-3.51-7.36-5.28a8.44,8.44,0,0,0-4.86-2,4.22,4.22,0,0,1-3.42-1.59,4.67,4.67,0,0,0-3.35-1.76,4.65,4.65,0,0,1-4.1-2.52,4.16,4.16,0,0,0-1.3-1.38c-1.77-1.33-3.72-2.47-5.36-3.94-2.32-2.08-4.46-4.37-6.61-6.63a2.8,2.8,0,0,1-.94-1.81c.32-2.95-1.25-4.8-3.38-6.4a2.84,2.84,0,0,1-.79-.83c-.87-1.52-2.27-1.75-3.87-1.92a25.15,25.15,0,0,1-4.15-1.15c-.4-.11-.88-.35-1.2-.21a40,40,0,0,0-4,1.91,1.87,1.87,0,0,0-.84,1.07,4.87,4.87,0,0,0,3.76,5.47c3.43.51,6.92,4.33,7.22,7.81a3.81,3.81,0,0,0,.69,1.93,28.66,28.66,0,0,0,3,3.19c.86.8,1.88,1.42,2.81,2.16s1.52,1.33,2.33,1.91a7.58,7.58,0,0,0,1.84.93,18.14,18.14,0,0,1,3.69,1.21,74.8,74.8,0,0,1,6.55,4.8,7.12,7.12,0,0,0,4.58,1.82c1.66,0,3.58-.08,4.92.69,3.51,2,7.37,3.37,10.58,5.93,1.22,1,2.78,1.48,4,2.42,1.94,1.48,3.7,3.2,5.62,4.71s3.63,2.67,5.49,3.94c.89.61,2.06.89,2.8,1.62,2.5,2.46,4.85,5.07,7.28,7.59s3.41,8.08,1.75,11a28.78,28.78,0,0,1-3.93,4.73c-.73.79-2,1.24-2.41,2.13-1.49,3-4,5-6.24,7.32a9.78,9.78,0,0,1-2.29,1.51c-1.68,1-3.41,1.82-5.09,2.77a4.31,4.31,0,0,1-4.31-.36,9.12,9.12,0,0,0-3.31-1.9,10.21,10.21,0,0,1-5.71-3.15c-.31-.32-.89-.37-1.32-.6-1.13-.61-2.3-1.19-3.38-1.88-2.54-1.62-5-3.3-7.56-4.95a2.6,2.6,0,0,0-.64-.14,44.69,44.69,0,0,1-5.14-1.52,25.41,25.41,0,0,1-3.54-2.29c-.9-.57-1.82-1.14-2.76-1.65s-2.11-1.06-3.16-1.61a8.73,8.73,0,0,1-2.76-1.57,5.91,5.91,0,0,0-5-2.29c-5,.06-10,.17-15-.06a29.54,29.54,0,0,1-6.93-1.51c-1.12-.32-2-1.36-3.14-1.66a3.1,3.1,0,0,0-2.42.67c-.85.72-.31,1.63.43,2.23,2.69,2.2,5.4,4.36,8.12,6.52a1.27,1.27,0,0,0,.61.21c2.21.31,4.41.73,6.62.85,2.79.16,5.59,0,8.38.11a4.77,4.77,0,0,1,2.32.57c3.43,2.29,7.26,3,11.27,3.4,1,.09,2,1,3,1.47a23,23,0,0,0,3.33,1.58c1.69.53,3.54.6,4.6,2.38a2,2,0,0,0,1.38.75c3.56.51,5.94,3.09,8.7,5,.67.46.92,1.62,1.22,2.5.22.65.13,1.41.33,2.08a6.27,6.27,0,0,1-1.35,5.95c-1.31,1.6-2.87,3-4.31,4.5a7.14,7.14,0,0,1-5.55,2.3c-2.12,0-4.25.33-6.37.43a35.09,35.09,0,0,1-4.7-.07c-1.83-.17-3.7-.95-5.45-.71a8.13,8.13,0,0,1-7.17-2.12c-2.27-2.14-5.15-2-8-1.89-.43,0-1,.79-1.19,1.33-.1.25.42.87.79,1.16,2.07,1.6,4.21,3.1,6.25,4.73,4.3,3.44,4.21,8.36,3.15,12.82a15.89,15.89,0,0,1-7.06,9.35c-2.39,1.56-5.1,2.08-7.84,2.59-3.79.7-7.48.86-11.08-.82-2-.94-4.09-1.78-6.13-2.68a6.16,6.16,0,0,1-3.26-5.91,52.44,52.44,0,0,0,.26-6.15c.05-1.61.06-3.23.12-4.85.08-2.11.33-4.24.24-6.34a25.28,25.28,0,0,0-.88-4.32c-.68-3.06,1.22-4.16,3.75-4,3.6.2,7.2.38,10.8.66a8.13,8.13,0,0,1,2.19.85,26.72,26.72,0,0,0,4,1.6c.51.12,1.24-.73,1.88-1.13a6.48,6.48,0,0,0-1.53-1.32,3.77,3.77,0,0,0-2.25-.29c-2.09.59-2.61-.75-3.31-2.21a3.1,3.1,0,0,0-1.78-1.6,43.14,43.14,0,0,1-8.73-2.94c-3.51-1.65-7.46-1.29-11.17.14-.6.23-1.37.63-1.85.43a17.75,17.75,0,0,1-4.88-2.51,73.24,73.24,0,0,1-6.44-6.62,4.58,4.58,0,0,1-1-2.46,6.4,6.4,0,0,0-2-4.32,5.94,5.94,0,0,1-1.75-2.12,8.43,8.43,0,0,0-5-5.14,27.18,27.18,0,0,1-3.67-2.31,9.45,9.45,0,0,0-1.35-.88c-4.7-1.9-9.54-1.2-14.34-.58-2.35.31-4.66,1-7,1.45a4.45,4.45,0,0,1-4.61-1.39,48.33,48.33,0,0,0-4.32-4.5c-2.13-1.93-4.37-3.73-6.62-5.52a3.36,3.36,0,0,0-1.55-.46c-2.27-.38-4.41-.89-6.22-2.56a5.65,5.65,0,0,0-3.28-1.14,38.67,38.67,0,0,0-6.89,0A10.17,10.17,0,0,0,477,577a20.62,20.62,0,0,0-2.53,2,17,17,0,0,0-2.45,1.87c-2.38,2.64-4.52,5.52-7,8a52.17,52.17,0,0,0-6.92,9c-1.06,1.66-2.23,3.25-3.41,4.82a2.16,2.16,0,0,1-3,.51,9.21,9.21,0,0,1-2.64-2.16,79.52,79.52,0,0,0-8-8.55,11.92,11.92,0,0,0-7.72-3.2c-3.58-.28-7.13-.88-10.7-1.28a5.28,5.28,0,0,0-2.24.21c-1.32.46-2.57,1.12-3.87,1.67-.59.26-1.45.26-1.78.69-1.8,2.37-4.73,2.8-7.07,4.23-1.83,1.13-2.7.5-2.69-1.71,0-1.36.09-2.73.1-4.1a6.93,6.93,0,0,0-4.32-6c-1.72-.61-3.69-1-5-2.17a7.28,7.28,0,0,0-5.53-1.84,41.13,41.13,0,0,1-4.44.1c-3.25-.17-6.53-.26-9.74-.75-1.72-.26-3.27-1.6-5-1.92a62.07,62.07,0,0,0-9.42-1c-3.31-.09-6.6-.36-9.57-1.76a27.32,27.32,0,0,0-11.62-2.2c-2.64,0-5.3.47-7.95.52q-7.81.13-15.64,0c-2.71,0-5.42-.59-8.12-.5a76.38,76.38,0,0,1-8.56,0c-2.56-.21-5.14,0-7.71-.17a17.57,17.57,0,0,1-3.16-.65c-1.14-.27-2.29-.9-3.4-.81-1.77.14-3.48.91-5.25,1.1a13,13,0,0,1-5.09-.2c-2.78-.9-5.31-2.63-8.44-2a17.31,17.31,0,0,1-8.21-.24c-3.42-1-7.07-1.14-10.62-1.63a3.59,3.59,0,0,0-1.46.1c-1.63.43-3.23.93-4.85,1.39s-1.89,1.42-1.08,2.73c.45.75,1,1.45,1.39,2.21a3.92,3.92,0,0,0,3.78,2.06c5.86,0,11.73-.05,17.58.22a38.3,38.3,0,0,1,9.6,1.5,24.58,24.58,0,0,0,7.13,1.35c2.93,0,5.84.65,8.77.69,10.51.13,21,.11,31.54.2,1.12,0,2.24.45,3.37.48a28.11,28.11,0,0,0,4.3-.23c2.38-.31,4.75-.78,7.06.32a18.39,18.39,0,0,0,3.7,1.58,85.68,85.68,0,0,0,9,1.48,48.43,48.43,0,0,0,6.37-.08,35.2,35.2,0,0,1,4.21-.2c2.7.24,5.37.67,8.05,1.09a14.05,14.05,0,0,1,3.13.84,18.28,18.28,0,0,0,7.73,1.79c1.91-.06,3.83,0,5.75,0a15.09,15.09,0,0,1,8.37,2.38c2.37,1.44,4.81,3,4.12,6.31-.56,2.67.36,5,1.32,7.23,1.64,3.79.48,7-1.83,9.82a9.35,9.35,0,0,0-2,5.69,17.69,17.69,0,0,1-1.78,7.71,2.52,2.52,0,0,0,.48,3.12c1.55,1.87,3,3.82,4.56,5.67a19.82,19.82,0,0,0,2.65,2.53c1,.83,2.21,1.54,3.33,2.29.45.3.9.6,1.37.87,1.45.82,2.88,1.68,4.37,2.43,1.14.57,2.36,1.4,3.54,1.39,5.51,0,11-.36,16.55-.49A6.49,6.49,0,0,1,432,644c2.31,1.61,4.32,3.65,6.56,5.36a15.09,15.09,0,0,0,3.41,1.7,32,32,0,0,1,4.21,1.57c2.78,1.64,5.42,3.51,8.11,5.27a.71.71,0,0,0,.32.1,63.68,63.68,0,0,0,7.76.68,8.27,8.27,0,0,0,4.54-1.48,9.82,9.82,0,0,1,6.65-2.16,6.65,6.65,0,0,1,2.77,1.09c1.39.86,2.68,1.86,4,2.84.56.42,1,1,1.61,1.36a8.55,8.55,0,0,0,2.86,1.58,14,14,0,0,1,6,1.9,6.29,6.29,0,0,0,2.53,1.11c3,.4,5.95.6,8.93.92,1.45.16,2.89.43,4.33.63,1.65.22,3.56,1.07,4.91.52,2.76-1.12,5.53-1,8.34-1.18a5.74,5.74,0,0,1,4.85,1.84,3.94,3.94,0,0,0,2.2,1.21c3.05.29,6.06.53,8.73,2.32a3.24,3.24,0,0,0,2.06.29c4.25-.59,8.5-1.2,12.74-1.91a12.91,12.91,0,0,0,3.69-1.17c1.67-.86,3.2-2,4.8-2.95s2.87-2.22,4.48-2.61c5.73-1.38,11.44-1.63,17.07.91a21.06,21.06,0,0,0,7.35,1.89c3,.14,6.06-.26,8.58-2.46.78-.69,2.08-.8,3.15-1.16a9.81,9.81,0,0,0,1.54-.47,27.63,27.63,0,0,0,8.52-7.1,4,4,0,0,0,.6-1.64,41.63,41.63,0,0,1,1-4.77c.66-1.86,1.69-3.59,2.47-5.41s2.2-2.49,4.18-2.43a50.24,50.24,0,0,0,7-.22,10.5,10.5,0,0,0,3.18-1.36,13.43,13.43,0,0,1,2.64-1.49,7.75,7.75,0,0,0,4.33-2.44,4.69,4.69,0,0,1,3.77-1.63,3,3,0,0,0,1.84-.47c2.86-2.47,5.65-5,8.45-7.58,1.94-1.77,3.83-3.6,5.78-5.35a3.33,3.33,0,0,1,1.35-.51c2.26-.61,4.82-.45,6.4-2.68.17-.23.56-.32.86-.44a20.76,20.76,0,0,0,3.85-1.68,23,23,0,0,0,3.49-3.35c2.35-2.54,4.69-5.1,6.94-7.73a9.18,9.18,0,0,0,1-2.34,8.5,8.5,0,0,1,1.25-2.72,11,11,0,0,0,2.63-5.5,4.36,4.36,0,0,1,1.63-2.25,8.55,8.55,0,0,1,2.57-1,20.06,20.06,0,0,0,9.24-5.86c1.38-1.59,2.85-3.1,4.22-4.69,1.15-1.36,2.24-2.78,3.31-4.21a17.92,17.92,0,0,1,1.42-2.13c2.16-2.1,4.43-4.1,6.63-6.16a5.45,5.45,0,0,1,3.68-1.91,2.74,2.74,0,0,0,2-1c1.4-2.16,3.55-2.48,5.79-2.83a3.45,3.45,0,0,0,2.09-1.08,5.45,5.45,0,0,1,4.16-2.15,10.74,10.74,0,0,0,4.13-1.34c2.17-1.33,4.3-2.52,6.93-2.56a3.27,3.27,0,0,0,1.66-.59,15.35,15.35,0,0,1,8.09-2.71,12.59,12.59,0,0,0,5.55-1.67,11.53,11.53,0,0,1,6.09-1.9c10.79,0,21.58,0,32.36,0a18.14,18.14,0,0,0,8.19-2.07,15.48,15.48,0,0,1,7.51-1.76c3.26.1,6.52.31,9.77.52,2.88.2,5.75.45,8.62.7a3.8,3.8,0,0,1,1.74.38c1.33.85,2.53.47,3.91.12a6,6,0,0,1,3.54.24,4.6,4.6,0,0,0,4.21-.08,25.61,25.61,0,0,1,3.52-1.21,4.5,4.5,0,0,0,1.78-.68A2.86,2.86,0,0,0,847.93,540.93ZM545.35,622.08c4.18-.41,7.55,1.49,10.32,4.33a5.21,5.21,0,0,1,1.09,3.92c-.57,3.76-1.37,7.44-4.15,10.46-1.92,2.1-3.91,3.43-6.76,3.07a3.9,3.9,0,0,1-4.52-1.79,7.8,7.8,0,0,0-3.26-2c-2.83-1.23-3.59-3.42-2-6.07a16.44,16.44,0,0,0,1.65-3.37,17.3,17.3,0,0,1,5.06-7.3A4.72,4.72,0,0,1,545.35,622.08Zm-14.86-1.66a7.6,7.6,0,0,0-2.23.34,27,27,0,0,1-4.29.81,5.07,5.07,0,0,1-2.43-1,28.07,28.07,0,0,0-3.44-2.24c-1.71-.69-3.22-1.51-3.78-3.32a3.34,3.34,0,0,1,.13-2.46,49.29,49.29,0,0,1,4-5.29c1.25-1.47,2.74-2.68,4.32-2.67a38,38,0,0,1,4.59.53,5.51,5.51,0,0,1,2.32,1.37c1.42,1.34,2.95,2,4.89,1.35a2.34,2.34,0,0,1,3.08,1.07,8,8,0,0,0,1.75,1.67c2.22,1.83,2.47,4.47.39,6.38C537.22,619.32,534.22,620.84,530.49,620.42Zm-17.2-21.2c1.17-1,2.23-2.06,3.38-3.06a6.23,6.23,0,0,1,1.6-1A22.75,22.75,0,0,1,531.64,594c4.22.86,8.4,2.66,10.17,7.3.92,2.4-.65,4.64-3.51,4.65-.21-.06-.73-.19-1.24-.36-1.28-.43-2.59-.8-3.83-1.32a14.23,14.23,0,0,1-2.8-1.5c-2.95-2.07-6.21-3.29-9.77-2.7-1.24.21-2.32,1.66-3.38,2.66-.74.7-1.22,1.69-2,2.36-1.16,1-2.39.65-3.1-.71A3.86,3.86,0,0,1,513.29,599.22Zm-77.07,29.69c-1.46,2-2.86,3.79-5.4,4.48a14,14,0,0,0-3.31,1.77c-2.07,1.22-3,1-4.39-.88-1-1.37-2.25-1.43-3.4-.16-2.62,2.88-4.81,3.32-8.37,1.75a63.88,63.88,0,0,0-6.92-2.87c-4.17-1.29-7.63-7.58-6.95-11.39a11.78,11.78,0,0,1,1.12-2.5,41,41,0,0,0,1.9-4.63,10.2,10.2,0,0,1,3.8-5.94A3.44,3.44,0,0,1,407,608c.5.17.86,1.51.86,2.33a12,12,0,0,0,6.32,11,6.93,6.93,0,0,0,3.39,1c5.08-.08,10.16-.35,15.24-.57a5.26,5.26,0,0,0,4.52-2.55,36.33,36.33,0,0,0,2.49-5.09c.59-1.47-.12-2.54-1.51-3.17-1.74-.8-3.45-1.67-5.24-2.32a7.92,7.92,0,0,0-3-.28c-.37,0-.88.64-1,1.07s.44.75.75,1.08a2.17,2.17,0,0,0,.74.33,4.35,4.35,0,0,1,2.37,6.23,3.36,3.36,0,0,1-2.52,1.34c-3.71.1-7.43-.08-11.15-.09a4.2,4.2,0,0,1-3.93-2.2,8.78,8.78,0,0,0-1.4-1.6c-2.26-2.27-1.89-5,.86-6.49,1.88-1,3.62-2,6-1,1.29.56,3,.3,4.48.29a1.55,1.55,0,0,0,1.11-.73c.12-.23-.15-.87-.43-1.08-.74-.56-1.61-.94-2.38-1.46a9.35,9.35,0,0,1-1.77-1.42,4.58,4.58,0,0,0-6-1.11c-.49.25-1,.53-1.46.75-1.37.64-3.16.31-3.68-.66a2.91,2.91,0,0,1,1.26-4.18c4.61-2.17,9-5.18,14-3.85,1.87,0,3.19,0,4.5,0a7.26,7.26,0,0,1,5.92,2.59,37.71,37.71,0,0,0,5.2,4.74,7.78,7.78,0,0,1,3,5.93,6,6,0,0,0,.56,2.36,6,6,0,0,1,.41,5.94,36.81,36.81,0,0,1-3.52,6.71C440.08,624.34,438,626.49,436.22,628.91Zm46.33,7.29a39.83,39.83,0,0,1-4.7,5.24c-4.13,3.57-8.52,6.73-14.06,6.18-5.93,0-11.27-.82-16.13-3.73-3.11-1.86-5.72-4.29-6.39-7.9-.48-2.63-.11-5.42-.09-8.14a1.06,1.06,0,0,1,.43-.67c4.49-3.76,7-9,10.22-13.69a49.66,49.66,0,0,1,4.4-5c2.81-3.12,5.65-6.21,8.41-9.37.48-.54.58-1.41,1-2a69.39,69.39,0,0,1,4.83-6.54c2.29-2.55,4.83-4.89,7.35-7.22a4.69,4.69,0,0,1,2.58-1.26c4.26-.28,8.55-.42,12.63,1.19a13.6,13.6,0,0,1,3.27,1.82c2.84,2.19,5.66,4.42,8.35,6.79a5.5,5.5,0,0,1,1.31,2.73,2.33,2.33,0,0,1-1.08,3,3.14,3.14,0,0,1-3.65-1.14c-1.41-2.61-4-3.82-6.21-5.46a8.24,8.24,0,0,0-5.25-1.46c-2,0-4-.67-6-.49-2.29.21-4.82.52-6.7,1.67a29.93,29.93,0,0,0-10.19,10.92,12.3,12.3,0,0,0-1.24,7.8l0,.16c.52,2,5.31,6.06,7.38,6.13a5.19,5.19,0,0,1,3.58,1.27,5.23,5.23,0,0,0,2.8,1.25c2.94.31,5.89.45,8.84.5a3,3,0,0,0,1.76-1c2.69-2.62,5.34-5.28,8-8,1.14-1.16,2.23-2.38,3.37-3.55a2.2,2.2,0,0,1,.94-.64c.72-.19,1.48-.25,2.22-.37a6.68,6.68,0,0,1-.39,2.52c-1.7,2.66-3.47,5.28-5.4,7.76-2.1,2.71-4.44,5.24-6.64,7.89-.68.82-1.23,1.76-1.83,2.65-.15.23-.21.52-.37.73C487.49,629.89,485.07,633.09,482.55,636.2ZM498.19,601c-.2,2.58-.43,4.95-2.89,6.76-2.06,1.54-3.43,4-5.43,5.65a10.45,10.45,0,0,1-4.61,1.72c-2.14.4-4.35.4-6.52.64a2.86,2.86,0,0,1-3.08-1.59,30.59,30.59,0,0,0-3.74-4.89c-1.92-2-2.16-3.43-.74-5.82,1.32-2.22,2.71-4.35,5-5.7a1.31,1.31,0,0,0,.57-.57c1.55-3.82,5-3.44,8.14-3.81,1.61.15,3.18.35,4.76.41,2,.07,3.79.33,4.86,2.35a3.33,3.33,0,0,0,1.54,1.16A3.42,3.42,0,0,1,498.19,601Zm24.29,45.39c-2.26,2.59-4.56,5.16-7,7.62a7,7,0,0,1-2.43,1.19,35.61,35.61,0,0,0-4.08,1.53c-1.93,1-2.66,1.26-4.09-.46s-3.27-1.62-5.15-1.57c-.49,0-1,.12-1.47.15a3.49,3.49,0,0,1-4-3.06c-.55-2.37-.87-2.48-3.09-1.41a7.09,7.09,0,0,1-2.77.79c-2.33,0-3.11-1.38-2.09-3.5a3.17,3.17,0,0,1,.52-.82c2-2.1,2.2-4.71,2.37-7.45.21-3.35,1.89-6.24,3.88-8.86,1.68-2.21,3.67-4.18,5.43-6.34,2.13-2.63,4.15-5.35,6.23-8,1.75-2.24,2.47-2,4.1.19a37.76,37.76,0,0,0,5.61,5.84c.71.62,2,.62,3.12.75a5.89,5.89,0,0,1,3.9,1.76c1.56,1.64,3.62,1.33,5.69.92a16.51,16.51,0,0,1,5-.21c.71.08,1.31,1.11,2.13,1.86-.74,1-1.21,1.74-1.71,2.41-1.83,2.48-3.69,5-5.52,7.44a16.2,16.2,0,0,0-1.48,2.34c-.81,1.63-1.54,3.31-2.29,5A7.65,7.65,0,0,1,522.48,646.35ZM564.35,636c-1.49,2.47-1.12,5-1,7.61a8.13,8.13,0,0,1-1,3.7,3.2,3.2,0,0,0-.08,3.52c1,1.56.63,2.89-.65,4.1a18.12,18.12,0,0,1-2,1.95,37.55,37.55,0,0,1-3.39,1.93l-.24-.44c-2.14.06-4.12.4-5.3,2.56a2,2,0,0,1-1.43.85c-3.5.18-6.75.83-9.46,3.39-1.14,1.08-2.57.29-3.72-.58-2.93-2.25-5.88-4.46-8.79-6.74a15.63,15.63,0,0,1-2.32-2.28,3.09,3.09,0,0,1-.33-3.7c1.59-2.53,3.41-4.91,5.15-7.35a2.87,2.87,0,0,1,3.16-1.17,21.64,21.64,0,0,1,7.54,2.54,15.28,15.28,0,0,0,9,1.83,4.42,4.42,0,0,0,2.51-1.06c3.24-3,6.2-6.11,7.21-10.65.58-2.62,1.34-3.07,3.38-2.86S565.31,634.42,564.35,636Z"/><path class="cls-1" d="M174.66,445.64C213.47,279,362.81,154.85,541.25,154.85S869.05,279,907.88,445.64l51.21-60.51L1045,445.64C1004.16,204.27,794.24,20.38,541.25,20.38S78.34,204.27,37.56,445.64l87.76-60.51Z"/><path class="cls-2" d="M542.65,1046.34c253-.83,462.3-185.42,502.3-426.92l-85.67,60.79-51.4-60.34c-38.28,166.73-187.21,291.41-365.67,292S214,788.76,174.66,622.29L125.52,683l-88-60.22C79.15,864,289.67,1047.17,542.65,1046.34Z"/><path class="cls-1" d="M781.94,291.69a334.57,334.57,0,1,0,98,236.58A332.35,332.35,0,0,0,781.94,291.69Zm-236.58,516C391.3,807.66,266,682.33,266,528.27S391.3,248.88,545.36,248.88,824.75,374.22,824.75,528.27,699.42,807.66,545.36,807.66Z"/><path class="cls-3" d="M298.05,122.66l49.83,68.12-5.26,3.85L292.79,126.5Z"/><path class="cls-3" d="M329.1,102.36l43.53,72.33-5.58,3.36-43.53-72.33Z"/><path class="cls-3" d="M361.84,85l36.85,75.94-5.86,2.84L356,87.79Z"/><path class="cls-3" d="M447.54,111.68,443,142.44l-6.49,1.36,13-89,7.56-1.58,48.93,76-7,1.46-16.72-26.31ZM479,98.93c-14.35-22.62-21.54-33.44-24.35-38.64l-.12,0c-.7,6.67-2.94,22.42-6,45Z"/><path class="cls-3" d="M591,92.86c.83-16.5,1.74-32.27,2.53-40.68l-.36,0C589.2,63.31,570,104,557.94,130.08l-6.39-.33c-7-21-22.4-68.14-25.61-81.1h-.24c.12,9.66-.63,29.31-1.36,43.76l-1.81,35.89L516,128l4.26-84.3,9.75.49c10.11,29.49,22.77,68,25.42,77.71h.24c2.24-6,21.22-47.22,34.44-74.69l9.64.49L595.51,132l-6.5-.33Z"/><path class="cls-3" d="M642.49,58.23,622,140.12l-6.31-1.58,20.46-81.89Z"/><path class="cls-3" d="M709.4,149.06c-8.93,10.74-22,16.16-38.41,9.13-22.28-9.55-26.43-32.32-17.08-54.15,9-21,28.68-35.08,51.29-25.39,16.73,7.17,22.61,20.71,19.6,34.77l-6-2.57c.77-11.6-2.92-21-16.33-26.8-19.29-8.26-34.93,5.89-42.1,22.63s-6.65,37.56,13.19,46.06c12.64,5.41,21.87,1.63,29.83-6.24Z"/><path class="cls-3" d="M763.35,111.37,718,182.55l-5.49-3.5,45.36-71.18Z"/><path class="cls-3" d="M261.11,879l-21.84,26.77-4.5-3.67,46.74-57.31,20.55,16.76c11.3,9.22,12.33,20.15,5,29.16-5.94,7.28-14.16,8.49-21.68,4.68,4.76,6.2,5.55,13.25-2.39,23l-1.81,2.21c-3.27,4-8,9.15-8.74,12.23l-4.51-3.67c.94-3.33,4.93-7.71,8.93-12.63l1.21-1.47c7.68-9.41,8.1-15.62-2.87-24.56Zm3.33-4.09,13.84,11.28c10.07,8.22,17.81,8.26,24,.73,5.75-7,4.43-14.8-4.49-22.08l-15.06-12.29Z"/><path class="cls-3" d="M337,886.34l-39.89,62.29-4.8-3.08,39.88-62.29Z"/><path class="cls-3" d="M328.28,944.59c-2.38,9.78.9,17.9,11.79,23.3,12.11,6,19.76,2.26,23.33-4.93,3.71-7.48,2.7-13.76-10.09-24.59-12.27-10.46-16.07-18-11.33-27.56,4.33-8.71,14.71-13.7,28.9-6.65,14.58,7.23,16.31,19.18,13.17,27.65l-5.3-2.63c2-7.85-.09-15.27-10.5-20.43-9.56-4.75-17-2.88-20.64,4.5s-.67,12.29,10,21.38C374,948.52,373,957.36,369.07,965.31c-4.84,9.74-16.11,14.64-31.45,7C321.06,964.12,319.8,951.46,323,942Z"/><path class="cls-3" d="M417.05,930.05l-23.62-7.66,1.64-5,52.86,17.17-1.64,5-23.71-7.7-21.21,65.32-5.53-1.8Z"/><path class="cls-3" d="M508.22,981.06c-3.05,20-16.48,36.5-39,33.05-20.58-3.15-30.05-21.59-26.84-42.58,3.16-20.68,17.34-35.83,39.06-32.51C501.45,942.08,511.47,959.76,508.22,981.06Zm-59.78-8.92c-2.57,16.82,4.3,34.11,21.85,36.79,18.9,2.89,29.2-11.35,31.85-28.69,2.61-17-4.09-33.33-21.75-36C461.59,941.34,451,955.64,448.44,972.14Z"/><path class="cls-3" d="M532,984.08l.82,34.54-5.81.14-1.77-74,26.52-.63c14.57-.35,22.47,7.28,22.75,18.9.23,9.4-5.22,15.66-13.42,17.66,7.65,1.61,12.84,6.45,13.14,19l.07,2.86c.12,5.17-.13,12.15,1.31,15l-5.81.14c-1.45-3.13-1.28-9.06-1.43-15.39l0-1.91c-.3-12.14-4-17.13-18.16-16.79Zm-.13-5.29,17.85-.42c13-.32,18.9-5.32,18.67-15-.22-9.08-6.26-14.12-17.77-13.84l-19.44.46Z"/><path class="cls-3" d="M604.85,988l-4.38,26.89-5.7,1.1,12.61-77.77,6.64-1.29,41.85,67.24-6.12,1.18-14.3-23.27Zm27.73-10.75c-12.27-20-18.42-29.58-20.82-34.18l-.1,0c-.7,5.84-2.88,19.61-5.85,39.34Z"/><path class="cls-3" d="M676.44,998l-26.83-68.92,7.88-3.07c17.17,12.37,57.36,41,64.61,46.85l.1,0c-4.47-9.71-8.32-19.89-12.68-31.12l-12.15-31.21,5.41-2.11,26.83,68.93-7.29,2.83c-16.45-12-57.64-42.07-65.52-47.74l-.1,0c4,8.87,7.83,19,12.7,31.45l12.46,32Z"/><path class="cls-3" d="M733.16,897l-21.31,12.74-2.72-4.53,47.71-28.52,2.71,4.53L738.15,894l35.24,59-5,3Z"/><path class="cls-3" d="M819.66,874l-29.23,23.83,19.62,24.08,32-26.1,2.69,4.63L809,929.57l-46.72-57.34,35.14-28.63,3.33,4.09-30.71,25,17.09,21,29.24-23.83Z"/><polygon class="cls-3" points="223.78 193.8 235.06 171.55 245.83 194.04 270.45 197.89 252.41 215.08 256.33 239.68 234.43 227.84 212.24 239.2 216.72 214.67 199.08 197.09 223.78 193.8"/><polygon class="cls-3" points="180.06 795.84 191.34 773.6 202.11 796.09 226.73 799.93 208.69 817.12 212.61 841.73 190.71 829.89 168.52 841.24 173 816.72 155.36 799.14 180.06 795.84"/><polygon class="cls-3" points="878.11 795.84 889.38 773.6 900.15 796.09 924.77 799.93 906.73 817.12 910.66 841.73 888.75 829.89 866.56 841.24 871.05 816.72 853.41 799.14 878.11 795.84"/><polygon class="cls-3" points="833.77 193.8 845.05 171.55 855.82 194.04 880.44 197.89 862.4 215.08 866.32 239.68 844.42 227.84 822.23 239.2 826.71 214.67 809.07 197.09 833.77 193.8"/><path class="cls-1" d="M78.59,578.62V507.11a70.1,70.1,0,0,1-8.83.37V497a18.81,18.81,0,0,0,12.56-6.24H92.45v87.86Z"/><path class="cls-1" d="M117.1,558.51v1.56c0,4.91,1.67,8.18,6.13,8.18,5,0,6.41-4.06,6.41-15.67v-12c-2.2,3.4-5.21,5.24-11,5.24-11.28,0-15.92-8.46-15.92-21.4V512.55c0-14,6.86-22.43,20.37-22.43,13.8,0,20.21,8.34,20.21,23.17v36.14c0,15-1.34,30.26-20.15,30.26-16.24,0-19.62-10.67-19.62-20.56v-.62ZM116.41,511v13.79c0,5.42,1.43,9.16,6.5,9.16,5.29,0,6.72-4.17,6.72-12v-11c0-6.17-1.68-9.5-6.6-9.5S116.41,504.73,116.41,511Z"/><path class="cls-1" d="M942.55,558.51v1.56c0,4.91,1.67,8.18,6.14,8.18,5,0,6.41-4.06,6.41-15.67v-12c-2.21,3.4-5.22,5.24-11.06,5.24-11.28,0-15.91-8.46-15.91-21.4V512.55c0-14,6.85-22.43,20.37-22.43,13.79,0,20.2,8.34,20.2,23.17v36.14c0,15-1.34,30.26-20.15,30.26-16.24,0-19.62-10.67-19.62-20.56v-.62ZM941.87,511v13.79c0,5.42,1.43,9.16,6.5,9.16,5.29,0,6.71-4.17,6.71-12v-11c0-6.17-1.67-9.5-6.6-9.5S941.87,504.73,941.87,511Z"/><path class="cls-1" d="M1018.14,513.37v41.94c0,13.24-4,24.38-21,24.38-15.75,0-20-11-20-24.23V514.33c0-15.17,6.52-24.21,20.79-24.21C1011.88,490.12,1018.14,498.93,1018.14,513.37Zm-27.41-.7v44.4c0,6.53,2,10.07,6.9,10.07s6.75-3.67,6.75-10.46V512.33c0-6-1.89-9.66-6.76-9.66C993,502.67,990.73,505.87,990.73,512.67Z"/><rect class="cls-1" x="852.19" y="517.69" width="55.51" height="21.16" rx="10.58"/><rect class="cls-1" x="183.02" y="517.69" width="55.51" height="21.16" rx="10.58"/><rect class="cls-1" x="312.34" y="734.75" width="471.61" height="14.74"/><rect class="cls-1" x="353.28" y="773.6" width="389.74" height="14.74"/></svg>