<svg id="Layer_1" data-name="Layer 1" xmlns="http://www.w3.org/2000/svg" viewBox="0 0 1080 303.75"><defs><style>.cls-1{fill:#eaeaea;}</style></defs><path class="cls-1" d="M360.25,164.66v-4.34c12.71-1.4,13.95-2,13.95-15.19V83.62c0-13.33-1.24-14-13.95-15.34V63.94h41.53v4.34c-12.86,1.39-14.1,2-14.1,15.34v61.51c0,13.33,1.24,13.79,14.1,15.19v4.34Z"/><path class="cls-1" d="M417.42,164.66v-4.34c12.71-1.4,13.95-2,13.95-15.19V83.62c0-13.33-1.24-14-13.95-15.34V63.94H459v4.34c-12.86,1.39-14.1,2-14.1,15.34v61.51c0,13.33,1.24,13.79,14.1,15.19v4.34Z"/><path class="cls-1" d="M474.6,164.66v-4.34c12.7-1.4,13.94-2,13.94-15.19V83.62c0-13.33-1.24-14-13.94-15.34V63.94h41.52v4.34c-12.86,1.39-14.1,2-14.1,15.34v61.51c0,13.33,1.24,13.79,14.1,15.19v4.34Z"/><path class="cls-1" d="M618.23,164.66v-4.34c10.07-1.24,11.31-2.79,9.14-8.68-2-6-5.11-13.79-8.36-23.55H585.54c-2.48,7-4.81,13-7,19.37-3.41,10.07-1.24,11.31,11.47,12.86v4.34H554.24v-4.34c9.76-1.24,12.24-2.33,17.66-16.27L604,62.7l4.95-.93c9.77,26.5,20.46,55.78,30.22,82.59,5,13.48,6.35,14.72,17.36,16v4.34ZM602.74,82.07c-5,13.32-10.23,27.42-14.88,39.67h29Z"/><path class="cls-1" d="M749.63,164.66v-4.34c12.7-1.24,13.17-2.17,13-18.75l.16-63.22c-12.71,28.36-33.16,72.67-38.59,86.31h-4c-5.27-14.1-22.78-56.72-34.56-84.76-2.63,54.23-2.79,66.47-2.79,69.42.16,8.67,4,9.91,14.57,11v4.34H660.68v-4.34c9-.93,12.71-2.79,14-11.16.93-6.82,1.08-12.39,5.11-68.95.62-8.06-.93-10.69-14.56-11.93V63.94h27l34.24,78.56,36.73-78.56h27.11v4.34c-13.32,1.55-15,2.94-14.72,13.79l.62,59.5c.62,16.58,1.09,17.35,14.72,18.75v4.34Z"/><path class="cls-1" d="M804.78,164.66v-4.34c12.71-1.4,14-2,14-15.19V83.62c0-13.33-1.24-14-14-15.34V63.94h41.53v4.34c-12.86,1.39-14.1,2-14.1,15.34v61.51c0,13.33,1.24,13.79,14.1,15.19v4.34Z"/><path class="cls-1" d="M953.84,139.87a197.55,197.55,0,0,1-8.52,23.39c-4.5.93-16.58,3.72-28.36,3.72-37,0-55.94-24.64-55.94-51.75,0-31.61,24-53.46,58.73-53.46,13.33,0,24.17,2.79,29.29,3.56.62,7,1.7,16.27,2.94,24l-4.8,1.08c-3.1-10.38-6.82-16.73-14.72-20-4-1.86-10.38-3-16.27-3-25.57,0-39.05,18.91-39.05,44.47,0,29.91,15.49,49.12,40.6,49.12,15.8,0,23.55-7.28,31.45-22.77Z"/><path class="cls-1" d="M968.71,164.66v-4.34c12.71-1.4,13.95-2,13.95-15.19V83.62c0-13.33-1.24-14-13.95-15.34V63.94h41.53v4.34c-12.86,1.39-14.1,2-14.1,15.34v61.51c0,13.33,1.24,13.79,14.1,15.19v4.34Z"/><path class="cls-1" d="M586.9,216.07V240.3h-4.07V188.43h18.6c10.22,0,15.63,5.48,15.63,13.63,0,6.6-3.93,10.9-9.71,12.15,5.34,1.26,8.89,4.75,8.89,13.56v2c0,3.63-.29,8.52.67,10.52h-4.07c-1-2.23-.74-6.38-.74-10.82v-1.33c0-8.53-2.52-12.08-12.45-12.08Zm0-3.71h12.53c9.11,0,13.33-3.41,13.33-10.22,0-6.38-4.15-10-12.22-10H586.9Z"/><path class="cls-1" d="M633.73,188.43V240.3h-4V188.43Z"/><path class="cls-1" d="M648.63,226.37c1.55,6.89,6.15,11,14.67,11,9.48,0,13.11-4.74,13.11-10.37,0-5.85-2.59-9.48-14-12.3-11-2.74-15.71-6.3-15.71-13.78,0-6.82,5-13.19,16.08-13.19,11.41,0,16.23,7,16.89,13.26h-4.15c-1.18-5.56-4.81-9.56-13-9.56-7.49,0-11.56,3.49-11.56,9.27s3.41,7.92,13,10.29c14.6,3.63,16.75,9.49,16.75,15.71,0,7.63-5.56,14.23-17.56,14.23-13,0-17.71-7.56-18.67-14.52Z"/><path class="cls-1" d="M702.35,192.13H684.94v-3.7h39v3.7H706.42V240.3h-4.07Z"/><path class="cls-1" d="M773.78,214c0,14.16-7.56,27-23.56,27-14.6,0-23.12-11.78-23.12-26.68,0-14.67,8.22-26.67,23.64-26.67C765,187.69,773.78,198.88,773.78,214Zm-42.38.15c0,11.93,6.59,23.19,19,23.19,13.41,0,19-11,19-23.26,0-12.08-6.37-22.68-18.89-22.68C737.25,191.39,731.4,202.43,731.4,214.14Z"/><path class="cls-1" d="M789.27,216.07V240.3h-4.08V188.43h18.6c10.23,0,15.63,5.48,15.63,13.63,0,6.6-3.92,10.9-9.7,12.15,5.33,1.26,8.89,4.75,8.89,13.56v2c0,3.63-.3,8.52.67,10.52H815.2c-1-2.23-.74-6.38-.74-10.82v-1.33c0-8.53-2.52-12.08-12.45-12.08Zm0-3.71h12.52c9.11,0,13.34-3.41,13.34-10.22,0-6.38-4.15-10-12.23-10H789.27Z"/><path class="cls-1" d="M838,222.37l-6.59,17.93h-4.08l19-51.87h4.74L871,240.3h-4.38l-6.74-17.93Zm20.53-3.71c-5.78-15.41-8.75-22.82-9.78-26.3h-.08c-1.26,3.92-4.59,13.11-9.26,26.3Z"/><path class="cls-1" d="M880.19,240.3V188.43h5.92c8.08,12.45,27,41.42,30.31,47h.07c-.44-7.48-.37-15.11-.37-23.56V188.43h4.08V240.3h-5.49c-7.7-12-27-42.16-30.67-47.87H884c.38,6.82.3,14.38.3,23.79V240.3Z"/><path class="cls-1" d="M945.84,192.13H928.42v-3.7h39v3.7H949.91V240.3h-4.07Z"/><path class="cls-1" d="M1005.56,214.81H979.11v21.78h29l-.59,3.71H975.11V188.43h31.78v3.7H979.11v19h26.45Z"/><path class="cls-1" d="M191.53,155.54a.65.65,0,0,1-.58-.7c0-.31.32-.69.58-.67a.48.48,0,0,1,.46.52C192,155.26,191.83,155.54,191.53,155.54Z"/><path class="cls-1" d="M159.24,162.25a5.88,5.88,0,0,1,1.11.31,5.5,5.5,0,0,0,2.21.62c.37,0,.74.13,1.11.16a4.87,4.87,0,0,0,1.08,0,.55.55,0,0,0,.4-.85,1.33,1.33,0,0,0-.66-.29,4.48,4.48,0,0,1-1.25-.2,6.73,6.73,0,0,0-3.32-.74,5.55,5.55,0,0,0-1,0,.67.67,0,0,0-.44.38c0,.11.14.34.27.44A1.56,1.56,0,0,0,159.24,162.25Z"/><path class="cls-1" d="M183.91,142.75a4.59,4.59,0,0,0-.51.1,1.28,1.28,0,0,0-1,.38.75.75,0,0,1-.31.18c-.35.08-.7.14-1.05.23s-.57.11-.57.49.28.48.6.49H182v0a4.39,4.39,0,0,0,1,0,1.66,1.66,0,0,0,.77-.36,7.09,7.09,0,0,0,.77-.78c.16-.16.35-.36.09-.53A1.6,1.6,0,0,0,183.91,142.75Z"/><path class="cls-1" d="M167.4,165.52a7.58,7.58,0,0,0,1.17.24c.11,0,.24-.14.42-.26-.17-.22-.25-.41-.39-.48a7.89,7.89,0,0,0-1-.36c-.31-.11-.46.1-.54.34A.38.38,0,0,0,167.4,165.52Z"/><path class="cls-1" d="M158.34,169.18a1.67,1.67,0,0,0,.5-.33l-.42-.42-.46.46C158.09,169,158.24,169.21,158.34,169.18Z"/><path class="cls-1" d="M155.1,169.38a2.4,2.4,0,0,0-.58-.31.68.68,0,0,0-.75.59c0,.32.16.44.43.45a3.16,3.16,0,0,0,.69,0A.4.4,0,0,0,155.1,169.38Z"/><path class="cls-1" d="M191.53,154.17c-.26,0-.58.36-.58.67a.65.65,0,0,0,.58.7c.3,0,.47-.28.46-.85A.48.48,0,0,0,191.53,154.17Z"/><path class="cls-1" d="M224.58,153.74a.52.52,0,0,0-.35-.37,4.4,4.4,0,0,0-1.35-.14,13.51,13.51,0,0,1-5-.64,4.58,4.58,0,0,0-2.57,0,1.75,1.75,0,0,1-1.47,0c-.17-.1-.44,0-.66,0a6.7,6.7,0,0,1-.9-.1.62.62,0,0,0-.79.29,1.08,1.08,0,0,1-1,.61l-1.13,0a3.12,3.12,0,0,0-1.27.07c-1,.48-1.9,0-2.81-.22a1.81,1.81,0,0,0-1.08,0,1.86,1.86,0,0,1-2.05-.35,1.62,1.62,0,0,0-.75-.43c-.82-.2-.85-.22-.81-1.07,0-.48-.15-.67-.63-.67s-.81,0-1.21,0a.83.83,0,0,1-.79-.45c-.07-.11-.22-.26-.32-.25s-.22.18-.27.3a4,4,0,0,0-.07.48,1.47,1.47,0,0,1-.27.51,5.48,5.48,0,0,1-.75.6c-.37.28-.65.2-.86-.23L195,151c-.2.19-.33.39-.5.44-.42.12-.47.43-.48.78,0,.67,0,1.35-.06,2a2.05,2.05,0,0,1-.25.83.53.53,0,0,1-.44.26c-.13,0-.27-.23-.34-.38a1.44,1.44,0,0,1-.09-.51c-.05-.9-.08-1.79-.14-2.69,0-.44-.32-.62-.74-.48a.76.76,0,0,1-1-.32,1.55,1.55,0,0,0-.27-.24c-.23-.19-.45-.39-.7-.56a.71.71,0,0,0-.45-.16.59.59,0,0,0-.3.38,3.94,3.94,0,0,0,0,.6.76.76,0,0,1-.89.66c-.3-.08-.62-.09-.93-.14a2.4,2.4,0,0,1-.91-.24A16.94,16.94,0,0,1,185,150c-.39-.33-.73-.71-1.14-1a9.82,9.82,0,0,0-1.1-.63,11.74,11.74,0,0,1-2.06-1.12s-.08,0-.12,0c-.33-.12-.78-.15-1-.39a6,6,0,0,0-1.87-1.19c-.69-.43-1.69-.28-2.25-1.06a.23.23,0,0,0-.18-.07,3.71,3.71,0,0,1-1.55-.77,1.51,1.51,0,0,0-.29-.13,1.18,1.18,0,0,1-.82-.51.62.62,0,0,0-.32-.23,5.4,5.4,0,0,1-1.75-.74c-.22-.17-.58-.15-.86-.25a3.45,3.45,0,0,1-1.13-.46,2.15,2.15,0,0,0-1.22-.51,1.54,1.54,0,0,1-.85-.38,2,2,0,0,0-1.26-.53,2.52,2.52,0,0,1-.61-.18c-.47-.22-.84-.67-1.43-.65a.59.59,0,0,1-.31-.18c-.75-.67-1.5-1.36-2.26-2a4.52,4.52,0,0,0-.74-.44,2.54,2.54,0,0,1-.51-.3,11.05,11.05,0,0,1-1.07-1.2c-.37-.48-.85-.41-1.35-.35s-1.22.13-1.83.14a.67.67,0,0,1-.69-.66c-.06-.42-.14-.84-.22-1.26a.86.86,0,0,0-.67-.76,2.44,2.44,0,0,0-2.41,1.17.88.88,0,0,1-.82.6.93.93,0,0,0-.84.92c0,.31,0,.62-.05.92a2.17,2.17,0,0,1-.3.94,4.3,4.3,0,0,0-.74,1.3c-.12.41-.54.73-.62,1.13-.18.9-1,1.33-1.35,2.15a7.81,7.81,0,0,1-1.3,1.74l-.08.09a12.35,12.35,0,0,1-1.44,1.27c-.44.3-1,.37-1.42.77a.85.85,0,0,1-.67.18,6.76,6.76,0,0,0-2.15-.22,2.61,2.61,0,0,1-.8-.2c-.32-.09-.63-.21-1-.27a2.24,2.24,0,0,1-1.76-1.1,4.16,4.16,0,0,1-.33-1.09.38.38,0,0,1,.22-.31,1.39,1.39,0,0,1,1.14.23,1.45,1.45,0,0,0,.85.37,14.49,14.49,0,0,0,2-.21c.1,0,.18-.15.27-.23-.09-.06-.18-.16-.28-.18-.63-.12-1.27-.2-1.9-.34a1.11,1.11,0,0,1-.65-.31,2.21,2.21,0,0,1-.33-1.94,3,3,0,0,1,.9-1.65c.09-.07.12-.19.2-.26a1.76,1.76,0,0,1,.56-.4c.56-.17,1.15-.24,1.71-.43a1.07,1.07,0,0,1,1.09.17,4.12,4.12,0,0,0,.62.5,1.8,1.8,0,0,1,1,1.42.85.85,0,0,1-.25.84.62.62,0,0,0-.23.35,1.65,1.65,0,0,1-.6,1.19.33.33,0,0,0-.08.27c0,.05.15.1.23.11a1.68,1.68,0,0,0,1.26-1.12c0-.22.09-.51.24-.61a1.58,1.58,0,0,0,.66-1.22,2.11,2.11,0,0,0-.13-1.28,4.83,4.83,0,0,0-1.37-1.54,13.74,13.74,0,0,1-1.62-1s-.08,0-.12,0c-.42-.18-.84-.37-1.27-.54a3.24,3.24,0,0,0-.8-.2c-.32,0-.63,0-.77-.39a1,1,0,0,1,.32-1,3,3,0,0,0,.43-.56c.17-.25.33-.53.5-.79.07-.11.18-.19.26-.3.26-.35.48-.73.77-1.06s.82-.89,1.26-1.3c.88-.84,1.77-1.65,2.67-2.46a1.24,1.24,0,0,1,.37-.14c.35-.14.8-.2,1-.45a1.47,1.47,0,0,1,1-.52,2.25,2.25,0,0,0,1-.4,2,2,0,0,1,1.23-.5,2,2,0,0,0,1.57-.57.45.45,0,0,1,.27-.17,17.31,17.31,0,0,1,2,.06c.31,0,.59.34.9.4.69.14,1.39.16,2.07.3a8.68,8.68,0,0,1,1.26.46,5.57,5.57,0,0,0,1.13.43,2.07,2.07,0,0,1,1.16.48,1.6,1.6,0,0,0,.74.32c.62.15,1.32.07,1.77.68a.34.34,0,0,0,.18.09,4,4,0,0,1,1.09.47,2.37,2.37,0,0,0,1.82.65,1.19,1.19,0,0,1,.91.45.78.78,0,0,0,.45.29,1.36,1.36,0,0,1,1.13.6,1,1,0,0,0,.87.4,1.82,1.82,0,0,1,.91.1,13.5,13.5,0,0,1,1.85,1.23,7.43,7.43,0,0,1,1,1.12c.42.5.84,1,1.25,1.51a.89.89,0,0,1,.07.34.85.85,0,0,0,.44.72,1,1,0,0,1,.55.95,1.47,1.47,0,0,0,.31.91,2.81,2.81,0,0,1,.55,2.85c0,.13.09.28.14.43.16-.07.33-.12.48-.2s0-.13,0-.19c.05-.79.13-1.58.14-2.37a1.86,1.86,0,0,0-.32-.71c-.17-.35-.36-.69-.54-1-.1-.19-.15-.42-.3-.54a1.2,1.2,0,0,1-.48-1.05,2.52,2.52,0,0,0-.4-1.57,4.48,4.48,0,0,1-.68-1.12,1.08,1.08,0,0,1,.72-1.56,2,2,0,0,0,.48-.19,3.14,3.14,0,0,1,1.6-.58,1.78,1.78,0,0,0,.71-.22,3.59,3.59,0,0,1,1.67-.61,1.74,1.74,0,0,0,1.22-.52,1.51,1.51,0,0,1,.91-.33c.81,0,1.62,0,2.42,0a2.38,2.38,0,0,0,1.42-.38.84.84,0,0,1,.41-.14c.81-.09,1.62-.2,2.44-.23,1.88-.07,3.75-.11,5.63-.16l1.17,0a1.07,1.07,0,0,0,.55-.09c.56-.42,1.25-.24,1.85-.48a3,3,0,0,1,.94-.19c1.06-.09,2.14-.13,3.2-.23a6.4,6.4,0,0,0,1.69-.32,4.57,4.57,0,0,1,1.58-.38c.66,0,1.32,0,2,0a2.3,2.3,0,0,0,1.18-.29,3.07,3.07,0,0,1,1.89-.5,5.08,5.08,0,0,0,1.1-.2.65.65,0,0,0,.38-.87c-.13-.32-.32-.37-.76-.19a.62.62,0,0,1-.23.07c-.69.06-1.38.15-2.08.17a2,2,0,0,0-1.18.43.91.91,0,0,1-.42.2c-.51.07-1,.11-1.52.15-.94.07-1.9.11-2.84.21a20.27,20.27,0,0,0-2.57.43,8.23,8.23,0,0,1-1.85.31,4.91,4.91,0,0,0-3,.62,1.06,1.06,0,0,1-.53.16c-1,.06-2.06.13-3.09.16-1.2,0-2.39,0-3.59,0a9.09,9.09,0,0,0-3.56.52,8.74,8.74,0,0,1-2.53.3,2.47,2.47,0,0,0-1.77.6.62.62,0,0,1-.31.16c-.53.07-1.06.16-1.59.18a1.12,1.12,0,0,0-1,.4,1.22,1.22,0,0,1-.83.42,4.34,4.34,0,0,0-1.91.55,1.76,1.76,0,0,1-.93.34c-1,0-2.09,0-3.14,0a1.28,1.28,0,0,1-.81-.3,1.76,1.76,0,0,0-1.32-.46,1.68,1.68,0,0,1-1.31-.59,1.23,1.23,0,0,0-.64-.33,2.23,2.23,0,0,1-1.22-.57.79.79,0,0,0-.38-.21c-.36-.08-.73-.13-1.09-.21-.13,0-.29-.08-.34-.17a1.29,1.29,0,0,0-1.21-.64,1.84,1.84,0,0,1-1.06-.38,2.23,2.23,0,0,0-1.42-.55,1.35,1.35,0,0,1-.73-.26,1.9,1.9,0,0,0-1-.54,6,6,0,0,1-.83-.13,4.89,4.89,0,0,1-.8-.31c-.31-.14-.61-.41-.92-.42-1.18,0-2.36,0-3.55,0a1.51,1.51,0,0,0-.49.14,5.64,5.64,0,0,1-1.8.66,1.55,1.55,0,0,0-.91.35,2,2,0,0,1-1.35.6,1.59,1.59,0,0,0-.63.3c-.21.13-.37.33-.59.45s-.74.28-.92.71c0,.11-.26.16-.4.23a2.79,2.79,0,0,0-.67.33c-.49.52-1.11.88-1.58,1.45-.85,1-1.85,1.94-2.8,2.9a1.48,1.48,0,0,0-.57,1c0,.14-.16.27-.25.4l-.72,1a2.69,2.69,0,0,0-.3.37,2.23,2.23,0,0,0-.38.71.9.9,0,0,1-.95.84c-.86,0-1.73-.17-2.6-.16-1.85,0-3.7.09-5.55.18-.44,0-.88.22-1.33.28-.7.08-1.42.12-2.13.17a.7.7,0,0,1-.39-.06,3.15,3.15,0,0,0-2-.42,3.17,3.17,0,0,1-1.88-.56,2.21,2.21,0,0,0-1-.34,4.84,4.84,0,0,1-2.67-.7,1,1,0,0,0-.34-.1c-.4-.13-.91-.15-1.18-.42a2.25,2.25,0,0,0-1.6-.59,2.5,2.5,0,0,1-1.25-.32,3.62,3.62,0,0,0-1.84-.6,1.26,1.26,0,0,1-.74-.24,3.56,3.56,0,0,0-2.1-.66c-1.63-.15-3.3.21-4.9-.42-.64-.26-1.33-.38-2-.59-.19-.06-.33-.29-.52-.34-.67-.16-1.36-.27-2-.42a3.75,3.75,0,0,1-.77-.28c-.29-.13-.56-.39-.85-.42-1.17-.11-2.36-.15-3.53-.21-.41,0-.81,0-1.21,0a1,1,0,0,1-.76-.38,1.35,1.35,0,0,0-.68-.35c-.35-.07-.73,0-1.08-.06a1.88,1.88,0,0,1-.87-.25,3.76,3.76,0,0,0-2.47-.66c-.48,0-1,0-1.45,0-.3,0-.69.13-.71.51,0,.14.25.38.43.43.57.15,1.15.23,1.73.33s1,.14,1.46.24,1.21.32,1.83.39a1.86,1.86,0,0,1,1.14.5,1.49,1.49,0,0,0,.74.31c.51.09,1,.12,1.55.16a4.87,4.87,0,0,0,1.38.06,1.48,1.48,0,0,1,1.4.14,2.59,2.59,0,0,0,1.73.62,2.78,2.78,0,0,1,1.35.41,2.69,2.69,0,0,0,1.43.46,4.56,4.56,0,0,1,2,.61,5,5,0,0,0,2.14.32c.84,0,1.69-.06,2.54,0a1.52,1.52,0,0,1,1,.28,2.49,2.49,0,0,0,1.82.61,2.15,2.15,0,0,1,1.26.45,2.23,2.23,0,0,0,.8.31c.32.07.67,0,1,.06a2.28,2.28,0,0,1,1,.27,3.61,3.61,0,0,0,2.14.68.77.77,0,0,1,.54.2,2.54,2.54,0,0,0,1.82.72,1.19,1.19,0,0,1,.59.2,3.5,3.5,0,0,0,1.77.6,7.44,7.44,0,0,1,1.43.46,3.37,3.37,0,0,0,1,.38c1.56,0,3.12,0,4.67,0,.52,0,1-.15,1.55-.16A1.67,1.67,0,0,0,129,136a1,1,0,0,1,.55-.2c1,0,1.91,0,2.87,0a.85.85,0,0,1,.31.06c.65.24,1.32.46,1.95.74a.91.91,0,0,1,.43.56,1.14,1.14,0,0,1-.41,1.1,1.27,1.27,0,0,0-.34.62,3,3,0,0,1-.53,1.36,1.36,1.36,0,0,0-.17.79c0,.36.07.72.09,1.08a1.76,1.76,0,0,0,.35,1.29s0,.12,0,.19a1.28,1.28,0,0,0,.6.9,2.13,2.13,0,0,1,.43.42c.25.21.49.43.75.62a4.79,4.79,0,0,0,.53.34,2.39,2.39,0,0,0,.56.27,1.91,1.91,0,0,1,1.54,1.24,7.39,7.39,0,0,0,1,1.63,1.85,1.85,0,0,0,1.82.79,2.36,2.36,0,0,1,.53,0c1.19.27,2-.55,2.78-1.13a13.74,13.74,0,0,0,1.85-1.81.76.76,0,0,0,.19-.38,1.84,1.84,0,0,1,.59-1.15,1,1,0,0,0,.35-.89,1.51,1.51,0,0,1,.54-1.41,1.05,1.05,0,0,0,.23-.4,4.2,4.2,0,0,1,.75-1.53,1.19,1.19,0,0,0,.21-.59,2.07,2.07,0,0,1,.57-1.29.85.85,0,0,0,.19-.3,2.41,2.41,0,0,1,1.84-1.21c.51,0,1,0,1.53,0a4.75,4.75,0,0,1,2.15.2,4.26,4.26,0,0,0,1.89.47,1.44,1.44,0,0,1,.82.35,2.9,2.9,0,0,0,1.43.58,2,2,0,0,1,.83.34,1.81,1.81,0,0,0,1.15.42,2.25,2.25,0,0,1,1.43.56,2.68,2.68,0,0,0,.86.38c.24.07.51.06.74.15.65.24,1.28.52,1.91.8.24.11.45.28.69.4a3.69,3.69,0,0,0,.81.37,2.81,2.81,0,0,1,1.37.5,1.67,1.67,0,0,0,1.17.46,1.34,1.34,0,0,1,1,.47,1.56,1.56,0,0,0,.59.33,1.83,1.83,0,0,1,1,.58c.13.2.45.27.7.38a4,4,0,0,1,.73.31,2.71,2.71,0,0,0,1.65.64,1.05,1.05,0,0,1,.94.52.5.5,0,0,0,.36.21,1.8,1.8,0,0,1,1.13.56,5.75,5.75,0,0,0,.63.42c.24.15.5.28.74.44l1.9,1.23.08,0a2.17,2.17,0,0,1,1.45.79.52.52,0,0,0,.22.17c.6.24.94.89,1.62,1,.13,0,.22.22.34.33l.24.25c.69.7,1.41,1.39,2.06,2.13a2.88,2.88,0,0,1,.34.88,2.62,2.62,0,0,1,.14,1.54c-.15.73-.27,1.46-.4,2.19a.87.87,0,0,1-.14.37c-.64.67-.78,1.68-1.59,2.23a1.71,1.71,0,0,0-.35.36c-.16.19-.31.39-.47.59a2.14,2.14,0,0,1-.28.32,2.49,2.49,0,0,1-2.77-.19,2.65,2.65,0,0,0-1.38-.58.93.93,0,0,1-.5-.2c-.36-.33-.67-.71-1-1.05a9.78,9.78,0,0,0-1.32-1.18c-.65-.42-1.42-.67-2.05-1.12l-1.81-1.3a2.12,2.12,0,0,0-1.19-.49,1,1,0,0,1-.85-.39,1.13,1.13,0,0,0-.82-.43,1.15,1.15,0,0,1-1-.62,1.1,1.1,0,0,0-.31-.34,14,14,0,0,1-1.32-1c-.57-.51-1.1-1.07-1.63-1.62a.75.75,0,0,1-.23-.45,1.65,1.65,0,0,0-.83-1.57.89.89,0,0,1-.19-.2,1.06,1.06,0,0,0-.95-.48,5.33,5.33,0,0,1-1-.28c-.1,0-.22-.09-.3,0a9.6,9.6,0,0,0-1,.47.49.49,0,0,0-.21.26,1.21,1.21,0,0,0,.93,1.35,2.33,2.33,0,0,1,1.77,1.91.9.9,0,0,0,.17.48,6.74,6.74,0,0,0,.73.78c.21.2.46.35.69.53s.37.33.57.47a1.74,1.74,0,0,0,.45.23,4.41,4.41,0,0,1,.91.3,16.6,16.6,0,0,1,1.61,1.18,1.74,1.74,0,0,0,1.12.44,2.53,2.53,0,0,1,1.21.17,20.1,20.1,0,0,1,2.6,1.46c.3.24.68.36,1,.6.48.36.91.78,1.38,1.15s.89.66,1.35,1a5.18,5.18,0,0,1,.69.4c.61.6,1.19,1.24,1.78,1.86a2.71,2.71,0,0,1,.43,2.7,6.58,6.58,0,0,1-1,1.16c-.18.19-.49.3-.59.52a7.85,7.85,0,0,1-1.54,1.8,2.18,2.18,0,0,1-.56.37l-1.25.68a1.06,1.06,0,0,1-1.06-.09,2.2,2.2,0,0,0-.81-.46,2.48,2.48,0,0,1-1.4-.78c-.08-.08-.22-.09-.33-.15-.28-.14-.56-.29-.83-.46-.62-.39-1.24-.81-1.86-1.21,0,0-.1,0-.16,0a10.73,10.73,0,0,1-1.26-.37,6.76,6.76,0,0,1-.87-.56c-.22-.14-.44-.28-.67-.41l-.78-.39a2.37,2.37,0,0,1-.68-.39,1.43,1.43,0,0,0-1.22-.56c-1.23,0-2.45,0-3.67,0a6.79,6.79,0,0,1-1.71-.37c-.27-.08-.5-.33-.77-.41a.75.75,0,0,0-.59.17c-.21.18-.08.4.1.55.66.54,1.33,1.07,2,1.6a.38.38,0,0,0,.15.05c.54.07,1.08.18,1.62.21s1.38,0,2.06,0a1,1,0,0,1,.57.14,5.81,5.81,0,0,0,2.77.83c.26,0,.49.24.74.36a5.57,5.57,0,0,0,.82.39c.42.13.87.15,1.13.59a.56.56,0,0,0,.34.18,5.32,5.32,0,0,1,2.14,1.22c.16.11.22.4.3.61s0,.35.08.51a1.54,1.54,0,0,1-.33,1.46c-.32.4-.71.74-1.06,1.11a1.78,1.78,0,0,1-1.37.57c-.52,0-1,.08-1.56.1a7.36,7.36,0,0,1-1.15,0,6.31,6.31,0,0,0-1.34-.17,2,2,0,0,1-1.77-.52,2.47,2.47,0,0,0-1.95-.47c-.11,0-.24.2-.29.33s.1.22.19.29c.51.39,1,.76,1.54,1.16a2.88,2.88,0,0,1,.77,3.15,3.94,3.94,0,0,1-1.73,2.3,5.1,5.1,0,0,1-1.93.63,4.37,4.37,0,0,1-2.72-.2c-.5-.23-1-.44-1.51-.66a1.5,1.5,0,0,1-.8-1.45,12.71,12.71,0,0,0,.06-1.51c0-.4,0-.79,0-1.19s.08-1,.06-1.56a6.41,6.41,0,0,0-.21-1.06c-.17-.75.3-1,.92-1,.88,0,1.77.09,2.65.16a2.41,2.41,0,0,1,.54.21,5.5,5.5,0,0,0,1,.39c.13,0,.31-.17.46-.27a1.63,1.63,0,0,0-.37-.33.89.89,0,0,0-.55-.07c-.52.15-.65-.18-.82-.54a.78.78,0,0,0-.44-.4,10.37,10.37,0,0,1-2.14-.72,3.51,3.51,0,0,0-2.75,0c-.14,0-.33.15-.45.1a4.38,4.38,0,0,1-1.2-.61,18.68,18.68,0,0,1-1.58-1.63,1.11,1.11,0,0,1-.25-.6,1.64,1.64,0,0,0-.49-1.07,1.32,1.32,0,0,1-.43-.52,2.09,2.09,0,0,0-1.24-1.26,6.17,6.17,0,0,1-.9-.57,2.3,2.3,0,0,0-.33-.21,6.79,6.79,0,0,0-3.52-.15c-.58.08-1.15.25-1.72.36a1.11,1.11,0,0,1-1.14-.34,11.12,11.12,0,0,0-1.06-1.11c-.52-.47-1.07-.91-1.62-1.35a.81.81,0,0,0-.38-.12,2.67,2.67,0,0,1-1.53-.63,1.41,1.41,0,0,0-.81-.28,9.54,9.54,0,0,0-1.69,0,2.6,2.6,0,0,0-.9.37,4.77,4.77,0,0,0-.63.48,3.82,3.82,0,0,0-.6.46c-.58.65-1.11,1.35-1.72,2a12.63,12.63,0,0,0-1.71,2.22c-.26.41-.54.8-.83,1.19a.54.54,0,0,1-.73.12,2.08,2.08,0,0,1-.65-.53,19.42,19.42,0,0,0-2-2.1,2.94,2.94,0,0,0-1.9-.79c-.88-.06-1.75-.21-2.63-.31a1.22,1.22,0,0,0-.54.05c-.33.12-.64.28-1,.41-.14.07-.35.07-.43.17-.45.59-1.17.69-1.74,1s-.66.12-.66-.42c0-.33,0-.67,0-1a1.69,1.69,0,0,0-1.06-1.46,4.13,4.13,0,0,1-1.23-.53,1.79,1.79,0,0,0-1.36-.46,9.92,9.92,0,0,1-1.09,0c-.8,0-1.6-.07-2.39-.19-.43-.06-.81-.39-1.23-.47a15,15,0,0,0-2.31-.25,5.65,5.65,0,0,1-2.35-.43,6.9,6.9,0,0,0-2.86-.54c-.65,0-1.3.12-2,.13-1.28,0-2.57,0-3.85,0-.66,0-1.33-.14-2-.12s-1.4.06-2.1,0-1.27,0-1.9,0a4.08,4.08,0,0,1-.77-.17,2.9,2.9,0,0,0-.84-.19c-.43,0-.85.22-1.29.27a3.27,3.27,0,0,1-1.25,0,4,4,0,0,0-2.07-.5,4.19,4.19,0,0,1-2-.06,18.89,18.89,0,0,0-2.61-.4.87.87,0,0,0-.36,0l-1.19.35c-.37.1-.46.34-.27.67s.24.35.34.54a1,1,0,0,0,.93.5c1.44,0,2.89,0,4.32.06a9.3,9.3,0,0,1,2.36.37,6.22,6.22,0,0,0,1.75.33c.72,0,1.44.16,2.16.17,2.58,0,5.16,0,7.75.05.27,0,.55.11.83.12a7.4,7.4,0,0,0,1-.06,3,3,0,0,1,1.74.08,4.54,4.54,0,0,0,.91.39c.73.15,1.47.28,2.21.36a11.63,11.63,0,0,0,1.56,0,9.16,9.16,0,0,1,1-.05c.66.06,1.32.17,2,.27a2.83,2.83,0,0,1,.77.21,4.47,4.47,0,0,0,1.9.43c.47,0,.95,0,1.42,0a3.7,3.7,0,0,1,2.05.58c.59.36,1.19.75,1,1.56a2.83,2.83,0,0,0,.32,1.77,2.19,2.19,0,0,1-.45,2.41,2.31,2.31,0,0,0-.5,1.4,4.41,4.41,0,0,1-.44,1.9.61.61,0,0,0,.12.76c.38.46.74.94,1.12,1.4a6.35,6.35,0,0,0,.65.62c.26.2.55.38.82.56a3.87,3.87,0,0,0,.34.21c.35.21.71.42,1.07.6a2.05,2.05,0,0,0,.87.34c1.36,0,2.71-.09,4.07-.12a1.62,1.62,0,0,1,.88.16c.57.39,1.06.9,1.61,1.32a3.45,3.45,0,0,0,.84.41,8.43,8.43,0,0,1,1,.39c.68.4,1.33.86,2,1.3l.08,0a17.82,17.82,0,0,0,1.91.17,2,2,0,0,0,1.12-.37,2.41,2.41,0,0,1,1.63-.53,1.65,1.65,0,0,1,.68.27c.34.21.66.46,1,.7.14.1.25.24.39.33a2.08,2.08,0,0,0,.71.39,3.35,3.35,0,0,1,1.47.47,1.57,1.57,0,0,0,.62.27c.73.1,1.46.15,2.19.23.36,0,.71.1,1.07.15s.87.26,1.2.13a6,6,0,0,1,2.05-.29,1.43,1.43,0,0,1,1.2.45.89.89,0,0,0,.53.3,4.4,4.4,0,0,1,2.15.57.79.79,0,0,0,.51.07c1-.15,2.08-.3,3.13-.47a3.16,3.16,0,0,0,.9-.29c.41-.21.79-.48,1.18-.72a4.43,4.43,0,0,1,1.1-.64,6.32,6.32,0,0,1,4.2.22,4.94,4.94,0,0,0,1.8.46,2.83,2.83,0,0,0,2.11-.6,2.26,2.26,0,0,1,.78-.29,2.26,2.26,0,0,0,.37-.11,6.91,6.91,0,0,0,2.1-1.74,1.11,1.11,0,0,0,.14-.41,9,9,0,0,1,.26-1.17c.16-.46.41-.88.6-1.33a1,1,0,0,1,1-.6,12.5,12.5,0,0,0,1.73,0,2.44,2.44,0,0,0,.78-.34,3.22,3.22,0,0,1,.65-.36,1.86,1.86,0,0,0,1.06-.6,1.15,1.15,0,0,1,.93-.4.68.68,0,0,0,.45-.12c.7-.6,1.39-1.23,2.08-1.86.48-.43.94-.88,1.42-1.31a.74.74,0,0,1,.33-.13c.56-.15,1.18-.11,1.57-.66,0-.05.14-.07.21-.11a4.47,4.47,0,0,0,.95-.41,5.54,5.54,0,0,0,.86-.82c.58-.62,1.15-1.25,1.7-1.9a2.37,2.37,0,0,0,.26-.58,2,2,0,0,1,.3-.66,2.63,2.63,0,0,0,.65-1.35,1.1,1.1,0,0,1,.4-.56,2.06,2.06,0,0,1,.63-.24,4.92,4.92,0,0,0,2.27-1.44c.34-.39.7-.76,1-1.16s.55-.68.81-1a3.93,3.93,0,0,1,.35-.52c.53-.52,1.09-1,1.63-1.52a1.35,1.35,0,0,1,.9-.47.65.65,0,0,0,.49-.23,1.84,1.84,0,0,1,1.43-.7.84.84,0,0,0,.51-.26,1.33,1.33,0,0,1,1-.53,2.78,2.78,0,0,0,1-.33,3.27,3.27,0,0,1,1.7-.63.78.78,0,0,0,.41-.14,3.76,3.76,0,0,1,2-.67,3.12,3.12,0,0,0,1.37-.41,2.82,2.82,0,0,1,1.49-.47c2.66,0,5.31,0,8,0a4.6,4.6,0,0,0,2-.51,3.75,3.75,0,0,1,1.84-.43c.8,0,1.6.07,2.4.12l2.12.17a1,1,0,0,1,.43.1,1.11,1.11,0,0,0,1,0,1.44,1.44,0,0,1,.87.06,1.16,1.16,0,0,0,1,0,6.38,6.38,0,0,1,.87-.3,1.16,1.16,0,0,0,.44-.17A.68.68,0,0,0,224.58,153.74Zm-74.34,19.93a3.06,3.06,0,0,1,2.54,1.07,1.28,1.28,0,0,1,.26,1,4.52,4.52,0,0,1-1,2.57,1.82,1.82,0,0,1-1.66.75.94.94,0,0,1-1.11-.44,1.9,1.9,0,0,0-.8-.49,1,1,0,0,1-.5-1.5,3.7,3.7,0,0,0,.41-.82,4.29,4.29,0,0,1,1.24-1.8A1.27,1.27,0,0,1,150.24,173.67Zm-3.65-.4a1.75,1.75,0,0,0-.55.08,6.47,6.47,0,0,1-1,.2,1.18,1.18,0,0,1-.6-.26,7.7,7.7,0,0,0-.85-.55,1.34,1.34,0,0,1-.92-.81.8.8,0,0,1,0-.61,13.52,13.52,0,0,1,1-1.3,1.5,1.5,0,0,1,1.06-.65,9.11,9.11,0,0,1,1.13.13,1.32,1.32,0,0,1,.57.33,1.12,1.12,0,0,0,1.2.34.57.57,0,0,1,.76.26,1.87,1.87,0,0,0,.43.41,1,1,0,0,1,.09,1.57A2.82,2.82,0,0,1,146.59,173.27Zm-4.23-5.21c.29-.24.55-.51.83-.75a1.31,1.31,0,0,1,.4-.26,5.53,5.53,0,0,1,3.28-.29,3.09,3.09,0,0,1,2.5,1.8.82.82,0,0,1-.86,1.14l-.31-.09c-.31-.1-.63-.19-.94-.32a3.44,3.44,0,0,1-.68-.37,3.2,3.2,0,0,0-2.41-.66c-.3.05-.57.41-.83.65s-.3.42-.49.58-.58.16-.76-.18A1,1,0,0,1,142.36,168.06Zm-18.93,7.29a2.45,2.45,0,0,1-1.33,1.1,3.36,3.36,0,0,0-.81.44c-.51.3-.75.25-1.08-.22a.49.49,0,0,0-.84,0,1.51,1.51,0,0,1-2.05.43,16.45,16.45,0,0,0-1.7-.7,2.92,2.92,0,0,1-1.71-2.8,3.07,3.07,0,0,1,.27-.62,9.28,9.28,0,0,0,.47-1.13,2.53,2.53,0,0,1,.93-1.46.85.85,0,0,1,.66-.15c.12,0,.21.37.21.58a3,3,0,0,0,1.55,2.7,1.61,1.61,0,0,0,.84.25c1.24,0,2.49-.08,3.74-.14a1.3,1.3,0,0,0,1.11-.62,8.49,8.49,0,0,0,.61-1.25.56.56,0,0,0-.37-.78c-.43-.2-.85-.41-1.29-.57a1.85,1.85,0,0,0-.74-.07c-.09,0-.22.16-.25.26s.11.19.19.27.12,0,.18.08a1.07,1.07,0,0,1,.58,1.53.87.87,0,0,1-.62.33c-.91,0-1.82,0-2.74,0a1,1,0,0,1-1-.55,2.52,2.52,0,0,0-.35-.39.92.92,0,0,1,.22-1.59,1.52,1.52,0,0,1,1.46-.24,2.68,2.68,0,0,0,1.1.07.36.36,0,0,0,.27-.17.3.3,0,0,0-.1-.27c-.18-.14-.4-.23-.59-.36a2.06,2.06,0,0,1-.43-.35,1.13,1.13,0,0,0-1.48-.27l-.36.19a.74.74,0,0,1-.9-.17.72.72,0,0,1,.31-1c1.13-.53,2.21-1.27,3.44-.94H122a1.77,1.77,0,0,1,1.46.64,10.08,10.08,0,0,0,1.28,1.16,1.93,1.93,0,0,1,.73,1.46,1.45,1.45,0,0,0,.14.58,1.49,1.49,0,0,1,.1,1.46,9.67,9.67,0,0,1-.87,1.65C124.38,174.23,123.86,174.76,123.43,175.35Zm11.38,1.79a8.9,8.9,0,0,1-1.16,1.29A4.65,4.65,0,0,1,130.2,180a7.46,7.46,0,0,1-4-.92,2.91,2.91,0,0,1-1.57-1.94,10.26,10.26,0,0,1,0-2,.26.26,0,0,1,.1-.16,15,15,0,0,0,2.51-3.37,14,14,0,0,1,1.08-1.23c.69-.77,1.39-1.53,2.07-2.3.12-.14.14-.35.25-.5a17.05,17.05,0,0,1,1.18-1.61c.57-.62,1.19-1.2,1.81-1.77a1.1,1.1,0,0,1,.64-.31,7.1,7.1,0,0,1,3.1.29,3.16,3.16,0,0,1,.8.45c.7.54,1.39,1.08,2.05,1.67a1.37,1.37,0,0,1,.33.67.58.58,0,0,1-.27.73.78.78,0,0,1-.9-.28,4.44,4.44,0,0,0-1.52-1.34,2,2,0,0,0-1.29-.36c-.49,0-1-.17-1.47-.12a3.83,3.83,0,0,0-1.65.41,7.31,7.31,0,0,0-2.5,2.68,3,3,0,0,0-.3,1.92v0a3.19,3.19,0,0,0,1.81,1.5,1.28,1.28,0,0,1,.88.31,1.21,1.21,0,0,0,.69.31c.73.08,1.45.11,2.18.12.14,0,.31-.13.43-.24.66-.65,1.31-1.3,2-2,.28-.28.55-.58.83-.87a.46.46,0,0,1,.23-.16c.17,0,.36-.06.54-.09a1.72,1.72,0,0,1-.09.62c-.42.65-.85,1.3-1.33,1.91s-1.09,1.29-1.63,1.94a7.49,7.49,0,0,0-.45.65c0,.05-.05.12-.09.18C136,175.59,135.43,176.38,134.81,177.14Zm3.84-8.65a2,2,0,0,1-.71,1.66c-.5.37-.84,1-1.33,1.38a2.59,2.59,0,0,1-1.13.43c-.53.1-1.07.09-1.61.15a.69.69,0,0,1-.75-.39,8.13,8.13,0,0,0-.92-1.2,1,1,0,0,1-.18-1.43,3.61,3.61,0,0,1,1.23-1.4.27.27,0,0,0,.14-.14c.38-.94,1.23-.84,2-.93.39,0,.78.08,1.17.1a1.19,1.19,0,0,1,1.19.57.86.86,0,0,0,.38.29A.83.83,0,0,1,138.65,168.49Zm6,11.15c-.55.63-1.12,1.26-1.71,1.87a1.6,1.6,0,0,1-.6.29,8.58,8.58,0,0,0-1,.38c-.47.25-.65.31-1-.11a1.35,1.35,0,0,0-1.27-.39c-.12,0-.24,0-.36,0a.87.87,0,0,1-1-.76c-.13-.58-.21-.61-.76-.34a1.65,1.65,0,0,1-.68.19c-.57,0-.76-.34-.51-.86a.63.63,0,0,1,.13-.2,2.63,2.63,0,0,0,.58-1.83,4.09,4.09,0,0,1,.95-2.18c.41-.54.9-1,1.34-1.56s1-1.31,1.53-2,.6-.5,1,0a9.38,9.38,0,0,0,1.38,1.44,1.57,1.57,0,0,0,.77.18,1.49,1.49,0,0,1,1,.43c.38.41.89.33,1.4.23a3.78,3.78,0,0,1,1.21,0c.18,0,.33.27.53.45l-.42.6-1.36,1.82a5.05,5.05,0,0,0-.36.58c-.2.4-.38.81-.56,1.22A2.32,2.32,0,0,1,144.62,179.64Zm10.29-2.54a3.1,3.1,0,0,0-.26,1.87,2,2,0,0,1-.25.91.77.77,0,0,0,0,.86.73.73,0,0,1-.16,1,5.55,5.55,0,0,1-.49.48,8.44,8.44,0,0,1-.83.47l-.06-.11a1.35,1.35,0,0,0-1.3.63.5.5,0,0,1-.35.21,3.46,3.46,0,0,0-2.33.83c-.28.27-.63.08-.91-.14-.72-.55-1.45-1.09-2.16-1.65a3.84,3.84,0,0,1-.57-.57.74.74,0,0,1-.08-.9c.39-.63.84-1.21,1.26-1.81a.72.72,0,0,1,.78-.29,5.34,5.34,0,0,1,1.85.63,3.81,3.81,0,0,0,2.22.45,1.18,1.18,0,0,0,.62-.26,5.17,5.17,0,0,0,1.77-2.62c.14-.65.33-.76.83-.7S155.14,176.71,154.91,177.1Z"/><path class="cls-1" d="M208.37,92.5a82.19,82.19,0,1,0,24.08,58.13A81.66,81.66,0,0,0,208.37,92.5ZM150.24,219.27a68.65,68.65,0,1,1,68.65-68.64A68.72,68.72,0,0,1,150.24,219.27Z"/><path class="cls-1" d="M166.53,252.55c-.17,1.43-.71,4.81-1.43,9.66l6.57-1.27c-3-4.92-4.52-7.27-5.11-8.4Z"/><path class="cls-1" d="M134.28,252.82c-4.62-.7-7.23,2.81-7.85,6.86s1.06,8.39,5.37,9c4.64.71,7.17-2.79,7.82-7.05S138.62,253.48,134.28,252.82Z"/><path class="cls-1" d="M155.89,257.52c0-2.23-1.54-3.47-4.37-3.4l-4.77.11.17,7.09,4.38-.11C154.5,261.14,156,259.91,155.89,257.52Z"/><path class="cls-1" d="M90.51,238.74c1.41-1.73,1.08-3.63-1.11-5.42l-3.7-3-4.48,5.49,3.4,2.77C87.1,240.58,89,240.59,90.51,238.74Z"/><path class="cls-1" d="M251.94,188l-12.63-14.83a92.51,92.51,0,0,1-180.15.6l-12.07,14.9L25.48,173.84A125.53,125.53,0,0,0,273,173ZM68.49,227.64l-5.39-2.91-5.45,2.79,1.1-6-4.33-4.32,6.07-.81,2.77-5.47,2.64,5.53,6,.94-4.43,4.23Zm17.28,18.83-.44.54a12.22,12.22,0,0,0-2.15,3l-1.1-.9A12.21,12.21,0,0,1,84.27,246l.3-.36c1.88-2.31,2-3.83-.71-6l-3.46-2.83L75,243.37l-1.11-.9,11.48-14.08,5,4.12c2.78,2.26,3,5,1.23,7.16a4.12,4.12,0,0,1-5.33,1.15C87.53,242.34,87.73,244.08,85.77,246.47Zm2.29,6.68,9.8-15.3,1.18.75-9.8,15.31Zm22.55-3.37-1.3-.65c.49-1.93,0-3.75-2.58-5-2.35-1.17-4.17-.71-5.07,1.1s-.17,3,2.46,5.26c4,3.41,3.78,5.58,2.81,7.54-1.19,2.39-4,3.59-7.73,1.72-4.07-2-4.38-5.13-3.6-7.46l1.31.64c-.59,2.41.22,4.4,2.89,5.73,3,1.48,4.86.56,5.73-1.21s.67-3.38-2.47-6-4-4.43-2.79-6.78c1.06-2.13,3.62-3.36,7.1-1.63S111.38,247.69,110.61,249.78Zm4.25,16-1.35-.44,5.21-16-5.81-1.88.41-1.23,13,4.21-.4,1.24-5.83-1.9Zm26.26-3.95c-.75,4.9-4.05,9-9.6,8.12-5.05-.78-7.38-5.31-6.59-10.47s4.26-8.8,9.6-8C139.46,252.3,141.92,256.64,141.12,261.88Zm15.12,9a11.85,11.85,0,0,1-.35-3.79v-.46c-.08-3-1-4.21-4.47-4.13l-4.46.11.2,8.48-1.42,0L145.29,253l6.51-.16c3.59-.08,5.53,1.79,5.6,4.65a4.13,4.13,0,0,1-3.3,4.34c1.88.39,3.15,1.58,3.23,4.67v.7a12.24,12.24,0,0,0,.32,3.68Zm19.65-3.05-3.51-5.71-7.52,1.45-1.08,6.61-1.4.27,3.1-19.11,1.63-.32,10.28,16.52Zm17.83-6.19c-4-2.94-14.16-10.34-16.1-11.73h0c1,2.18,1.92,4.65,3.12,7.73l3.06,7.86-1.33.52-6.59-16.94,1.93-.75c4.22,3,14.1,10.08,15.88,11.51h0c-1.1-2.39-2-4.89-3.11-7.65l-3-7.67,1.33-.51L195.51,261ZM205,255.7l-8.66-14.48-5.23,3.13-.67-1.12,11.72-7,.67,1.11-5.26,3.14L206.27,255Zm10-6.48-11.48-14.08,8.63-7,.82,1-7.54,6.15,4.2,5.15,7.18-5.86.82,1-7.18,5.86,4.82,5.91,7.87-6.41.65,1.14Zm25-21.58-5.39-2.91-5.45,2.79,1.1-6-4.33-4.32,6.07-.81,2.77-5.47,2.65,5.53,6,.94L239,221.6Z"/><path class="cls-1" d="M149.23,25.83A125.58,125.58,0,0,0,25.47,130.32L47,115.46l12.12,14.86a92.51,92.51,0,0,1,180.15,0l12.59-14.86L273,130.32A125.57,125.57,0,0,0,149.23,25.83Zm-70,53.89-5.38-2.91L68.39,79.6l1.11-6-4.34-4.32,6.07-.81L74,63l2.65,5.52,6,1-4.44,4.22Zm21.2-11.07L88.19,51.91,89.48,51,101.72,67.7Zm6-4.08L95.74,46.8,97.11,46,107.8,63.75Zm6.34-3.51L103.71,42.4l1.44-.7,9.06,18.66Zm26.1-8.12-4.11-6.46-8.55,1.79-1.11,7.56-1.6.33,3.21-21.86,1.85-.39,12,18.67Zm23.7.31-1.6-.08.48-9.53c.2-4,.43-7.92.62-10H162c-1,2.74-5.68,12.74-8.65,19.15l-1.57-.08c-1.72-5.16-5.5-16.74-6.29-19.93h-.06c0,2.37-.15,7.2-.33,10.75l-.45,8.82-1.6-.08,1.05-20.72,2.4.13c2.48,7.24,5.59,16.71,6.24,19.09h.06c.55-1.48,5.21-11.6,8.46-18.35l2.37.12Zm6.51,2-1.55-.39,5-20.12,1.56.39Zm12.67,3.1c3.1,1.33,5.37.4,7.33-1.54l1.47.63a7.59,7.59,0,0,1-9.44,2.25c-5.47-2.35-6.49-7.94-4.2-13.31,2.21-5.15,7.05-8.62,12.6-6.24,4.12,1.76,5.56,5.09,4.82,8.55l-1.47-.63a6,6,0,0,0-4-6.59c-4.74-2-8.58,1.45-10.34,5.56S176.87,56.27,181.75,58.36Zm10.91,7.32-1.35-.86,11.14-17.49,1.35.86Zm36.44,14-5.38-2.91-5.45,2.79,1.1-6L215,69.25l6.07-.81L223.88,63l2.64,5.52,6,1-4.43,4.22Z"/><path class="cls-1" d="M127.93,35.65c-.18,1.64-.73,5.51-1.47,11.05l7.48-1.56c-3.53-5.56-5.29-8.22-6-9.5Z"/><path class="cls-1" d="M35.56,163V145.42a16.66,16.66,0,0,1-2.17.1v-2.58a4.61,4.61,0,0,0,3.08-1.53H39V163Z"/><path class="cls-1" d="M45,158.06v.38c0,1.2.41,2,1.51,2s1.57-1,1.57-3.85v-2.94A2.83,2.83,0,0,1,45.38,155c-2.77,0-3.91-2.08-3.91-5.26v-2.93c0-3.43,1.69-5.51,5-5.51s5,2.05,5,5.69v8.88c0,3.68-.33,7.44-4.95,7.44-4,0-4.82-2.62-4.82-5v-.15Zm-.17-11.68v3.39c0,1.33.35,2.25,1.6,2.25s1.65-1,1.65-3v-2.7c0-1.52-.41-2.34-1.63-2.34S44.85,144.84,44.85,146.38Z"/><path class="cls-1" d="M247.83,158.06v.38c0,1.2.41,2,1.51,2s1.58-1,1.58-3.85v-2.94A2.85,2.85,0,0,1,248.2,155c-2.77,0-3.91-2.08-3.91-5.26v-2.93c0-3.43,1.68-5.51,5-5.51s5,2.05,5,5.69v8.88c0,3.68-.33,7.44-4.95,7.44-4,0-4.82-2.62-4.82-5v-.15Zm-.17-11.68v3.39c0,1.33.36,2.25,1.6,2.25s1.65-1,1.65-3v-2.7c0-1.52-.41-2.34-1.62-2.34S247.66,144.84,247.66,146.38Z"/><path class="cls-1" d="M266.4,147v10.31c0,3.25-1,6-5.16,6-3.87,0-4.92-2.7-4.92-5.95V147.2c0-3.73,1.6-5.95,5.11-5.95S266.4,143.42,266.4,147Zm-6.73-.17V157.7c0,1.61.48,2.47,1.7,2.47s1.66-.9,1.66-2.56v-10.9c0-1.49-.47-2.37-1.67-2.37S259.67,145.12,259.67,146.79Z"/><rect class="cls-1" x="225.63" y="148.03" width="13.64" height="5.2" rx="2.6"/><rect class="cls-1" x="61.22" y="148.03" width="13.64" height="5.2" rx="2.6"/><rect class="cls-1" x="92.99" y="201.36" width="115.88" height="3.62"/><rect class="cls-1" x="103.05" y="210.9" width="95.76" height="3.62"/></svg>