<svg id="Layer_1" data-name="Layer 1" xmlns="http://www.w3.org/2000/svg" viewBox="0 0 1080 1080"><defs><style>.cls-1{fill:#eaeaea;}</style></defs><path class="cls-1" d="M835.83,606.91c-2.23,0-4.05-2.17-4.08-4.9,0-2.19,2.23-4.9,4.09-4.7a3.43,3.43,0,0,1,3.27,3.63C839.12,605,838,606.91,835.83,606.91Z"/><path class="cls-1" d="M608.38,654.18c2.61.7,5.4,1,7.78,2.19a39.3,39.3,0,0,0,15.6,4.42c2.6.12,5.17.87,7.78,1.08a34.5,34.5,0,0,0,7.6,0c2.9-.41,4.63-4.07,2.84-6-1.07-1.16-3-1.7-4.68-2-2.91-.62-6.29-.12-8.79-1.41a46.79,46.79,0,0,0-23.36-5.22c-2.37,0-4.78-.3-7.07.12a4.79,4.79,0,0,0-3.11,2.68c-.26.76,1,2.38,2,3.12S607.21,653.87,608.38,654.18Z"/><path class="cls-1" d="M782.13,516.86c-1.17-.07-2.37.63-3.56.67-2.66.08-5,.64-6.93,2.68a4.59,4.59,0,0,1-2.16,1.25c-2.44.61-4.94,1-7.38,1.6-1.88.48-4.08.84-4.06,3.48s2,3.39,4.26,3.43,4.36,0,6.54,0v-.19c2.27,0,4.61.33,6.79-.1a13.25,13.25,0,0,0,5.42-2.54,58.81,58.81,0,0,0,5.41-5.52c1.09-1.13,2.47-2.51.64-3.71C785.77,517.05,783.82,517,782.13,516.86Z"/><path class="cls-1" d="M665.82,677.27a61.12,61.12,0,0,0,8.24,1.69c.78.09,1.7-1,3-1.84-1.21-1.56-1.77-2.91-2.76-3.41a56.39,56.39,0,0,0-6.8-2.52c-2.2-.76-3.22.73-3.77,2.37A2.71,2.71,0,0,0,665.82,677.27Z"/><path class="cls-1" d="M602,703.06c1.29-.29,2.37-1.53,3.53-2.37l-3-2.93c-1.36,1.37-2.29,2.31-3.21,3.26C600.22,701.75,601.28,703.22,602,703.06Z"/><path class="cls-1" d="M579.15,704.42a18.51,18.51,0,0,0-4.09-2.18c-3.22.08-4.92,1.69-5.25,4.18-.3,2.26,1.1,3.07,3,3.14a23.36,23.36,0,0,0,4.88-.22A2.79,2.79,0,0,0,579.15,704.42Z"/><path class="cls-1" d="M835.84,597.31c-1.86-.2-4.11,2.51-4.09,4.7,0,2.73,1.85,4.91,4.08,4.9s3.29-1.92,3.28-6A3.43,3.43,0,0,0,835.84,597.31Z"/><path class="cls-1" d="M1068.71,594.23a3.85,3.85,0,0,0-2.46-2.58c-3.12-.63-6.39-1.31-9.51-1-12.15,1.12-23.81-1.08-35.34-4.47a31.65,31.65,0,0,0-18.09.08c-3.43,1-6.72,2.31-10.35.27-1.22-.68-3.11-.12-4.68-.25a50,50,0,0,1-6.35-.76c-2.39-.52-4.2-.24-5.54,2.09a7.59,7.59,0,0,1-6.86,4.28c-2.65,0-5.29.09-7.94.16-3,.07-6.5-.77-9,.43-7.08,3.45-13.38.19-19.77-1.52a12.85,12.85,0,0,0-7.61-.14c-5.24,1.65-10.12,1.81-14.44-2.47a11.93,11.93,0,0,0-5.26-3c-5.77-1.41-6-1.54-5.72-7.52.18-3.36-1.06-4.71-4.45-4.71-2.85,0-5.69,0-8.53.17a5.8,5.8,0,0,1-5.59-3.16c-.48-.79-1.55-1.84-2.2-1.74s-1.6,1.25-1.95,2.12-.15,2.28-.5,3.33a9.39,9.39,0,0,1-1.86,3.64,46,46,0,0,1-5.28,4.21c-2.65,2-4.57,1.43-6.11-1.59-.86-1.7-1.82-3.36-2.83-5.2-1.45,1.34-2.32,2.8-3.52,3.14-3,.85-3.33,3-3.4,5.49-.14,4.74-.07,9.48-.4,14.2a15.52,15.52,0,0,1-1.76,5.89,4,4,0,0,1-3.16,1.81c-.9-.1-1.87-1.58-2.37-2.66a10.16,10.16,0,0,1-.6-3.6c-.36-6.32-.61-12.65-1-19-.19-3.09-2.26-4.35-5.21-3.37-3.17,1.05-4.88.46-7-2.28a11.75,11.75,0,0,0-1.91-1.65c-1.62-1.35-3.18-2.79-4.91-4-.93-.64-2.31-1.34-3.21-1.07a4.17,4.17,0,0,0-2.1,2.64c-.39,1.32-.09,2.82-.24,4.23a5.36,5.36,0,0,1-6.27,4.62c-2.16-.51-4.42-.57-6.61-1s-4.68-.47-6.4-1.64a127.69,127.69,0,0,1-10.92-8.83c-2.72-2.32-5.15-5-8-7.11a65.63,65.63,0,0,0-7.75-4.44c-4.83-2.66-10.24-4.27-14.54-7.92-.19-.16-.56-.09-.82-.19-2.35-.87-5.53-1.09-6.86-2.77-3.51-4.41-8.83-5.69-13.2-8.38-4.86-3-11.86-2-15.82-7.45a1.9,1.9,0,0,0-1.29-.52c-4.4-.29-7.41-3.35-10.92-5.41a9.4,9.4,0,0,0-2.06-.88c-2.28-.65-4.45-1.36-5.77-3.64a4.18,4.18,0,0,0-2.23-1.61c-4.29-1.3-8.59-2.36-12.33-5.18-1.57-1.19-4.07-1.09-6.09-1.78-2.7-.93-5.84-1.47-7.89-3.23a15.18,15.18,0,0,0-8.62-3.61,11.18,11.18,0,0,1-6-2.66,14.21,14.21,0,0,0-8.87-3.78,14.3,14.3,0,0,1-4.26-1.26c-3.35-1.52-5.92-4.7-10.08-4.59a3.92,3.92,0,0,1-2.19-1.22c-5.33-4.73-10.56-9.57-16-14.23a32.67,32.67,0,0,0-5.17-3.11c-1.22-.71-2.68-1.18-3.63-2.14a91,91,0,0,1-7.55-8.41c-2.62-3.43-5.95-2.91-9.49-2.51-4.29.49-8.61.94-12.92,1-2.76,0-4.43-1.71-4.83-4.62s-1-6-1.56-8.91c-.53-2.69-1.94-4.75-4.76-5.37-5.57-1.22-14.64,2.77-16.94,8.28a6.24,6.24,0,0,1-5.76,4.24,6.53,6.53,0,0,0-5.93,6.45,56.36,56.36,0,0,1-.38,6.52c-.41,2.27-.76,4.87-2.09,6.6-2.18,2.87-4.12,5.61-5.2,9.18-.86,2.83-3.81,5.11-4.38,7.93-1.28,6.32-7.24,9.35-9.49,15.12-1.78,4.59-6,8.21-9.19,12.27a7,7,0,0,1-.53.66c-3.35,3-6.43,6.46-10.14,9-3.11,2.08-7.14,2.55-10.05,5.39a5.9,5.9,0,0,1-4.71,1.26,48.68,48.68,0,0,0-15.11-1.53c-1.86.12-3.81-.9-5.7-1.43-2.24-.62-4.44-1.42-6.71-1.91-5.1-1.09-10-2.61-12.44-7.7a33.23,33.23,0,0,1-2.34-7.69,2.75,2.75,0,0,1,1.56-2.21c2.79-.31,5.53-.41,8.06,1.62,1.66,1.34,4,2.67,6,2.65a103.82,103.82,0,0,0,13.8-1.52c.71-.1,1.31-1,2-1.59-.66-.44-1.26-1.14-2-1.27-4.45-.85-9-1.46-13.39-2.4-1.65-.35-3.84-1-4.6-2.2-2.56-4.13-4-8.46-2.35-13.66,1.4-4.4,2.55-8.68,6.4-11.65.58-.44.8-1.32,1.36-1.79,1.26-1.05,2.49-2.4,4-2.84,4-1.19,8.13-1.68,12-3,3-1,5.34-.69,7.66,1.18,1.48,1.19,2.79,2.67,4.43,3.53a12.67,12.67,0,0,1,7,10c.38,2.39.13,4.24-1.7,5.89a4.55,4.55,0,0,0-1.64,2.5,11.4,11.4,0,0,1-4.24,8.35,2.34,2.34,0,0,0-.55,2c.07.36,1,.72,1.63.73,3.21.08,8.34-4.69,8.86-7.89.25-1.51.61-3.59,1.66-4.27,3.26-2.1,4.26-5.35,4.66-8.62.36-3,.54-6.64-.88-9-2.49-4.11-5.74-8.22-9.66-10.88-3.67-2.5-8.06-4.05-11.43-7.19-.18-.17-.56-.12-.82-.23-3-1.27-5.94-2.64-9-3.8a21.08,21.08,0,0,0-5.63-1.47c-2.28-.19-4.45-.3-5.44-2.72-.93-2.27.3-5.31,2.29-7.12a21.12,21.12,0,0,0,3-3.91c1.22-1.82,2.3-3.74,3.51-5.57.52-.77,1.28-1.39,1.84-2.14,1.82-2.48,3.43-5.13,5.44-7.44,2.79-3.21,5.76-6.29,8.86-9.21,6.18-5.86,12.49-11.6,18.81-17.31.64-.58,1.73-.64,2.59-1,2.47-1,5.67-1.38,7.21-3.18a10.34,10.34,0,0,1,6.91-3.64A15.41,15.41,0,0,0,526,389.4c2.65-2.1,5.3-3.5,8.69-3.52,4.17,0,8.08-.75,11.09-4a3.22,3.22,0,0,1,1.9-1.18,126.68,126.68,0,0,1,14.33.38c2.21.24,4.16,2.39,6.39,2.84,4.8,1,9.75,1.14,14.54,2.12,3.06.63,6,2.08,8.91,3.22,2.65,1,5.21,2.71,7.93,3a14.27,14.27,0,0,1,8.16,3.37,12.23,12.23,0,0,0,5.22,2.3c4.4,1,9.34.43,12.49,4.75a2.8,2.8,0,0,0,1.23.66c2.6,1.07,5.82,1.49,7.69,3.3,3.75,3.64,8.05,4.64,12.88,4.59,2.7,0,4.62,1.26,6.38,3.15.85.91,2.12,2,3.18,2,3.54,0,5.89,1.71,7.94,4.24a7,7,0,0,0,6.15,2.81c2.15-.09,4.67-.27,6.4.7a93.4,93.4,0,0,1,13,8.71c2.66,2.15,4.62,5.2,6.86,7.87,2.94,3.51,5.9,7,8.74,10.6a5.31,5.31,0,0,1,.52,2.46c.28,2.14,1,3.88,3.08,5a7.18,7.18,0,0,1,3.94,6.69c.05,2.19.72,5,2.18,6.41,6.07,5.94,5.15,12.88,3.87,20.08-.16.92.61,2,1,3a35.4,35.4,0,0,0,3.36-1.39c.26-.14.26-.88.29-1.34.38-5.56.94-11.12,1-16.68,0-1.66-1.39-3.36-2.22-5-1.25-2.47-2.55-4.91-3.84-7.35-.68-1.3-1.07-2.95-2.12-3.81a8.45,8.45,0,0,1-3.33-7.39,18.06,18.06,0,0,0-2.86-11c-1.75-2.55-3.85-5-4.81-7.89-1.68-5-.71-9.1,5.1-11a12.6,12.6,0,0,0,3.36-1.36,22.29,22.29,0,0,1,11.27-4.09,12.6,12.6,0,0,0,5-1.53c3.7-2.09,7.21-4.11,11.75-4.32a12.55,12.55,0,0,0,8.64-3.62c1.47-1.48,4.2-2.2,6.42-2.35,5.67-.39,11.37-.31,17.06-.33a16.86,16.86,0,0,0,9.95-2.69,6.54,6.54,0,0,1,2.92-1c5.72-.61,11.43-1.36,17.17-1.6,13.22-.53,26.46-.8,39.69-1.17,2.75-.08,5.5-.08,8.24-.22,1.32-.07,2.93,0,3.87-.67,3.91-2.93,8.82-1.65,13-3.38a22.41,22.41,0,0,1,6.62-1.34c7.52-.61,15.06-.89,22.56-1.6,4-.38,8.2-.83,11.92-2.24s7.16-2.7,11.11-2.68c4.65,0,9.31.14,13.93-.21,2.85-.21,6.23-.45,8.32-2.05,4.15-3.16,8.62-3.35,13.37-3.56a33.71,33.71,0,0,0,7.74-1.42c2.42-.68,3.61-3.73,2.67-6.07s-2.29-2.62-5.36-1.34a5.45,5.45,0,0,1-1.62.46c-4.87.46-9.74,1.07-14.63,1.23a13.8,13.8,0,0,0-8.34,3,6.64,6.64,0,0,1-3,1.41c-3.53.48-7.09.79-10.64,1.06-6.68.51-13.39.73-20,1.48a138.08,138.08,0,0,0-18.12,3,56.24,56.24,0,0,1-13,2.21c-7.21.11-14.59-.24-20.95,4.32a7.52,7.52,0,0,1-3.73,1.16c-7.25.45-14.51.94-21.77,1.09-8.43.18-16.87.06-25.31,0s-16.78.35-25,3.63c-5.39,2.14-11.86,1.73-17.86,2.1-4.61.29-9,.75-12.45,4.24a4.13,4.13,0,0,1-2.22,1.14,105.79,105.79,0,0,1-11.19,1.25c-2.73.09-5,.6-6.74,2.82-1.49,1.9-3.47,2.56-5.86,3-4.58.79-9.34,1-13.44,3.87a12.76,12.76,0,0,1-6.54,2.38c-7.38.28-14.78.22-22.17,0a9.27,9.27,0,0,1-5.66-2.12c-2.73-2.64-5.84-3.28-9.33-3.29a11.52,11.52,0,0,1-9.23-4.1,8.52,8.52,0,0,0-4.53-2.36c-3.22-.67-6.2-1.54-8.57-4a5.58,5.58,0,0,0-2.64-1.49c-2.56-.6-5.18-.92-7.74-1.48a3.8,3.8,0,0,1-2.37-1.23c-1.87-3.51-4.89-4.16-8.53-4.46-2.59-.21-5.64-1-7.49-2.69a15.44,15.44,0,0,0-10-3.86,9.82,9.82,0,0,1-5.13-1.85c-2.26-1.77-4.31-3.61-7.36-3.84a32.65,32.65,0,0,1-5.84-.86,39.5,39.5,0,0,1-5.7-2.21c-2.17-1-4.24-2.87-6.42-3-8.32-.36-16.67-.19-25-.11a10.08,10.08,0,0,0-3.49,1c-4.15,1.71-7.88,4.37-12.66,4.66a10.71,10.71,0,0,0-6.39,2.46,14.49,14.49,0,0,1-9.57,4.26c-1.53.11-3.05,1.21-4.43,2.1s-2.62,2.33-4.12,3.17c-2.42,1.35-5.25,1.95-6.5,5-.33.8-1.81,1.15-2.8,1.64-1.58.79-3.57,1.15-4.71,2.34-3.5,3.63-7.84,6.17-11.15,10.21-6,7.29-13.06,13.68-19.73,20.41-1.94,2-3.91,3.77-4.05,6.87-.05,1-1.11,1.9-1.75,2.81q-2.52,3.56-5.09,7.06c-.67.91-1.53,1.68-2.12,2.63-1,1.62-2.3,3.23-2.66,5-.77,3.74-2.87,6.06-6.64,5.89-6.12-.27-12.23-1.2-18.33-1.13-13,.15-26.08.65-39.11,1.27-3.15.15-6.22,1.59-9.38,2-5,.61-10,.86-15,1.19a4.43,4.43,0,0,1-2.75-.39c-4.27-3.34-9.29-2.82-14.17-2.92s-9.22-1.07-13.27-4a14.82,14.82,0,0,0-7.09-2.34c-6.58-.61-13.19-.75-18.8-5a8.21,8.21,0,0,0-2.43-.72c-2.83-.91-6.42-1.07-8.31-2.94-3.34-3.3-7-3.89-11.24-4.14-3-.18-6.46-.64-8.86-2.25A24.43,24.43,0,0,0,256.72,435a9.16,9.16,0,0,1-5.22-1.7c-4.35-3.68-9.57-4.13-14.81-4.62-11.48-1.09-23.25,1.46-34.5-3-4.52-1.79-9.39-2.65-14-4.15-1.34-.43-2.33-2.05-3.66-2.38-4.74-1.16-9.58-1.92-14.35-3a29.76,29.76,0,0,1-5.46-1.92c-2-.92-3.91-2.78-6-3-8.27-.78-16.59-1.09-24.89-1.53-2.84-.15-5.68-.22-8.52-.23-2.27,0-3.79-1-5.34-2.67a9.28,9.28,0,0,0-4.77-2.53c-2.49-.47-5.13-.06-7.65-.39-2.11-.28-4.53-.55-6.13-1.74-5.25-3.89-11.09-4.86-17.36-4.66-3.41.11-6.85-.26-10.23.08-2.14.22-4.86.86-5,3.6-.06,1,1.82,2.64,3.08,3,4,1.06,8.1,1.67,12.18,2.38,3.41.59,6.87,1,10.27,1.66,4.31.86,8.54,2.28,12.88,2.76a13,13,0,0,1,8,3.51,10.5,10.5,0,0,0,5.18,2.23c3.61.6,7.29.84,10.95,1.09,3.23.22,6.3,1.16,9.75.41,3.13-.68,7-1.64,9.8,1,3.52,3.38,7.67,3.94,12.21,4.36,3.28.3,7,1,9.56,2.85,3.17,2.36,6.62,2.95,10,3.24A32.85,32.85,0,0,1,196.93,434c4.14,2.35,10,2.07,15.07,2.29,5.93.25,11.9-.43,17.84-.3,2.35.05,5.24.54,6.9,2a17.66,17.66,0,0,0,12.76,4.34c3.39-.12,6.14,1.33,8.89,3.13a16,16,0,0,0,5.63,2.24c2.3.43,4.75.06,7.08.4s5.4.48,7.26,1.88c4.57,3.44,9.56,4.6,15.06,4.78a5.8,5.8,0,0,1,3.84,1.45c3.47,3.87,8,4.59,12.76,5.07a8.44,8.44,0,0,1,4.22,1.39c3.69,2.91,7.94,3.58,12.42,4.22,3.45.5,6.75,2.07,10.08,3.27,2.29.82,4.48,2.56,6.75,2.62,11,.31,22,.29,33,.16,3.63,0,7.25-1,10.89-1.11a11.82,11.82,0,0,0,7.62-2.48,6.76,6.76,0,0,1,3.87-1.39c6.73-.12,13.46,0,20.19,0a6.7,6.7,0,0,1,2.21.41c4.6,1.67,9.27,3.2,13.72,5.2a6.44,6.44,0,0,1,3,3.93c.72,3-.64,5.57-2.88,7.8a8.76,8.76,0,0,0-2.41,4.31c-.62,3.48-1.49,6.66-3.72,9.58-1.06,1.39-1.2,3.69-1.24,5.58,0,2.54.53,5.07.65,7.62.15,3.22,0,6.47,2.45,9.06.29.3.29.88.41,1.34.67,2.61,1.59,5,4.23,6.36,1.2.64,2,2,3,2.94,1.7,1.53,3.42,3,5.22,4.42a30,30,0,0,0,3.79,2.36,14.26,14.26,0,0,0,3.94,1.93c5.21,1,9,3.75,10.85,8.74,1.58,4.24,4.06,7.78,6.68,11.47,3.46,4.88,7.63,5.85,12.84,5.55a13.42,13.42,0,0,1,3.69,0c8.39,1.87,13.86-3.92,19.63-8,4.89-3.47,8.77-8.38,13-12.73a5.87,5.87,0,0,0,1.35-2.69c.7-3.06,1.49-6,4.12-8.11a6.64,6.64,0,0,0,2.48-6.29,10.58,10.58,0,0,1,3.78-9.87,7.71,7.71,0,0,0,1.64-2.87c1.62-3.65,2.16-7.76,5.27-10.77.95-.92,1.22-2.7,1.49-4.14.63-3.37,1.25-6.67,4-9.11a5.57,5.57,0,0,0,1.38-2.11c1.62-4.08,8.42-8.52,13-8.53,3.59,0,7.18-.23,10.77-.26,5.08,0,10.29-.94,15.11,1.44a29.94,29.94,0,0,0,13.33,3.25,10.14,10.14,0,0,1,5.8,2.52c3,2.51,6.41,3.34,10.06,4.06a14.41,14.41,0,0,1,5.88,2.41,12.72,12.72,0,0,0,8.07,2.93c3.86,0,7,1.54,10.05,4,1.66,1.35,4,2,6.08,2.64,1.68.55,3.59.43,5.23,1.06,4.54,1.75,9,3.66,13.48,5.65,1.69.75,3.17,2,4.83,2.83a27.38,27.38,0,0,0,5.71,2.6c3.36.85,6.93,1,9.67,3.5a11.51,11.51,0,0,0,8.19,3.26,9.41,9.41,0,0,1,7.17,3.35,11,11,0,0,0,4.12,2.27c2.6,1,5.27,1.47,7.12,4.11,1,1.38,3.21,1.91,4.93,2.71s3.74,1.06,5.12,2.18A19.5,19.5,0,0,0,729,542.26c2.68.15,5.11,1,6.61,3.65a3.52,3.52,0,0,0,2.54,1.48c3.29.15,5.63,1.91,8,3.94a33.65,33.65,0,0,0,4.45,2.95c1.73,1.07,3.52,2,5.23,3.12,4.49,2.87,8.94,5.79,13.41,8.68a1.39,1.39,0,0,0,.55.13A15.22,15.22,0,0,1,780,571.76a4.33,4.33,0,0,0,1.55,1.21c4.25,1.69,6.63,6.28,11.41,7.26.91.19,1.59,1.53,2.39,2.34l1.73,1.75c4.86,5,9.88,9.8,14.5,15,1.37,1.55,1.56,4.14,2.39,6.2a18.39,18.39,0,0,1,1,10.85c-1,5.14-1.87,10.32-2.86,15.48a5.28,5.28,0,0,1-1,2.59c-4.48,4.68-5.5,11.81-11.16,15.66a13.09,13.09,0,0,0-2.5,2.54c-1.13,1.35-2.16,2.79-3.26,4.16a13.17,13.17,0,0,1-2,2.27c-5.55,4.37-14.92,2.19-19.54-1.36a18.7,18.7,0,0,0-9.72-4,6.46,6.46,0,0,1-3.54-1.44c-2.52-2.33-4.72-5-7.19-7.38-3-2.88-5.84-6-9.28-8.28-4.59-3-10-4.75-14.45-7.92-4.25-3-8.51-6.08-12.74-9.14-2.66-1.93-5.23-3.39-8.41-3.45a7.3,7.3,0,0,1-5.93-2.75,8.09,8.09,0,0,0-5.8-3c-2.88-.27-5.63-1.34-7.08-4.36a7.39,7.39,0,0,0-2.25-2.38c-3.08-2.31-6.45-4.28-9.3-6.84-4-3.6-7.71-7.56-11.44-11.46-.8-.84-1.73-2.15-1.63-3.14.57-5.11-2.15-8.3-5.84-11.08a5.07,5.07,0,0,1-1.38-1.43c-1.5-2.64-3.92-3-6.69-3.32-2.44-.25-4.78-1.32-7.18-2-.69-.2-1.53-.6-2.08-.37a72,72,0,0,0-6.85,3.31A3.2,3.2,0,0,0,632.4,569c-.92,4,2.47,8.88,6.5,9.47,5.94.87,12,7.49,12.5,13.52a6.48,6.48,0,0,0,1.19,3.33,49.43,49.43,0,0,0,5.11,5.52c1.49,1.39,3.26,2.47,4.87,3.74,1.37,1.08,2.62,2.31,4,3.32a13,13,0,0,0,3.18,1.6c2.12.75,4.56.93,6.39,2.09A131,131,0,0,1,687.52,620a12.29,12.29,0,0,0,7.91,3.15c2.88,0,6.21-.14,8.53,1.19,6.06,3.48,12.76,5.84,18.31,10.26,2.1,1.67,4.81,2.57,7,4.2,3.36,2.55,6.4,5.53,9.72,8.14,3.07,2.41,6.28,4.64,9.51,6.83,1.54,1,3.56,1.54,4.85,2.81,4.32,4.25,8.38,8.77,12.6,13.13,4,4.13,5.9,14,3,19-1.75,3-4.39,5.57-6.79,8.18-1.26,1.38-3.42,2.16-4.19,3.7-2.56,5.17-7,8.65-10.79,12.67a16.29,16.29,0,0,1-4,2.61c-2.92,1.64-5.9,3.16-8.82,4.79a7.47,7.47,0,0,1-7.46-.61c-1.79-1.3-3.68-2.94-5.73-3.3a17.6,17.6,0,0,1-9.88-5.44c-.54-.56-1.54-.65-2.28-1.05-2-1-4-2-5.86-3.25-4.39-2.8-8.72-5.72-13.09-8.57a4.21,4.21,0,0,0-1.1-.24,76,76,0,0,1-8.9-2.63c-2.2-.94-4.08-2.64-6.13-4-1.56-1-3.14-2-4.77-2.87-1.79-1-3.65-1.83-5.47-2.78-1.63-.85-3.68-1.4-4.78-2.72a10.22,10.22,0,0,0-8.61-3.95c-8.62.09-17.26.29-25.87-.11-4-.18-8.08-1.46-12-2.61-1.93-.57-3.5-2.37-5.43-2.88a5.37,5.37,0,0,0-4.19,1.16c-1.47,1.25-.53,2.83.74,3.86,4.66,3.8,9.36,7.54,14.07,11.28a2.24,2.24,0,0,0,1.06.37c3.81.53,7.62,1.26,11.46,1.48,4.82.27,9.66,0,14.49.19a8,8,0,0,1,4,1c5.93,4,12.56,5.25,19.5,5.87,1.8.17,3.48,1.7,5.23,2.57a41.56,41.56,0,0,0,5.77,2.73c2.92.91,6.12,1,8,4.12a3.64,3.64,0,0,0,2.39,1.3c6.15.88,10.29,5.33,15.06,8.58,1.16.79,1.58,2.8,2.1,4.32.39,1.14.24,2.44.57,3.6a10.84,10.84,0,0,1-2.33,10.3c-2.27,2.78-5,5.21-7.46,7.8a12.37,12.37,0,0,1-9.61,4c-3.67-.06-7.35.58-11,.75a61.29,61.29,0,0,1-8.13-.12c-3.16-.29-6.4-1.65-9.43-1.24-4.91.67-8.86-.34-12.41-3.67-3.94-3.69-8.93-3.43-13.78-3.27-.75,0-1.72,1.37-2.07,2.3-.17.45.74,1.52,1.38,2,3.57,2.77,7.28,5.37,10.81,8.19,7.44,6,7.29,14.47,5.46,22.18-1.56,6.56-6.18,12.27-12.22,16.2-4.14,2.69-8.83,3.6-13.58,4.48-6.55,1.21-12.94,1.49-19.17-1.42-3.5-1.63-7.09-3.09-10.62-4.65-3.71-1.63-6.17-6.69-5.65-10.22a89.72,89.72,0,0,0,.47-10.64c.08-2.8.09-5.6.19-8.4.14-3.66.58-7.34.43-11-.1-2.51-1-5-1.53-7.47-1.19-5.3,2.12-7.21,6.49-7,6.23.34,12.47.65,18.69,1.15,1.3.1,2.54.94,3.79,1.46,2.33,1,4.58,2.23,7,2.78.89.2,2.16-1.26,3.26-2a11.05,11.05,0,0,0-2.65-2.28,6.44,6.44,0,0,0-3.88-.51c-3.63,1-4.53-1.29-5.73-3.82a5.45,5.45,0,0,0-3.09-2.78,73.05,73.05,0,0,1-15.11-5.09c-6.08-2.84-12.91-2.21-19.34.25-1,.39-2.37,1.1-3.2.76-2.93-1.21-6.1-2.35-8.44-4.36A124.44,124.44,0,0,1,553.6,709.3a7.77,7.77,0,0,1-1.77-4.25,11,11,0,0,0-3.47-7.49c-1.15-1.09-2.55-2.25-3-3.66-1.5-4.43-4.53-7.06-8.68-8.91a49.94,49.94,0,0,1-6.36-4,14.46,14.46,0,0,0-2.34-1.53c-8.14-3.29-16.5-2.09-24.81-1-4.08.53-8.07,1.77-12.13,2.52-3,.55-5.76.19-8-2.41a82,82,0,0,0-7.46-7.79c-3.69-3.34-7.58-6.45-11.47-9.56a6,6,0,0,0-2.67-.8c-3.93-.65-7.64-1.53-10.77-4.43-1.36-1.26-3.73-1.83-5.69-2a66.83,66.83,0,0,0-11.92.06c-2.2.24-4.36,1.47-6.36,2.57a36.13,36.13,0,0,0-4.38,3.39,31.15,31.15,0,0,0-4.24,3.23c-4.12,4.58-7.81,9.56-12.16,13.9a90.34,90.34,0,0,0-12,15.66c-1.83,2.87-3.85,5.62-5.9,8.34a3.74,3.74,0,0,1-5.13.89,15.86,15.86,0,0,1-4.56-3.74,137,137,0,0,0-13.81-14.8c-4-3.71-8.23-5.14-13.38-5.54-6.19-.5-12.34-1.52-18.51-2.21a8.86,8.86,0,0,0-3.87.35c-2.29.81-4.46,2-6.7,2.9-1,.44-2.52.45-3.09,1.2-3.12,4.1-8.19,4.84-12.23,7.32-3.18,2-4.68.85-4.66-3,0-2.37.15-4.74.17-7.11,0-4.2-3.52-8.94-7.48-10.33-3-1-6.38-1.79-8.67-3.75a12.64,12.64,0,0,0-9.58-3.19,72.74,72.74,0,0,1-7.67.18c-5.64-.3-11.31-.45-16.88-1.31-3-.45-5.65-2.77-8.63-3.31A106.2,106.2,0,0,0,227,654c-5.74-.14-11.43-.61-16.57-3-6.45-3.05-13.23-3.71-20.11-3.8-4.58-.06-9.17.81-13.77.89q-13.53.24-27.07,0c-4.69-.08-9.38-1-14.05-.87a130.83,130.83,0,0,1-14.82.06c-4.43-.37-8.91-.08-13.36-.29a30.71,30.71,0,0,1-5.45-1.13c-2-.47-4-1.56-5.89-1.41-3.06.25-6,1.59-9.09,1.91-2.91.3-6.1.52-8.81-.35-4.81-1.54-9.19-4.54-14.62-3.51a29.9,29.9,0,0,1-14.21-.41c-5.92-1.68-12.23-2-18.38-2.83a6.53,6.53,0,0,0-2.53.18c-2.81.75-5.59,1.62-8.39,2.41-2.57.73-3.27,2.45-1.87,4.73.78,1.28,1.67,2.5,2.4,3.82C21.89,653,24.12,654,27,654c10.14,0,20.3-.08,30.42.38A66,66,0,0,1,74.05,657a42.69,42.69,0,0,0,12.34,2.32c5.06.09,10.11,1.14,15.18,1.2,18.2.23,36.4.19,54.59.34,2,0,3.88.78,5.83.84a50.36,50.36,0,0,0,7.46-.41c4.12-.52,8.21-1.34,12.22.55,2.11,1,4.17,2.27,6.4,2.75a144.34,144.34,0,0,0,15.57,2.56,86.48,86.48,0,0,0,11-.13c2.44-.08,4.9-.58,7.3-.36,4.66.43,9.3,1.16,13.92,1.9a23.45,23.45,0,0,1,5.42,1.45c4.3,1.79,8.63,3.25,13.39,3.09,3.31-.1,6.63.07,9.95,0a26.15,26.15,0,0,1,14.48,4.12c4.12,2.49,8.34,5.22,7.14,10.93-1,4.62.62,8.63,2.29,12.5,2.84,6.57.82,12.11-3.17,17a16.15,16.15,0,0,0-3.51,9.84c-.2,4.73-.91,9.19-3.09,13.35-1.12,2.15-.57,3.71.83,5.4,2.68,3.23,5.19,6.61,7.9,9.81a32.16,32.16,0,0,0,4.58,4.38c1.82,1.45,3.84,2.67,5.78,4,.77.52,1.55,1,2.36,1.5,2.51,1.43,5,2.92,7.57,4.21,2,1,4.08,2.43,6.12,2.41,9.55-.06,19.1-.63,28.66-.84,2.08-.05,4.62,0,6.19,1.1,4,2.78,7.48,6.31,11.36,9.28a25.81,25.81,0,0,0,5.9,2.94c2.4,1,5.09,1.42,7.29,2.72,4.8,2.84,9.37,6.07,14,9.13a1.26,1.26,0,0,0,.54.16c4.48.45,9,1.28,13.45,1.19a14.41,14.41,0,0,0,7.86-2.57,16.92,16.92,0,0,1,11.5-3.73,11.15,11.15,0,0,1,4.8,1.88c2.4,1.48,4.63,3.22,6.89,4.91,1,.72,1.77,1.7,2.78,2.36,1.59,1,3.2,2.44,5,2.73,3.65.6,7.21,1.12,10.37,3.29a10.83,10.83,0,0,0,4.37,1.93c5.13.68,10.31,1,15.46,1.59,2.51.28,5,.73,7.49,1.08,2.86.39,6.18,1.86,8.5.91,4.79-2,9.57-1.77,14.45-2a10,10,0,0,1,8.39,3.19,6.72,6.72,0,0,0,3.8,2.09c5.28.51,10.5.92,15.12,4a5.6,5.6,0,0,0,3.56.49c7.36-1,14.72-2.08,22.05-3.31a22.27,22.27,0,0,0,6.39-2c2.89-1.47,5.55-3.39,8.32-5.1,2.56-1.57,5-3.84,7.74-4.51,9.93-2.39,19.81-2.82,29.56,1.56a36,36,0,0,0,12.73,3.28c5.18.25,10.49-.44,14.84-4.26,1.36-1.19,3.61-1.38,5.46-2a17.81,17.81,0,0,0,2.66-.8,48,48,0,0,0,14.75-12.29,6.86,6.86,0,0,0,1-2.85c.62-2.75.85-5.62,1.78-8.25,1.14-3.22,2.92-6.21,4.28-9.36s3.8-4.31,7.22-4.21a87.28,87.28,0,0,0,12.21-.39c1.9-.22,3.71-1.45,5.5-2.36,1.56-.79,2.94-2.19,4.58-2.57a13.31,13.31,0,0,0,7.48-4.22,8.11,8.11,0,0,1,6.53-2.82A5.29,5.29,0,0,0,710,753c4.95-4.29,9.79-8.71,14.63-13.12,3.36-3.07,6.63-6.24,10-9.27a5.83,5.83,0,0,1,2.34-.89c3.89-1,8.33-.77,11.07-4.63.29-.41,1-.55,1.48-.77,2.24-.95,4.72-1.54,6.67-2.9a39.84,39.84,0,0,0,6-5.8c4.07-4.4,8.11-8.83,12-13.38.92-1.07,1.19-2.7,1.78-4.06.69-1.6,1-3.53,2.17-4.7,2.64-2.73,3.75-5.95,4.56-9.52a7.58,7.58,0,0,1,2.81-3.9c1.21-.93,2.93-1.23,4.45-1.73a34.82,34.82,0,0,0,16-10.14c2.37-2.76,4.93-5.36,7.29-8.13,2-2.35,3.88-4.81,5.74-7.27.89-1.18,1.41-2.7,2.44-3.7,3.76-3.63,7.69-7.08,11.5-10.66,1.82-1.72,3.59-3.23,6.35-3.3a4.75,4.75,0,0,0,3.45-1.67c2.42-3.74,6.15-4.28,10-4.89a5.9,5.9,0,0,0,3.62-1.88c1.85-2.56,4.25-3.32,7.21-3.72a18.58,18.58,0,0,0,7.14-2.31c3.75-2.31,7.45-4.37,12-4.44a5.72,5.72,0,0,0,2.87-1,26.56,26.56,0,0,1,14-4.71,21.64,21.64,0,0,0,9.62-2.88,19.85,19.85,0,0,1,10.54-3.28c18.68,0,37.35-.08,56,0A31.52,31.52,0,0,0,990,600.72a26.64,26.64,0,0,1,13-3.05c5.64.17,11.28.53,16.91.91,5,.33,9.95.76,14.92,1.2a7,7,0,0,1,3,.65c2.29,1.47,4.37.82,6.76.21a10.52,10.52,0,0,1,6.13.42,7.92,7.92,0,0,0,7.29-.13,42.45,42.45,0,0,1,6.09-2.1c1.05-.35,2.38-.46,3.07-1.18A4.88,4.88,0,0,0,1068.71,594.23ZM544.93,734.69c7.24-.71,13.09,2.58,17.87,7.51a9,9,0,0,1,1.89,6.77c-1,6.51-2.37,12.88-7.18,18.11-3.33,3.63-6.77,5.95-11.7,5.31-3.4.82-5.74-.2-7.82-3.1-1.21-1.67-3.61-2.63-5.65-3.52-4.91-2.14-6.21-5.93-3.51-10.52a28.79,28.79,0,0,0,2.85-5.82c1.61-5.16,5-9.06,8.75-12.64A8.18,8.18,0,0,1,544.93,734.69Zm-25.71-2.86a13.39,13.39,0,0,0-3.86.58c-2.48.48-4.95,1.33-7.44,1.41-1.38,0-2.89-1-4.2-1.8-2-1.22-3.8-3-6-3.89-2.95-1.19-5.57-2.61-6.54-5.75a5.73,5.73,0,0,1,.23-4.25,87.22,87.22,0,0,1,7-9.16c2.17-2.55,4.74-4.64,7.49-4.62a63.37,63.37,0,0,1,7.94.92,9.66,9.66,0,0,1,4,2.36c2.47,2.33,5.1,3.53,8.47,2.34a4,4,0,0,1,5.33,1.85,13.72,13.72,0,0,0,3,2.9c3.85,3.17,4.28,7.75.67,11C530.86,729.91,525.67,732.56,519.22,731.83Zm-29.78-36.71c2-1.68,3.87-3.57,5.86-5.28a10.44,10.44,0,0,1,2.76-1.83,39.34,39.34,0,0,1,23.14-2c7.31,1.49,14.54,4.6,17.62,12.64,1.58,4.14-1.14,8-6.09,8.05-.36-.1-1.26-.34-2.15-.63-2.21-.73-4.47-1.38-6.62-2.27a25,25,0,0,1-4.84-2.6c-5.1-3.6-10.76-5.7-16.92-4.68-2.15.36-4,2.88-5.85,4.59-1.29,1.22-2.11,2.94-3.44,4.09-2,1.74-4.15,1.14-5.37-1.23C485.81,700.64,486.53,697.55,489.44,695.12ZM356,746.52c-2.52,3.43-4.94,6.57-9.35,7.75-2,.55-3.85,2-5.72,3.06-3.59,2.12-5.27,1.8-7.6-1.51-1.67-2.37-3.91-2.48-5.9-.28-4.52,5-8.31,5.74-14.48,3a114.08,114.08,0,0,0-12-5c-7.22-2.24-13.2-13.13-12-19.72.26-1.51,1.31-2.87,1.93-4.32a69.52,69.52,0,0,0,3.3-8c1.2-4.13,3-7.82,6.57-10.28a6,6,0,0,1,4.6-1c.88.31,1.5,2.63,1.5,4,0,8.51,3.74,14.84,10.95,19.09a12,12,0,0,0,5.87,1.76c8.79-.15,17.58-.62,26.36-1a9.09,9.09,0,0,0,7.83-4.41,62.56,62.56,0,0,0,4.31-8.82c1-2.55-.2-4.4-2.61-5.5-3-1.37-6-2.89-9.07-4a13.59,13.59,0,0,0-5.25-.49c-.65,0-1.54,1.11-1.73,1.85-.12.5.76,1.31,1.31,1.87a3.76,3.76,0,0,0,1.28.58c4.42,1.83,6.43,6.57,4.1,10.78a5.89,5.89,0,0,1-4.36,2.33c-6.43.16-12.87-.15-19.31-.17a7.22,7.22,0,0,1-6.79-3.81,15.36,15.36,0,0,0-2.42-2.76c-3.92-3.93-3.29-8.65,1.48-11.24,3.25-1.77,6.26-3.42,10.33-1.65,2.24,1,5.15.52,7.76.5a2.59,2.59,0,0,0,1.91-1.25c.22-.41-.26-1.52-.75-1.88-1.28-1-2.77-1.62-4.11-2.51a17,17,0,0,1-3.06-2.47c-3-3.27-6.57-4-10.41-1.93-.84.45-1.66.92-2.52,1.31-2.37,1.1-5.46.53-6.38-1.14a5.05,5.05,0,0,1,2.18-7.25c8-3.75,15.62-9,24.24-6.65,3.24,0,5.52.05,7.79,0a12.61,12.61,0,0,1,10.26,4.49,64.11,64.11,0,0,0,9,8.2c3.53,2.66,4.74,6.17,5.16,10.27a10.2,10.2,0,0,0,1,4.08,10.49,10.49,0,0,1,.72,10.29c-1.82,4-3.42,7.9-6.1,11.61C362.72,738.61,359.1,742.33,356,746.52Zm80.19,12.62a68.88,68.88,0,0,1-8.13,9.07c-7.14,6.19-14.74,11.64-24.34,10.69-10.26,0-19.49-1.42-27.91-6.45-5.39-3.22-9.9-7.42-11.06-13.68-.84-4.55-.2-9.38-.16-14.09a1.86,1.86,0,0,1,.75-1.16c7.76-6.51,12.14-15.52,17.68-23.69,2.15-3.17,5.05-5.83,7.63-8.71,4.85-5.4,9.76-10.75,14.55-16.21.83-.95,1-2.46,1.74-3.51a119.84,119.84,0,0,1,8.37-11.32c4-4.42,8.36-8.46,12.73-12.5a8.17,8.17,0,0,1,4.46-2.18c7.38-.49,14.8-.72,21.86,2.06a23.05,23.05,0,0,1,5.65,3.16c4.92,3.79,9.8,7.65,14.47,11.75,1.21,1.07,1.84,3,2.27,4.72.5,2,.31,4-1.89,5.15-1.81.9-5.24,0-6.31-2-2.43-4.53-6.91-6.63-10.74-9.46a14.17,14.17,0,0,0-9.1-2.53c-3.44.07-6.94-1.15-10.33-.85-4,.36-8.34.9-11.6,2.89-7.53,4.57-13.24,11.29-17.63,18.91-2.34,4.07-2.76,8.79-2.15,13.51a1.31,1.31,0,0,0,.06.27c.9,3.48,9.18,10.49,12.76,10.6a9,9,0,0,1,6.19,2.21,9.15,9.15,0,0,0,4.87,2.16c5.07.53,10.19.77,15.3.86,1,0,2.21-.94,3-1.74,4.65-4.54,9.24-9.15,13.81-13.77,2-2,3.86-4.12,5.83-6.15a3.94,3.94,0,0,1,1.63-1.1c1.25-.32,2.56-.44,3.84-.64-.2,1.48.05,3.23-.67,4.37-2.94,4.59-6,9.13-9.34,13.43-3.65,4.69-7.7,9.08-11.5,13.66a53.9,53.9,0,0,0-3.16,4.58c-.26.4-.37.9-.65,1.26C444.78,748.22,440.59,753.75,436.22,759.14Zm27.08-61c-.35,4.46-.74,8.56-5,11.71-3.58,2.65-5.94,6.92-9.41,9.77-2.08,1.72-5.2,2.45-8,3-3.7.7-7.52.7-11.28,1.11-2.45.26-4-.54-5.33-2.74a52.72,52.72,0,0,0-6.47-8.47c-3.33-3.53-3.75-5.94-1.29-10.07,2.29-3.85,4.7-7.54,8.69-9.87a2.36,2.36,0,0,0,1-1c2.68-6.62,8.68-5.95,14.08-6.59,2.79.25,5.51.61,8.25.71,3.44.12,6.55.57,8.41,4.06a5.83,5.83,0,0,0,2.66,2A5.9,5.9,0,0,1,463.3,698.14Zm42.06,78.57c-3.92,4.48-7.9,8.92-12.05,13.19-1,1.05-2.75,1.48-4.21,2.05-2.35.93-4.88,1.47-7.07,2.65-3.34,1.8-4.6,2.19-7.07-.78S469.3,791,466,791.09c-.85,0-1.69.21-2.54.26-3.82.19-6-1.52-6.89-5.29-.95-4.11-1.51-4.3-5.35-2.45a11.89,11.89,0,0,1-4.8,1.37c-4,0-5.38-2.38-3.62-6.05a5.44,5.44,0,0,1,.91-1.43c3.51-3.63,3.81-8.16,4.1-12.89.37-5.8,3.27-10.81,6.71-15.34,2.91-3.83,6.36-7.24,9.4-11,3.69-4.55,7.19-9.25,10.79-13.87,3-3.89,4.28-3.52,7.1.32a64.37,64.37,0,0,0,9.7,10.11c1.24,1.08,3.55,1.07,5.4,1.31,2.59.33,4.8,1,6.76,3,2.69,2.85,6.26,2.31,9.85,1.61a28.36,28.36,0,0,1,8.57-.38c1.24.15,2.28,1.92,3.7,3.23-1.27,1.8-2.09,3-3,4.17-3.18,4.3-6.4,8.56-9.56,12.87a27.37,27.37,0,0,0-2.57,4c-1.41,2.84-2.67,5.74-4,8.62C506.29,774.48,506.12,775.84,505.36,776.71Zm72.47-17.9c-2.59,4.28-2,8.64-1.8,13.17a14.05,14.05,0,0,1-1.8,6.41c-1.09,2.15-1.49,4-.15,6.1,1.74,2.69,1.09,5-1.11,7.08a31.25,31.25,0,0,1-3.42,3.39,65.87,65.87,0,0,1-5.85,3.33c-.15-.25-.29-.5-.43-.75-3.71.1-7.12.69-9.17,4.42a3.47,3.47,0,0,1-2.47,1.48c-6.07.31-11.69,1.43-16.38,5.87-2,1.87-4.45.5-6.44-1-5.07-3.88-10.19-7.71-15.22-11.66a26.8,26.8,0,0,1-4-4,5.34,5.34,0,0,1-.56-6.4c2.75-4.38,5.9-8.51,8.9-12.73a5,5,0,0,1,5.48-2c4.58.82,9,1.92,13.06,4.38,4.73,2.85,10.16,3.55,15.62,3.18a7.63,7.63,0,0,0,4.34-1.83c5.61-5.14,10.73-10.59,12.48-18.45,1-4.53,2.33-5.31,5.86-4.94C578,754.22,579.49,756.06,577.83,758.81Z"/></svg>