<svg id="Layer_1" data-name="Layer 1" xmlns="http://www.w3.org/2000/svg" viewBox="0 0 1080 1080" style=""><defs><style>.cls-1,.cls-2,.cls-3{fill:none;stroke:#eaeaea;stroke-miterlimit:10;}.cls-1{stroke-width:3px;}.cls-2{stroke-width:5px;}.cls-3{stroke-width:4px;}.cls-4,.cls-5{opacity:0.8;}.cls-5{fill:#eaeaea;}</style></defs><path class="cls-1 RFWroVUB_0" d="M598.17,864.61c-.56,4.72-2.33,15.85-4.72,31.8l21.64-4.18c-9.92-16.18-14.9-23.92-16.84-27.63Z"></path><path class="cls-1 RFWroVUB_1" d="M492.05,865.52c-15.2-2.33-23.79,9.24-25.83,22.58-2.08,13.59,3.48,27.57,17.66,29.74,15.29,2.34,23.61-9.18,25.75-23.2C511.74,880.88,506.32,867.7,492.05,865.52Z"></path><path class="cls-1 RFWroVUB_2" d="M563.16,881c-.18-7.34-5.06-11.41-14.37-11.19l-15.71.38.55,23.31,14.44-.34C558.57,892.88,563.35,888.83,563.16,881Z"></path><path class="cls-1 RFWroVUB_3" d="M348,819.18c4.64-5.69,3.58-12-3.64-17.85L332.2,791.4l-14.74,18.07,11.19,9.12C336.79,825.23,343.05,825.27,348,819.18Z"></path><path class="cls-2 RFWroVUB_4" d="M879.21,652.08,837.65,603.3C806.71,738.09,686.3,838.89,542,839.36S276.71,739.84,244.88,605.25l-39.73,49L134,605.62c33.62,195,203.82,343.13,408.34,342.46s373.75-149.9,406.09-345.14Z"></path><path class="cls-3 RFWroVUB_5" d="M275.56,782.66L257.85,773.09L239.91,782.27L243.54,762.44L229.28,748.23L249.24,745.57L258.36,727.59L267.07,745.77L286.97,748.87L272.39,762.77L275.56,782.66Z"></path><path class="cls-1 RFWroVUB_6" d="M332.45,844.62,331,846.41c-2.65,3.24-6.48,7.39-7.07,9.88l-3.64-3c.76-2.69,4-6.23,7.22-10.2l1-1.19c6.21-7.62,6.55-12.63-2.32-19.86l-11.38-9.29-17.66,21.64-3.64-3,37.79-46.33,16.62,13.55c9.13,7.45,10,16.29,4,23.57-4.81,5.89-11.45,6.87-17.53,3.79C338.23,831,338.87,836.74,332.45,844.62Z"></path><path class="cls-1 RFWroVUB_7" width="59.8" height="4.61" transform="translate(-544.69 689.76) rotate(-57.37)" d="M328.12 840.36 L387.92 840.36 L387.92 844.97 L328.12 844.97 Z"></path><path class="cls-1 RFWroVUB_8" d="M414.16,855.49l-4.28-2.13c1.62-6.34-.08-12.34-8.49-16.52-7.73-3.83-13.72-2.32-16.69,3.64s-.54,9.94,8.11,17.29c13.22,11.23,12.43,18.37,9.24,24.8-3.91,7.88-13,11.84-25.42,5.69-13.39-6.65-14.42-16.88-11.84-24.57l4.28,2.13c-1.92,7.91.73,14.48,9.53,18.84,9.8,4.87,16,1.83,18.86-4,3-6,2.19-11.12-8.15-19.88-9.92-8.45-13-14.55-9.16-22.28,3.5-7,11.89-11.07,23.37-5.38C415.3,839,416.7,848.64,414.16,855.49Z"></path><path class="cls-1 RFWroVUB_9" d="M428.16,908.33L423.69,906.88L440.84,854.07L421.75,847.87L423.07,843.81L465.8,857.68L464.48,861.75L445.31,855.52L428.16,908.33Z"></path><path class="cls-1 RFWroVUB_10" d="M514.54,895.31c-2.46,16.13-13.32,29.5-31.56,26.72-16.63-2.55-24.29-17.46-21.7-34.43,2.56-16.72,14-29,31.59-26.28C509.08,863.8,517.18,878.08,514.54,895.31Z"></path><path class="cls-1 RFWroVUB_11" d="M564.3,925c-1.17-2.54-1-7.33-1.16-12.45l0-1.54c-.24-9.82-3.24-13.85-14.68-13.58l-14.69.35.67,27.93-4.7.11L528.28,866l21.43-.51c11.79-.28,18.17,5.89,18.4,15.28.18,7.6-4.23,12.66-10.85,14.27,6.18,1.31,10.38,5.22,10.62,15.39l.06,2.3c.1,4.19-.11,9.83,1,12.11Z"></path><path class="cls-1 RFWroVUB_12" d="M628.97,914.95L617.41,896.13L592.67,900.91L589.13,922.65L584.52,923.55L594.71,860.67L600.08,859.63L633.91,913.99L628.97,914.95Z"></path><path class="cls-1 RFWroVUB_13" d="M687.64,894.56c-13.3-9.68-46.6-34-53-38.6l-.08,0c3.25,7.17,6.33,15.32,10.26,25.43l10.07,25.87L650.55,909l-21.69-55.73,6.37-2.48c13.88,10,46.37,33.19,52.23,37.88l.08,0c-3.61-7.85-6.72-16.09-10.25-25.16l-9.82-25.23,4.37-1.71,21.69,55.72Z"></path><path class="cls-1 RFWroVUB_14" d="M724.89,874.99L696.4,827.33L679.17,837.63L676.98,833.97L715.54,810.91L717.74,814.57L700.43,824.92L728.93,872.58L724.89,874.99Z"></path><path class="cls-1 RFWroVUB_15" d="M757.69,853.68L719.91,807.32L748.32,784.17L751.02,787.49L726.19,807.72L740,824.67L763.64,805.41L766.34,808.72L742.7,827.98L758.56,847.45L784.45,826.35L786.62,830.09L757.69,853.68Z"></path><path class="cls-3 RFWroVUB_16" d="M839.9,782.66L822.19,773.09L804.25,782.27L807.88,762.44L793.62,748.23L813.58,745.57L822.7,727.59L831.41,745.77L851.31,748.87L836.73,762.77L839.9,782.66Z"></path><path class="cls-2 RFWroVUB_17" d="M541.25,118.63C336.72,118.63,167,267.3,134,462.44l71-48.92,39.89,48.92C276.26,327.75,397,227.35,541.25,227.35s265,100.4,296.4,235.09l41.4-48.92,69.42,48.92C915.49,267.3,745.78,118.63,541.25,118.63Z"></path><path class="cls-3 RFWroVUB_18" d="M310.91,295.93L293.2,286.36L275.26,295.54L278.88,275.71L264.62,261.5L284.59,258.84L293.7,240.85L302.41,259.04L322.32,262.14L307.73,276.04L310.91,295.93Z"></path><path class="cls-1 RFWroVUB_19" width="5.26" height="68.24" transform="translate(-66.09 258.53) rotate(-36.18)" d="M360.02 196.3 L365.28 196.3 L365.28 264.54 L360.02 264.54 Z"></path><path class="cls-1 RFWroVUB_20" width="5.26" height="68.24" transform="translate(-55.98 229.41) rotate(-31.04)" d="M382.44 181.39 L387.7 181.39 L387.7 249.63 L382.44 249.63 Z"></path><path class="cls-1 RFWroVUB_21" width="5.26" height="68.25" transform="translate(-47.48 198.77) rotate(-25.88)" d="M406.1 168.56 L411.36 168.56 L411.36 236.81 L406.1 236.81 Z"></path><path class="cls-1 RFWroVUB_22" d="M507.16,207.82L493.64,186.55L465.49,192.44L461.84,217.31L456.59,218.41L467.13,146.49L473.23,145.21L512.79,206.65L507.16,207.82Z"></path><path class="cls-1 RFWroVUB_23" d="M585.12,208.85l-5.26-.26,1.58-31.36c.68-13.33,1.42-26.08,2-32.89h-.29c-3.19,9-18.71,41.91-28.46,63l-5.16-.26c-5.68-17-18.11-55.09-20.71-65.57h-.19c.09,7.82-.51,23.7-1.1,35.38l-1.47,29-5.25-.27,3.43-68.16,7.89.4c8.17,23.84,18.41,55,20.55,62.83h.2c1.81-4.89,17.15-38.18,27.84-60.39l7.79.39Z"></path><path class="cls-1 RFWroVUB_24" width="68.24" height="5.26" transform="translate(287.55 731.65) rotate(-75.97)" d="M578.15 179.07 L646.39 179.07 L646.39 184.32999999999998 L578.15 184.32999999999998 Z"></path><path class="cls-1 RFWroVUB_25" d="M648.24,225.64c10.21,4.38,17.68,1.32,24.11-5l4.84,2.07c-7.22,8.68-17.79,13.06-31.05,7.38-18-7.72-21.37-26.13-13.8-43.78,7.25-16.94,23.17-28.36,41.46-20.52,13.53,5.79,18.28,16.74,15.85,28.1l-4.84-2.07c.62-9.38-2.36-17-13.2-21.67-15.6-6.68-28.24,4.77-34,18.3S632.2,218.77,648.24,225.64Z"></path><path class="cls-1 RFWroVUB_26" width="68.24" height="5.26" transform="matrix(0.54, -0.84, 0.84, 0.54, 138.78, 692.11)" d="M666.13 216.92 L734.37 216.92 L734.37 222.17999999999998 L666.13 222.17999999999998 Z"></path><path class="cls-3 RFWroVUB_27" d="M804.06,295.93L786.35,286.36L768.41,295.54L772.04,275.71L757.78,261.5L777.74,258.84L786.86,240.85L795.57,259.04L815.47,262.14L800.89,276.04L804.06,295.93Z"></path><path class="cls-1 RFWroVUB_28" d="M471.14,150.92c-.56,5.4-2.38,18.13-4.83,36.37l24.61-5.15c-11.59-18.29-17.41-27-19.68-31.24Z"></path><g class="cls-4"><path class="cls-3 RFWroVUB_29" d="M167.21,570V512.13a56,56,0,0,1-7.14.31V504a15.18,15.18,0,0,0,10.15-5.05h8.19v71Z"></path><path class="cls-3 RFWroVUB_30" d="M198.34,553.69V555c0,4,1.35,6.62,5,6.62,4.06,0,5.18-3.29,5.18-12.67v-9.67c-1.78,2.76-4.21,4.24-8.94,4.24-9.12,0-12.86-6.83-12.86-17.29v-9.65c0-11.29,5.54-18.13,16.47-18.13,11.15,0,16.33,6.74,16.33,18.73v29.22c0,12.1-1.08,24.47-16.29,24.47-13.13,0-15.86-8.63-15.86-16.62v-.51Zm-.55-38.41v11.14c0,4.39,1.15,7.41,5.25,7.41,4.28,0,5.43-3.37,5.43-9.7v-8.9c0-5-1.35-7.68-5.34-7.68S197.79,510.21,197.79,515.28Z"></path></g><g class="cls-4"><path class="cls-3 RFWroVUB_31" d="M865.69,553.69V555c0,4,1.35,6.62,5,6.62,4.06,0,5.18-3.29,5.18-12.67v-9.67c-1.78,2.76-4.21,4.24-8.94,4.24-9.12,0-12.86-6.83-12.86-17.29v-9.65c0-11.29,5.54-18.13,16.46-18.13,11.16,0,16.34,6.74,16.34,18.73v29.22c0,12.1-1.09,24.47-16.29,24.47-13.13,0-15.86-8.63-15.86-16.62v-.51Zm-.56-38.41v11.14c0,4.39,1.16,7.41,5.26,7.41,4.27,0,5.43-3.37,5.43-9.7v-8.9c0-5-1.36-7.68-5.34-7.68S865.13,510.21,865.13,515.28Z"></path><path class="cls-3 RFWroVUB_32" d="M926.8,517.19V551.1c0,10.71-3.22,19.72-17,19.72-12.73,0-16.19-8.89-16.19-19.59V518c0-12.26,5.27-19.57,16.8-19.57C921.74,498.4,926.8,505.52,926.8,517.19Zm-22.16-.56v35.9c0,5.28,1.58,8.14,5.58,8.14s5.46-3,5.46-8.46V516.36c0-4.89-1.54-7.81-5.47-7.81C906.45,508.55,904.64,511.13,904.64,516.63Z"></path></g><path class="cls-5 RFWroVUB_33" d="M572.58,567a4.72,4.72,0,0,0,1.61.46,19.78,19.78,0,0,1,3.64,1,18.4,18.4,0,0,0,7.28,2.06c1.22,0,2.42.4,3.64.5a16.12,16.12,0,0,0,3.54,0c1.36-.19,2.17-1.9,1.34-2.8a4.34,4.34,0,0,0-2.19-1c-1.36-.28-2.94-.05-4.11-.65a21.87,21.87,0,0,0-10.91-2.44,18.15,18.15,0,0,0-3.3.06,2.21,2.21,0,0,0-1.45,1.25C571.55,565.91,572.13,566.67,572.58,567Z"></path><path class="cls-5 RFWroVUB_34" d="M657.66,503.84a4.79,4.79,0,0,0-2.32-.49c-.54,0-1.1.29-1.66.31a4.31,4.31,0,0,0-3.24,1.25,2.07,2.07,0,0,1-1,.59c-1.14.28-2.3.46-3.44.74-.88.23-1.91.4-1.9,1.63s.92,1.58,2,1.6h3v-.09a16,16,0,0,0,3.18-.05,6.19,6.19,0,0,0,2.53-1.18,27.93,27.93,0,0,0,2.52-2.58C657.87,505,658.52,504.4,657.66,503.84Z"></path><path class="cls-5 RFWroVUB_35" d="M601,578.27a29.87,29.87,0,0,0,3.85.79c.36,0,.79-.47,1.4-.87-.56-.72-.82-1.35-1.29-1.59a26.06,26.06,0,0,0-3.17-1.17c-1-.36-1.51.34-1.76,1.1A1.27,1.27,0,0,0,601,578.27Z"></path><path class="cls-5 RFWroVUB_36" d="M571.2,590.31a5.37,5.37,0,0,0,1.66-1.11l-1.39-1.37-1.5,1.53C570.38,589.7,570.88,590.38,571.2,590.31Z"></path><path class="cls-5 RFWroVUB_37" d="M557.6,593.35a10.86,10.86,0,0,0,2.28-.1,1.31,1.31,0,0,0,.66-2.3,8.26,8.26,0,0,0-1.91-1,2.21,2.21,0,0,0-2.45,2C556,592.93,556.7,593.31,557.6,593.35Z"></path><path class="cls-5 RFWroVUB_38" d="M829,520.69h-14a270.48,270.48,0,0,0-540.69,0h-14a8.56,8.56,0,1,0,0,17.11h14a270.48,270.48,0,0,0,540.69,0h14a8.56,8.56,0,1,0,0-17.11Zm-58.63,15.89c-1.08-.27-2.16-.55-3.23-.87a14.82,14.82,0,0,0-8.45,0c-1.6.47-3.14,1.08-4.83.13-.57-.32-1.45-.06-2.19-.12a22.57,22.57,0,0,1-3-.36,2.07,2.07,0,0,0-2.59,1,3.55,3.55,0,0,1-3.2,2c-1.24,0-2.48,0-3.71.07-1.41,0-3-.36-4.19.21-3.31,1.61-6.25.08-9.23-.72a6,6,0,0,0-3.56-.06c-2.44.77-4.73.84-6.74-1.15a5.61,5.61,0,0,0-2.46-1.42c-2.7-.65-2.82-.72-2.67-3.51.08-1.57-.5-2.2-2.08-2.2-1.33,0-2.66,0-4,.08a2.7,2.7,0,0,1-2.6-1.48c-.23-.36-.73-.85-1-.81s-.75.58-.91,1-.07,1.07-.24,1.56a4.55,4.55,0,0,1-.86,1.7,22.37,22.37,0,0,1-2.47,2c-1.24.92-2.14.67-2.85-.74-.41-.79-.86-1.57-1.33-2.43-.67.63-1.08,1.31-1.64,1.47-1.41.4-1.56,1.42-1.59,2.56-.07,2.21,0,4.43-.19,6.63a7,7,0,0,1-.82,2.75,1.82,1.82,0,0,1-1.47.85c-.42-.05-.88-.74-1.11-1.24a4.67,4.67,0,0,1-.28-1.68c-.17-3-.28-5.91-.46-8.86-.09-1.44-1.06-2-2.44-1.58a2.48,2.48,0,0,1-3.26-1.06,5.15,5.15,0,0,0-.9-.77,29.05,29.05,0,0,0-2.29-1.86,2.13,2.13,0,0,0-1.5-.5,1.91,1.91,0,0,0-1,1.23,11.72,11.72,0,0,0-.11,2,2.52,2.52,0,0,1-2.93,2.16c-1-.24-2.07-.27-3.09-.46a8.19,8.19,0,0,1-3-.77,60.43,60.43,0,0,1-5.1-4.12c-1.27-1.08-2.4-2.33-3.73-3.32a30.06,30.06,0,0,0-3.62-2.08c-2.26-1.24-4.79-2-6.79-3.7-.09-.07-.27,0-.39-.08-1.09-.41-2.58-.51-3.2-1.3-1.64-2.06-4.12-2.65-6.16-3.91-2.28-1.4-5.55-.93-7.39-3.48a.89.89,0,0,0-.61-.24c-2-.14-3.46-1.57-5.1-2.53a3.91,3.91,0,0,0-1-.41,4,4,0,0,1-2.69-1.7,1.93,1.93,0,0,0-1-.75,17.53,17.53,0,0,1-5.75-2.42c-.74-.56-1.91-.51-2.85-.84-1.26-.43-2.73-.68-3.68-1.5a7.14,7.14,0,0,0-4-1.69A5.26,5.26,0,0,1,598,496a6.68,6.68,0,0,0-4.15-1.77,6.77,6.77,0,0,1-2-.58c-1.56-.71-2.76-2.2-4.71-2.15a1.82,1.82,0,0,1-1-.57c-2.49-2.21-4.93-4.47-7.45-6.64a15.77,15.77,0,0,0-2.41-1.46,7.92,7.92,0,0,1-1.7-1,41,41,0,0,1-3.52-3.93c-1.23-1.6-2.78-1.35-4.44-1.17-2,.23-4,.44-6,.47a2.17,2.17,0,0,1-2.25-2.16c-.19-1.39-.46-2.78-.73-4.16a2.87,2.87,0,0,0-2.23-2.51c-2.6-.56-6.84,1.3-7.91,3.87a2.92,2.92,0,0,1-2.69,2,3.06,3.06,0,0,0-2.77,3,25.62,25.62,0,0,1-.18,3.05,7.25,7.25,0,0,1-1,3.08,13.48,13.48,0,0,0-2.43,4.29c-.4,1.32-1.78,2.39-2,3.7-.6,2.95-3.38,4.37-4.43,7.06-.83,2.15-2.82,3.84-4.29,5.73a1.54,1.54,0,0,1-.25.31,43.58,43.58,0,0,1-4.74,4.19c-1.44,1-3.33,1.19-4.69,2.51a2.72,2.72,0,0,1-2.2.59,22.66,22.66,0,0,0-7.06-.71,8.6,8.6,0,0,1-2.66-.67c-1-.29-2.07-.66-3.13-.89-2.38-.51-4.66-1.22-5.81-3.6a15.22,15.22,0,0,1-1.09-3.59,1.25,1.25,0,0,1,.72-1,4.67,4.67,0,0,1,3.77.76,5,5,0,0,0,2.79,1.23,48.41,48.41,0,0,0,6.44-.71c.33-.05.61-.48.91-.74a3,3,0,0,0-.92-.6c-2.08-.39-4.18-.67-6.25-1.11a3.55,3.55,0,0,1-2.15-1,7.27,7.27,0,0,1-1.1-6.38c.66-2.06,1.19-4.05,3-5.44.27-.21.37-.62.63-.84a5.94,5.94,0,0,1,1.86-1.32c1.85-.56,3.8-.79,5.62-1.4a3.43,3.43,0,0,1,3.58.55,13.85,13.85,0,0,0,2.06,1.64,5.94,5.94,0,0,1,3.27,4.67,2.73,2.73,0,0,1-.8,2.75,2.06,2.06,0,0,0-.76,1.16,5.33,5.33,0,0,1-2,3.9,1.08,1.08,0,0,0-.26.92c0,.16.49.33.76.34,1.5,0,3.9-2.19,4.14-3.68.12-.71.28-1.68.78-2a5.14,5.14,0,0,0,2.17-4c.17-1.39.25-3.11-.41-4.2a16.48,16.48,0,0,0-4.51-5.09c-1.72-1.16-3.77-1.89-5.34-3.36-.09-.07-.26-.05-.38-.1-1.4-.59-2.78-1.23-4.2-1.77a9.38,9.38,0,0,0-2.63-.69c-1.06-.09-2.07-.14-2.53-1.27a3.22,3.22,0,0,1,1.06-3.33,9.58,9.58,0,0,0,1.4-1.82c.57-.85,1.08-1.75,1.64-2.6.25-.37.6-.65.86-1,.85-1.15,1.6-2.39,2.54-3.47,1.31-1.5,2.69-2.94,4.14-4.3,2.89-2.74,5.83-5.42,8.79-8.09.29-.27.8-.29,1.21-.46,1.15-.46,2.64-.64,3.36-1.48a4.89,4.89,0,0,1,3.23-1.7,7.22,7.22,0,0,0,3.18-1.31,6.42,6.42,0,0,1,4.06-1.64,6.59,6.59,0,0,0,5.18-1.89,1.51,1.51,0,0,1,.89-.55,59.66,59.66,0,0,1,6.69.18c1,.11,1.94,1.11,3,1.32,2.24.46,4.56.54,6.79,1a26.53,26.53,0,0,1,4.16,1.5,17,17,0,0,0,3.71,1.42,6.63,6.63,0,0,1,3.81,1.58,5.92,5.92,0,0,0,2.44,1.07c2.06.46,4.36.2,5.83,2.22a1.4,1.4,0,0,0,.58.31c1.21.49,2.71.69,3.59,1.54a7.92,7.92,0,0,0,6,2.14,3.88,3.88,0,0,1,3,1.47c.4.42,1,.95,1.49.94a4.49,4.49,0,0,1,3.7,2,3.28,3.28,0,0,0,2.88,1.32,6,6,0,0,1,3,.32,44.24,44.24,0,0,1,6.09,4.07,26.4,26.4,0,0,1,3.2,3.68c1.38,1.64,2.76,3.27,4.08,4.95a2.44,2.44,0,0,1,.25,1.15,2.79,2.79,0,0,0,1.43,2.35,3.33,3.33,0,0,1,1.84,3.12,4.71,4.71,0,0,0,1,3c2.84,2.77,2.41,6,1.81,9.38-.08.43.29.93.45,1.4a15.27,15.27,0,0,0,1.57-.65c.12-.06.12-.41.14-.62.17-2.6.43-5.2.46-7.79a6.12,6.12,0,0,0-1-2.34c-.58-1.15-1.19-2.29-1.79-3.43a5.75,5.75,0,0,0-1-1.78,3.94,3.94,0,0,1-1.56-3.45,8.44,8.44,0,0,0-1.33-5.15,16.08,16.08,0,0,1-2.25-3.69c-.79-2.32-.33-4.25,2.38-5.14a5.55,5.55,0,0,0,1.57-.63,10.37,10.37,0,0,1,5.26-1.91,5.66,5.66,0,0,0,2.34-.72,12.16,12.16,0,0,1,5.49-2,5.92,5.92,0,0,0,4-1.69,4.89,4.89,0,0,1,3-1.1c2.64-.18,5.3-.15,8-.16a7.81,7.81,0,0,0,4.65-1.25,3,3,0,0,1,1.36-.47c2.67-.29,5.34-.64,8-.75,6.18-.25,12.36-.37,18.54-.55,1.28,0,2.57,0,3.85-.1a3.46,3.46,0,0,0,1.8-.31c1.83-1.37,4.12-.77,6.08-1.58a10.75,10.75,0,0,1,3.09-.63c3.51-.28,7-.41,10.54-.74a21.61,21.61,0,0,0,5.57-1.05,14.16,14.16,0,0,1,5.19-1.25c2.16,0,4.34.06,6.5-.1a7.61,7.61,0,0,0,3.89-1c1.94-1.47,4-1.56,6.24-1.66a15.94,15.94,0,0,0,3.61-.66c.44-.13,4.37-1.81,9-3.88a224.52,224.52,0,0,1,20.65,94.3C770.45,531.7,770.4,534.14,770.32,536.58ZM544.57,303.37c89.79,0,167.5,52.66,203.89,128.71-4.56,1.63-8.36,3.06-8.9,3.29a2.53,2.53,0,0,1-.76.21c-2.27.21-4.55.5-6.83.58a6.43,6.43,0,0,0-3.9,1.4,3.17,3.17,0,0,1-1.4.66c-1.65.22-3.31.37-5,.49-3.12.24-6.25.35-9.35.69a64.92,64.92,0,0,0-8.46,1.41,26.14,26.14,0,0,1-6.08,1c-3.37.06-6.81-.11-9.79,2a3.37,3.37,0,0,1-1.74.54c-3.38.21-6.77.44-10.16.51-3.94.09-7.88,0-11.82,0s-7.84.16-11.7,1.69c-2.52,1-5.54.81-8.34,1-2.15.14-4.19.35-5.81,2a1.93,1.93,0,0,1-1,.53,48.65,48.65,0,0,1-5.23.59A3.74,3.74,0,0,0,629,452a4.08,4.08,0,0,1-2.73,1.39c-2.14.37-4.37.45-6.28,1.81a6,6,0,0,1-3,1.11c-3.45.13-6.91.1-10.36,0a4.33,4.33,0,0,1-2.64-1,5.86,5.86,0,0,0-4.36-1.54,5.38,5.38,0,0,1-4.31-1.91,3.92,3.92,0,0,0-2.12-1.1,7.33,7.33,0,0,1-4-1.87,2.56,2.56,0,0,0-1.23-.69c-1.2-.28-2.42-.43-3.62-.7-.4-.08-.94-.26-1.1-.57-.88-1.64-2.29-1.94-4-2.08a6.32,6.32,0,0,1-3.5-1.26,7.18,7.18,0,0,0-4.67-1.8,4.54,4.54,0,0,1-2.39-.87,6.45,6.45,0,0,0-3.44-1.79,15.77,15.77,0,0,1-2.73-.4,18.73,18.73,0,0,1-2.66-1c-1-.45-2-1.34-3-1.39-3.88-.17-7.78-.09-11.68-.05a4.63,4.63,0,0,0-1.63.45c-1.94.8-3.68,2-5.91,2.18a5,5,0,0,0-3,1.15,6.74,6.74,0,0,1-4.46,2,5,5,0,0,0-2.07,1c-.68.43-1.23,1.09-1.93,1.48-1.13.63-2.45.91-3,2.32-.16.37-.85.54-1.31.77a7.42,7.42,0,0,0-2.2,1.09c-1.64,1.69-3.66,2.88-5.21,4.77-2.79,3.4-6.1,6.39-9.21,9.53-.91.91-1.83,1.76-1.9,3.21,0,.45-.51.88-.81,1.31-.79,1.11-1.58,2.21-2.38,3.3-.31.42-.71.78-1,1.23a8,8,0,0,0-1.24,2.33c-.36,1.75-1.34,2.83-3.1,2.76-2.86-.13-5.71-.56-8.56-.53-6.09.07-12.19.3-18.27.59-1.47.07-2.9.74-4.38.92-2.32.29-4.66.4-7,.56a2.06,2.06,0,0,1-1.28-.18c-2-1.57-4.34-1.32-6.63-1.37a10.47,10.47,0,0,1-6.19-1.87,7,7,0,0,0-3.31-1.09c-3.07-.28-6.16-.35-8.78-2.32a4,4,0,0,0-1.14-.34c-1.32-.42-3-.5-3.88-1.37-1.56-1.54-3.26-1.82-5.25-1.94a8.49,8.49,0,0,1-4.13-1,11.34,11.34,0,0,0-6-2,4.34,4.34,0,0,1-2.44-.8c-2-1.72-4.47-1.93-6.92-2.16-5.36-.5-10.86.68-16.11-1.4-2.11-.83-4.39-1.24-6.55-1.94-.63-.2-1.09-.95-1.71-1.11-2.22-.54-4.48-.89-6.7-1.39a14.4,14.4,0,0,1-2.56-.9c-1-.43-1.82-1.3-2.79-1.39-3.86-.36-7.75-.51-11.62-.71-1.33-.07-2.66-.1-4-.11a3.27,3.27,0,0,1-2.49-1.25,4.29,4.29,0,0,0-2.23-1.18c-1.16-.22-2.39,0-3.57-.18a6.39,6.39,0,0,1-2.86-.81,10.46,10.46,0,0,0-3.63-1.74C366.47,363.51,448.62,303.37,544.57,303.37ZM332.2,452.3c.64.1,1.28.2,1.91.32,2,.4,4,1.07,6,1.29a6.15,6.15,0,0,1,3.75,1.64,4.81,4.81,0,0,0,2.42,1c1.69.28,3.41.4,5.12.51,1.51.11,2.94.54,4.55.19,1.46-.31,3.28-.76,4.58.49,1.64,1.57,3.58,1.83,5.7,2a9.07,9.07,0,0,1,4.46,1.33,8.65,8.65,0,0,0,4.69,1.51,15.43,15.43,0,0,1,6.63,2c1.93,1.1,4.65,1,7,1.07,2.77.12,5.56-.2,8.33-.14a5.42,5.42,0,0,1,3.22.92,8.21,8.21,0,0,0,6,2,7.1,7.1,0,0,1,4.16,1.46,7.29,7.29,0,0,0,2.62,1.05c1.08.2,2.22,0,3.31.18a7.66,7.66,0,0,1,3.39.88,11.8,11.8,0,0,0,7,2.24,2.76,2.76,0,0,1,1.79.67c1.62,1.81,3.74,2.15,6,2.37a4,4,0,0,1,2,.65c1.72,1.36,3.71,1.67,5.8,2a24.89,24.89,0,0,1,4.71,1.53c1.07.38,2.09,1.19,3.15,1.22,5.13.15,10.26.14,15.39.08,1.7,0,3.39-.48,5.09-.52a5.56,5.56,0,0,0,3.56-1.16,3.17,3.17,0,0,1,1.81-.65c3.14-.06,6.28,0,9.42,0a3.37,3.37,0,0,1,1,.2c2.15.78,4.33,1.49,6.41,2.43a3,3,0,0,1,1.41,1.83,3.77,3.77,0,0,1-1.34,3.64,4.06,4.06,0,0,0-1.12,2,9.93,9.93,0,0,1-1.74,4.47,4.67,4.67,0,0,0-.58,2.61c0,1.18.25,2.37.3,3.56.07,1.5,0,3,1.15,4.23.13.14.13.41.19.62a4.12,4.12,0,0,0,2,3c.56.3.93.94,1.42,1.38.8.71,1.6,1.41,2.44,2.06a14.55,14.55,0,0,0,1.77,1.1,6.71,6.71,0,0,0,1.84.91A6.26,6.26,0,0,1,506,518.6,23.39,23.39,0,0,0,509.1,524c1.61,2.28,3.56,2.73,6,2.6a6.28,6.28,0,0,1,1.73,0c3.92.88,6.47-1.82,9.17-3.73,2.28-1.62,4.09-3.92,6.08-5.95a2.83,2.83,0,0,0,.63-1.26,6.09,6.09,0,0,1,1.92-3.78,3.11,3.11,0,0,0,1.16-2.94,4.91,4.91,0,0,1,1.77-4.61,3.66,3.66,0,0,0,.76-1.34c.76-1.71,1-3.63,2.46-5a3.74,3.74,0,0,0,.7-1.94c.29-1.57.58-3.11,1.86-4.25a2.55,2.55,0,0,0,.65-1c.75-1.9,3.93-4,6.06-4,1.67,0,3.35-.11,5-.12,2.38,0,4.81-.44,7.06.67a14.11,14.11,0,0,0,6.23,1.52,4.7,4.7,0,0,1,2.7,1.18,9.76,9.76,0,0,0,4.7,1.89A6.69,6.69,0,0,1,578.5,493a6,6,0,0,0,3.77,1.37,7.24,7.24,0,0,1,4.69,1.85,8.63,8.63,0,0,0,2.84,1.23c.79.26,1.68.21,2.44.5,2.13.81,4.22,1.71,6.3,2.64.79.35,1.48.91,2.25,1.32a12.61,12.61,0,0,0,2.68,1.21c1.56.4,3.23.45,4.51,1.64a5.41,5.41,0,0,0,3.83,1.52,4.41,4.41,0,0,1,3.34,1.56,5.28,5.28,0,0,0,1.93,1.07c1.21.46,2.46.68,3.32,1.91.45.65,1.5.9,2.31,1.27a11.17,11.17,0,0,1,2.39,1,9.07,9.07,0,0,0,5.44,2.09,3.45,3.45,0,0,1,3.09,1.71,1.67,1.67,0,0,0,1.18.69,6,6,0,0,1,3.72,1.84,14.65,14.65,0,0,0,2.08,1.37c.8.5,1.64.95,2.44,1.46,2.09,1.34,4.17,2.7,6.26,4.05a.55.55,0,0,0,.26.06,7.12,7.12,0,0,1,4.76,2.6,2,2,0,0,0,.72.56c2,.79,3.1,2.94,5.33,3.39.43.09.75.72,1.12,1.1l.8.81c2.28,2.32,4.62,4.58,6.78,7,.64.72.73,1.93,1.12,2.89a8.7,8.7,0,0,1,.46,5.07c-.49,2.4-.88,4.82-1.34,7.23a2.44,2.44,0,0,1-.46,1.21c-2.09,2.18-2.56,5.52-5.21,7.31a6.29,6.29,0,0,0-1.17,1.19c-.53.63-1,1.3-1.52,1.94a5.57,5.57,0,0,1-.93,1.06c-2.59,2-7,1-9.12-.63a8.76,8.76,0,0,0-4.54-1.89,3,3,0,0,1-1.66-.67c-1.17-1.09-2.2-2.34-3.36-3.45a31.05,31.05,0,0,0-4.33-3.87c-2.14-1.4-4.68-2.21-6.75-3.7l-5.95-4.27a6.84,6.84,0,0,0-3.93-1.6,3.45,3.45,0,0,1-2.77-1.29,3.75,3.75,0,0,0-2.7-1.42,3.77,3.77,0,0,1-3.31-2,3.37,3.37,0,0,0-1.05-1.11c-1.44-1.08-3-2-4.34-3.2-1.88-1.68-3.61-3.53-5.35-5.35a2.32,2.32,0,0,1-.76-1.47c.26-2.38-1-3.87-2.73-5.17a2.54,2.54,0,0,1-.64-.67c-.7-1.23-1.83-1.42-3.13-1.55a21.72,21.72,0,0,1-3.35-.93c-.32-.1-.72-.28-1-.18a34.91,34.91,0,0,0-3.2,1.55,1.51,1.51,0,0,0-.68.87,3.93,3.93,0,0,0,3,4.42,7.72,7.72,0,0,1,5.84,6.31,3,3,0,0,0,.55,1.56,22.41,22.41,0,0,0,2.39,2.58c.7.65,1.52,1.15,2.27,1.75s1.23,1.07,1.89,1.54a5.73,5.73,0,0,0,1.48.75,14.67,14.67,0,0,1,3,1,61,61,0,0,1,5.3,3.88,5.66,5.66,0,0,0,3.7,1.47,8.52,8.52,0,0,1,4,.56c2.84,1.63,6,2.73,8.56,4.79,1,.79,2.24,1.2,3.25,2,1.57,1.2,3,2.59,4.54,3.81s2.93,2.16,4.44,3.19a15.53,15.53,0,0,1,2.26,1.31c2,2,3.92,4.1,5.89,6.13s2.75,6.53,1.41,8.86a23,23,0,0,1-3.18,3.82c-.58.64-1.59,1-2,1.73-1.2,2.42-3.26,4-5,5.92a7.61,7.61,0,0,1-1.85,1.22c-1.36.76-2.76,1.47-4.12,2.23a3.48,3.48,0,0,1-3.48-.28,7.29,7.29,0,0,0-2.68-1.54,8.26,8.26,0,0,1-4.61-2.54c-.26-.26-.72-.31-1.07-.49-.92-.49-1.86-1-2.73-1.52-2.06-1.31-4.08-2.67-6.12-4a2,2,0,0,0-.51-.12,34.34,34.34,0,0,1-4.16-1.23,20.4,20.4,0,0,1-2.86-1.84c-.73-.47-1.47-.93-2.23-1.34s-1.71-.86-2.55-1.3A7.08,7.08,0,0,1,597.8,581a4.76,4.76,0,0,0-4-1.85c-4,0-8.06.14-12.08,0a24.48,24.48,0,0,1-5.61-1.22c-.9-.27-1.64-1.11-2.54-1.34a2.48,2.48,0,0,0-1.95.54c-.69.58-.25,1.32.34,1.8,2.18,1.78,4.38,3.52,6.57,5.27a1.07,1.07,0,0,0,.5.17c1.78.25,3.56.59,5.35.69,2.25.13,4.51,0,6.77.09a3.72,3.72,0,0,1,1.88.46,18.82,18.82,0,0,0,9.11,2.74,8.13,8.13,0,0,1,2.44,1.2,18.93,18.93,0,0,0,2.7,1.27c1.36.43,2.85.49,3.71,1.93a1.71,1.71,0,0,0,1.12.61c2.87.41,4.8,2.49,7,4,.54.36.74,1.3,1,2,.18.53.11,1.14.26,1.69a5,5,0,0,1-1.09,4.8c-1.06,1.3-2.31,2.44-3.48,3.65a5.81,5.81,0,0,1-4.49,1.85c-1.71,0-3.43.27-5.15.35a28.35,28.35,0,0,1-3.8-.05c-1.48-.14-3-.78-4.4-.58a6.55,6.55,0,0,1-5.8-1.72c-1.84-1.72-4.17-1.6-6.43-1.53-.36,0-.81.65-1,1.08-.08.21.34.71.64.94,1.67,1.3,3.4,2.51,5.05,3.83,3.48,2.78,3.41,6.76,2.55,10.36a12.83,12.83,0,0,1-5.71,7.56,16.71,16.71,0,0,1-6.34,2.09c-3.06.57-6,.7-9-.66-1.64-.76-3.31-1.44-5-2.17a5,5,0,0,1-2.64-4.78,41,41,0,0,0,.22-5c0-1.31,0-2.62.09-3.93.07-1.71.27-3.42.2-5.13a20.31,20.31,0,0,0-.72-3.48c-.55-2.48,1-3.37,3-3.26,2.92.16,5.83.31,8.74.54a6.65,6.65,0,0,1,1.77.68,21.09,21.09,0,0,0,3.26,1.3c.42.09,1-.59,1.52-.92a5.51,5.51,0,0,0-1.23-1.06,3.06,3.06,0,0,0-1.82-.24c-1.69.48-2.11-.6-2.67-1.78a2.59,2.59,0,0,0-1.45-1.3,34.73,34.73,0,0,1-7.06-2.38,11.48,11.48,0,0,0-9,.12c-.48.18-1.11.51-1.49.35a14.14,14.14,0,0,1-3.94-2,57.36,57.36,0,0,1-5.21-5.36,3.56,3.56,0,0,1-.83-2,5.16,5.16,0,0,0-1.62-3.5,4.84,4.84,0,0,1-1.41-1.71,6.83,6.83,0,0,0-4.06-4.16,24.48,24.48,0,0,1-3-1.86,7,7,0,0,0-1.09-.71c-3.8-1.54-7.71-1-11.58-.47-1.91.24-3.77.82-5.67,1.17a3.63,3.63,0,0,1-3.73-1.12,38.64,38.64,0,0,0-3.48-3.64c-1.73-1.56-3.54-3-5.36-4.46a2.7,2.7,0,0,0-1.25-.38,9.08,9.08,0,0,1-5-2.07,4.61,4.61,0,0,0-2.65-.92,31.4,31.4,0,0,0-5.57,0,8.45,8.45,0,0,0-3,1.2,17.22,17.22,0,0,0-2,1.58,15,15,0,0,0-2,1.51c-1.92,2.14-3.65,4.47-5.68,6.49a42.65,42.65,0,0,0-5.6,7.32c-.85,1.34-1.8,2.62-2.75,3.89a1.75,1.75,0,0,1-2.4.42,7.5,7.5,0,0,1-2.13-1.75,63.81,63.81,0,0,0-6.45-6.91,9.67,9.67,0,0,0-6.25-2.59c-2.89-.23-5.76-.71-8.64-1a4.23,4.23,0,0,0-1.81.16c-1.07.38-2.08.91-3.13,1.36-.48.2-1.18.21-1.44.56-1.46,1.91-3.83,2.26-5.71,3.42-1.49.91-2.19.39-2.18-1.39,0-1.1.07-2.21.08-3.31a5.62,5.62,0,0,0-3.49-4.83,12.56,12.56,0,0,1-4.05-1.75,5.91,5.91,0,0,0-4.48-1.49,32.91,32.91,0,0,1-3.58.08c-2.63-.14-5.28-.21-7.88-.61-1.39-.21-2.64-1.29-4-1.55a48.77,48.77,0,0,0-7.62-.81,19.12,19.12,0,0,1-7.74-1.42,21.94,21.94,0,0,0-9.39-1.78c-2.14,0-4.28.38-6.43.42q-6.31.11-12.64,0c-2.19,0-4.38-.48-6.57-.41a61.26,61.26,0,0,1-6.91,0c-2.07-.17-4.17,0-6.24-.14a14.07,14.07,0,0,1-2.55-.52,9.41,9.41,0,0,0-2.75-.66c-1.43.11-2.82.74-4.25.89a10.48,10.48,0,0,1-4.11-.16c-1.82-.59-3.51-1.6-5.44-1.72a227.59,227.59,0,0,1-2.37-32.7A224.91,224.91,0,0,1,332.2,452.3ZM559.09,622.5a6.5,6.5,0,0,1-.85,3,2.59,2.59,0,0,0-.06,2.85,2.36,2.36,0,0,1-.52,3.31,14.89,14.89,0,0,1-1.6,1.58,30.73,30.73,0,0,1-2.74,1.56l-.19-.36c-1.73.05-3.33.33-4.28,2.07a1.61,1.61,0,0,1-1.16.69c-2.83.15-5.46.67-7.65,2.74-.92.88-2.08.24-3-.47-2.37-1.82-4.76-3.61-7.1-5.45a13.15,13.15,0,0,1-1.89-1.84,2.5,2.5,0,0,1-.26-3c1.29-2,2.76-4,4.16-5.95a2.35,2.35,0,0,1,2.56-.94,17.54,17.54,0,0,1,6.1,2.05,12.21,12.21,0,0,0,7.29,1.48,3.52,3.52,0,0,0,2-.85c2.62-2.4,5-5,5.83-8.62.47-2.11,1.09-2.48,2.74-2.3s2.21,1,1.44,2.3C558.72,618.35,559,620.38,559.09,622.5ZM458,596.08c-1.41-.64-2.79-1.35-4.24-1.87a6.34,6.34,0,0,0-2.46-.23c-.3,0-.71.51-.8.86s.35.61.61.87a1.75,1.75,0,0,0,.6.28,3.51,3.51,0,0,1,1.91,5,2.75,2.75,0,0,1-2,1.09c-3,.07-6-.07-9-.08a3.36,3.36,0,0,1-3.17-1.78,7.27,7.27,0,0,0-1.14-1.29c-1.82-1.84-1.53-4,.7-5.25,1.52-.83,2.92-1.6,4.82-.77a9.42,9.42,0,0,0,3.62.24,1.27,1.27,0,0,0,.9-.59c.1-.19-.12-.71-.35-.88-.6-.45-1.3-.76-1.92-1.17a8,8,0,0,1-1.43-1.15,3.7,3.7,0,0,0-4.86-.9c-.39.2-.78.42-1.18.61-1.11.51-2.55.24-3-.54a2.36,2.36,0,0,1,1-3.38c3.73-1.76,7.29-4.19,11.32-3.11,1.51,0,2.58,0,3.64,0a5.88,5.88,0,0,1,4.79,2.09,30.58,30.58,0,0,0,4.2,3.84,6.3,6.3,0,0,1,2.41,4.79,4.83,4.83,0,0,0,.45,1.91,4.88,4.88,0,0,1,.34,4.8,30.23,30.23,0,0,1-2.85,5.42c-1.44,2-3.13,3.73-4.56,5.69-1.18,1.6-2.31,3.07-4.37,3.62a11.14,11.14,0,0,0-2.67,1.43c-1.68,1-2.46.84-3.55-.71a1.58,1.58,0,0,0-2.75-.13c-2.12,2.33-3.89,2.68-6.77,1.41a55.34,55.34,0,0,0-5.59-2.32c-3.38-1-6.17-6.13-5.62-9.2a9.84,9.84,0,0,1,.9-2,32.69,32.69,0,0,0,1.54-3.74,8.29,8.29,0,0,1,3.07-4.8,2.76,2.76,0,0,1,2.15-.48c.41.14.7,1.23.7,1.89a9.73,9.73,0,0,0,5.11,8.91,5.44,5.44,0,0,0,2.74.82c4.11-.07,8.21-.29,12.32-.46a4.22,4.22,0,0,0,3.65-2.06,28.58,28.58,0,0,0,2-4.12A1.87,1.87,0,0,0,458,596.08Zm2.35,13.67a.88.88,0,0,1,.35-.54c3.62-3,5.67-7.25,8.25-11.07a40.2,40.2,0,0,1,3.57-4.06c2.27-2.53,4.56-5,6.79-7.58.39-.44.47-1.14.82-1.64a55,55,0,0,1,3.91-5.28c1.85-2.06,3.9-4,5.94-5.84a3.79,3.79,0,0,1,2.09-1c3.44-.23,6.91-.33,10.2,1a10.85,10.85,0,0,1,2.64,1.48c2.3,1.77,4.58,3.57,6.76,5.49a4.45,4.45,0,0,1,1.06,2.2,1.9,1.9,0,0,1-.88,2.41,2.55,2.55,0,0,1-3-.92c-1.13-2.12-3.22-3.1-5-4.42a6.59,6.59,0,0,0-4.24-1.18c-1.61,0-3.25-.54-4.83-.4a12.91,12.91,0,0,0-5.42,1.35,24.23,24.23,0,0,0-8.23,8.83,9.91,9.91,0,0,0-1,6.31.59.59,0,0,0,0,.13c.42,1.62,4.29,4.9,6,4.95a4.19,4.19,0,0,1,2.9,1,4.24,4.24,0,0,0,2.27,1c2.37.25,4.76.36,7.14.4a2.41,2.41,0,0,0,1.42-.81c2.18-2.12,4.32-4.27,6.45-6.43.93-.94,1.81-1.93,2.73-2.87a1.76,1.76,0,0,1,.76-.52c.58-.15,1.19-.2,1.79-.3a5.27,5.27,0,0,1-.31,2c-1.37,2.15-2.8,4.27-4.36,6.27-1.71,2.2-3.6,4.24-5.37,6.38a24.79,24.79,0,0,0-1.48,2.15,6.45,6.45,0,0,1-.31.58c-2,2.56-3.94,5.14-6,7.66a32,32,0,0,1-3.8,4.24c-3.33,2.89-6.88,5.44-11.36,5-4.8,0-9.11-.66-13-3-2.52-1.51-4.63-3.47-5.17-6.39A35.22,35.22,0,0,1,460.35,609.75ZM506.44,588c-.17,2.08-.35,4-2.33,5.47-1.68,1.24-2.78,3.23-4.4,4.57a8.36,8.36,0,0,1-3.72,1.38c-1.73.33-3.52.33-5.27.52a2.31,2.31,0,0,1-2.49-1.28,24.73,24.73,0,0,0-3-4c-1.55-1.64-1.75-2.77-.6-4.7a12,12,0,0,1,4.06-4.61,1.07,1.07,0,0,0,.46-.46c1.25-3.09,4.05-2.78,6.58-3.08,1.3.12,2.57.29,3.85.33,1.61.06,3.06.27,3.93,1.9a2.71,2.71,0,0,0,1.24.94A2.74,2.74,0,0,1,506.44,588Zm-9.56,37.74a2.33,2.33,0,0,1,.43-.67c1.64-1.7,1.77-3.81,1.91-6a13.48,13.48,0,0,1,3.13-7.17c1.36-1.79,3-3.38,4.39-5.13,1.73-2.12,3.36-4.32,5.05-6.47,1.41-1.82,2-1.65,3.31.15a30.61,30.61,0,0,0,4.53,4.72,5.11,5.11,0,0,0,2.52.61,4.73,4.73,0,0,1,3.16,1.42c1.26,1.33,2.92,1.07,4.6.74a13.43,13.43,0,0,1,4-.17c.58.07,1.07.9,1.73,1.51-.59.84-1,1.4-1.38,2-1.48,2-3,4-4.46,6a12.84,12.84,0,0,0-1.2,1.89c-.66,1.32-1.25,2.68-1.85,4a6.44,6.44,0,0,1-.67,1.56c-1.83,2.09-3.69,4.17-5.63,6.16a5.57,5.57,0,0,1-2,1,31,31,0,0,0-3.3,1.23c-1.56.84-2.15,1-3.3-.36s-2.64-1.31-4.16-1.27c-.4,0-.8.09-1.19.11a2.81,2.81,0,0,1-3.22-2.46c-.44-1.92-.7-2-2.5-1.15a5.48,5.48,0,0,1-2.24.64C496.69,628.59,496.06,627.46,496.88,625.75ZM537,614.69a13.7,13.7,0,0,0,1.33-2.72,14.14,14.14,0,0,1,4.09-5.91,3.9,3.9,0,0,1,2.1-1c3.38-.33,6.11,1.21,8.35,3.51a4.23,4.23,0,0,1,.88,3.16c-.46,3-1.11,6-3.35,8.46-1.56,1.7-3.17,2.78-5.47,2.48a3.12,3.12,0,0,1-3.65-1.45,6.28,6.28,0,0,0-2.64-1.64C536.39,618.6,535.78,616.83,537,614.69Zm-4.49-10.94a6,6,0,0,0-1.8.27,23.55,23.55,0,0,1-3.47.66,4.19,4.19,0,0,1-2-.84,22.1,22.1,0,0,0-2.78-1.82c-1.38-.56-2.6-1.22-3-2.69a2.64,2.64,0,0,1,.11-2,39.6,39.6,0,0,1,3.26-4.28c1-1.19,2.21-2.17,3.49-2.16a30.51,30.51,0,0,1,3.72.43,4.55,4.55,0,0,1,1.87,1.11,3.65,3.65,0,0,0,4,1.09,1.88,1.88,0,0,1,2.48.86,6.35,6.35,0,0,0,1.42,1.36c1.79,1.48,2,3.61.31,5.16A9.32,9.32,0,0,1,532.55,603.75ZM538.86,592c-.17,0-.59-.16-1-.3-1-.34-2.09-.65-3.09-1.06a11.67,11.67,0,0,1-2.26-1.21,10.52,10.52,0,0,0-7.91-2.19c-1,.17-1.87,1.35-2.73,2.15-.6.56-1,1.37-1.61,1.9a1.48,1.48,0,0,1-2.5-.57,3.12,3.12,0,0,1,.89-4.14c.94-.78,1.8-1.66,2.73-2.47a5,5,0,0,1,1.29-.85,18.35,18.35,0,0,1,10.81-.93c3.41.7,6.79,2.15,8.22,5.91C542.44,590.19,541.17,592,538.86,592Zm5.71,163.1c-111.28,0-204-80.9-222.51-187a22.53,22.53,0,0,1,2.58.62,19.64,19.64,0,0,0,5.76,1.09c2.37,0,4.73.53,7.09.56,8.5.11,17,.09,25.5.16.91,0,1.81.36,2.72.39a22.62,22.62,0,0,0,3.49-.19c1.92-.24,3.83-.63,5.71.26a14.4,14.4,0,0,0,3,1.28,66.51,66.51,0,0,0,7.28,1.19,36.94,36.94,0,0,0,5.15-.06,30,30,0,0,1,3.41-.16c2.17.2,4.34.54,6.5.88a11.53,11.53,0,0,1,2.53.68A14.87,14.87,0,0,0,409,576.3c1.55,0,3.1,0,4.65,0a12.15,12.15,0,0,1,6.76,1.93c1.93,1.16,3.9,2.43,3.34,5.1-.46,2.16.29,4,1.07,5.84,1.32,3.07.38,5.65-1.48,7.94a7.51,7.51,0,0,0-1.64,4.6,14.43,14.43,0,0,1-1.45,6.23,2,2,0,0,0,.39,2.52c1.25,1.52,2.42,3.09,3.69,4.59a15.29,15.29,0,0,0,2.14,2c.85.68,1.79,1.25,2.7,1.86.36.24.72.48,1.1.7,1.17.66,2.33,1.36,3.54,2a7.07,7.07,0,0,0,2.85,1.13c4.46,0,8.93-.3,13.39-.39a5.11,5.11,0,0,1,2.89.51c1.87,1.3,3.49,2.95,5.31,4.33a11.62,11.62,0,0,0,2.75,1.38,25.7,25.7,0,0,1,3.41,1.27c2.24,1.32,4.37,2.83,6.55,4.26a.57.57,0,0,0,.26.08,51.19,51.19,0,0,0,6.28.55,6.74,6.74,0,0,0,3.67-1.2,7.87,7.87,0,0,1,5.37-1.74,5.19,5.19,0,0,1,2.24.88c1.12.69,2.16,1.5,3.22,2.29.45.34.83.8,1.3,1.1a6.8,6.8,0,0,0,2.31,1.28,11.28,11.28,0,0,1,4.85,1.54,5,5,0,0,0,2,.89c2.4.32,4.81.49,7.22.75,1.17.13,2.33.34,3.5.5,1.33.19,2.88.87,4,.43,2.23-.91,4.47-.83,6.74-1a4.68,4.68,0,0,1,3.93,1.49,3.14,3.14,0,0,0,1.77,1c2.47.23,4.9.42,7.06,1.88a2.64,2.64,0,0,0,1.66.23c3.44-.48,6.88-1,10.3-1.55a10.34,10.34,0,0,0,3-1c1.34-.68,2.59-1.58,3.88-2.38s2.32-1.79,3.62-2.1c4.63-1.12,9.25-1.32,13.8.73a17,17,0,0,0,5.95,1.53,9.36,9.36,0,0,0,6.93-2,7.37,7.37,0,0,1,2.55-.94,8.49,8.49,0,0,0,1.24-.38,22.43,22.43,0,0,0,6.89-5.74A3.21,3.21,0,0,0,597,630a35.11,35.11,0,0,1,.83-3.85c.53-1.51,1.37-2.9,2-4.37a3.11,3.11,0,0,1,3.37-2,40.13,40.13,0,0,0,5.7-.18,8.25,8.25,0,0,0,2.57-1.1,10.64,10.64,0,0,1,2.14-1.2,6.21,6.21,0,0,0,3.5-2,3.77,3.77,0,0,1,3-1.32,2.5,2.5,0,0,0,1.48-.38c2.32-2,4.58-4.07,6.84-6.13,1.56-1.43,3.09-2.91,4.67-4.33a2.74,2.74,0,0,1,1.1-.41c1.81-.49,3.89-.36,5.17-2.17.13-.18.45-.25.69-.35a17,17,0,0,0,3.11-1.36,17.6,17.6,0,0,0,2.82-2.71c1.9-2,3.79-4.12,5.61-6.25a7.54,7.54,0,0,0,.84-1.89,7.17,7.17,0,0,1,1-2.2,8.82,8.82,0,0,0,2.13-4.44,3.54,3.54,0,0,1,1.31-1.83,7,7,0,0,1,2.08-.8,16.17,16.17,0,0,0,7.47-4.74c1.11-1.29,2.31-2.5,3.41-3.79.94-1.1,1.81-2.25,2.68-3.4a15.22,15.22,0,0,1,1.14-1.73c1.76-1.7,3.59-3.31,5.37-5a4.38,4.38,0,0,1,3-1.54,2.21,2.21,0,0,0,1.61-.78c1.13-1.75,2.87-2,4.68-2.28a2.76,2.76,0,0,0,1.69-.88,4.47,4.47,0,0,1,3.37-1.74,8.59,8.59,0,0,0,3.33-1.08,10.88,10.88,0,0,1,5.61-2.07,2.64,2.64,0,0,0,1.34-.47,12.42,12.42,0,0,1,6.54-2.2,10.16,10.16,0,0,0,4.49-1.35,9.34,9.34,0,0,1,4.92-1.53c8.72,0,17.44,0,26.16,0a14.5,14.5,0,0,0,6.62-1.67,12.56,12.56,0,0,1,6.08-1.42c2.63.08,5.26.25,7.89.42,1.24.08,2.48.18,3.72.28C763.56,660.53,664.91,755.12,544.57,755.12Z"></path><style data-made-with="vivus-instant">.RFWroVUB_0{stroke-dasharray:87 89;stroke-dashoffset:88;animation:RFWroVUB_draw_0 13600ms ease-out 0ms infinite,RFWroVUB_fade 13600ms linear 0ms infinite;}.RFWroVUB_1{stroke-dasharray:155 157;stroke-dashoffset:156;animation:RFWroVUB_draw_1 13600ms ease-out 0ms infinite,RFWroVUB_fade 13600ms linear 0ms infinite;}.RFWroVUB_2{stroke-dasharray:97 99;stroke-dashoffset:98;animation:RFWroVUB_draw_2 13600ms ease-out 0ms infinite,RFWroVUB_fade 13600ms linear 0ms infinite;}.RFWroVUB_3{stroke-dasharray:97 99;stroke-dashoffset:98;animation:RFWroVUB_draw_3 13600ms ease-out 0ms infinite,RFWroVUB_fade 13600ms linear 0ms infinite;}.RFWroVUB_4{stroke-dasharray:2274 2276;stroke-dashoffset:2275;animation:RFWroVUB_draw_4 13600ms ease-out 0ms infinite,RFWroVUB_fade 13600ms linear 0ms infinite;}.RFWroVUB_5{stroke-dasharray:202 204;stroke-dashoffset:203;animation:RFWroVUB_draw_5 13600ms ease-out 0ms infinite,RFWroVUB_fade 13600ms linear 0ms infinite;}.RFWroVUB_6{stroke-dasharray:253 255;stroke-dashoffset:254;animation:RFWroVUB_draw_6 13600ms ease-out 0ms infinite,RFWroVUB_fade 13600ms linear 0ms infinite;}.RFWroVUB_7{stroke-dasharray:129 131;stroke-dashoffset:130;animation:RFWroVUB_draw_7 13600ms ease-out 0ms infinite,RFWroVUB_fade 13600ms linear 0ms infinite;}.RFWroVUB_8{stroke-dasharray:309 311;stroke-dashoffset:310;animation:RFWroVUB_draw_8 13600ms ease-out 0ms infinite,RFWroVUB_fade 13600ms linear 0ms infinite;}.RFWroVUB_9{stroke-dasharray:210 212;stroke-dashoffset:211;animation:RFWroVUB_draw_9 13600ms ease-out 0ms infinite,RFWroVUB_fade 13600ms linear 0ms infinite;}.RFWroVUB_10{stroke-dasharray:184 186;stroke-dashoffset:185;animation:RFWroVUB_draw_10 13600ms ease-out 0ms infinite,RFWroVUB_fade 13600ms linear 0ms infinite;}.RFWroVUB_11{stroke-dasharray:253 255;stroke-dashoffset:254;animation:RFWroVUB_draw_11 13600ms ease-out 0ms infinite,RFWroVUB_fade 13600ms linear 0ms infinite;}.RFWroVUB_12{stroke-dasharray:213 215;stroke-dashoffset:214;animation:RFWroVUB_draw_12 13600ms ease-out 0ms infinite,RFWroVUB_fade 13600ms linear 0ms infinite;}.RFWroVUB_13{stroke-dasharray:382 384;stroke-dashoffset:383;animation:RFWroVUB_draw_13 13600ms ease-out 0ms infinite,RFWroVUB_fade 13600ms linear 0ms infinite;}.RFWroVUB_14{stroke-dasharray:210 212;stroke-dashoffset:211;animation:RFWroVUB_draw_14 13600ms ease-out 0ms infinite,RFWroVUB_fade 13600ms linear 0ms infinite;}.RFWroVUB_15{stroke-dasharray:321 323;stroke-dashoffset:322;animation:RFWroVUB_draw_15 13600ms ease-out 0ms infinite,RFWroVUB_fade 13600ms linear 0ms infinite;}.RFWroVUB_16{stroke-dasharray:202 204;stroke-dashoffset:203;animation:RFWroVUB_draw_16 13600ms ease-out 0ms infinite,RFWroVUB_fade 13600ms linear 0ms infinite;}.RFWroVUB_17{stroke-dasharray:2274 2276;stroke-dashoffset:2275;animation:RFWroVUB_draw_17 13600ms ease-out 0ms infinite,RFWroVUB_fade 13600ms linear 0ms infinite;}.RFWroVUB_18{stroke-dasharray:202 204;stroke-dashoffset:203;animation:RFWroVUB_draw_18 13600ms ease-out 0ms infinite,RFWroVUB_fade 13600ms linear 0ms infinite;}.RFWroVUB_19{stroke-dasharray:148 150;stroke-dashoffset:149;animation:RFWroVUB_draw_19 13600ms ease-out 0ms infinite,RFWroVUB_fade 13600ms linear 0ms infinite;}.RFWroVUB_20{stroke-dasharray:148 150;stroke-dashoffset:149;animation:RFWroVUB_draw_20 13600ms ease-out 0ms infinite,RFWroVUB_fade 13600ms linear 0ms infinite;}.RFWroVUB_21{stroke-dasharray:148 150;stroke-dashoffset:149;animation:RFWroVUB_draw_21 13600ms ease-out 0ms infinite,RFWroVUB_fade 13600ms linear 0ms infinite;}.RFWroVUB_22{stroke-dasharray:243 245;stroke-dashoffset:244;animation:RFWroVUB_draw_22 13600ms ease-out 0ms infinite,RFWroVUB_fade 13600ms linear 0ms infinite;}.RFWroVUB_23{stroke-dasharray:568 570;stroke-dashoffset:569;animation:RFWroVUB_draw_23 13600ms ease-out 0ms infinite,RFWroVUB_fade 13600ms linear 0ms infinite;}.RFWroVUB_24{stroke-dasharray:147 149;stroke-dashoffset:148;animation:RFWroVUB_draw_24 13600ms ease-out 0ms infinite,RFWroVUB_fade 13600ms linear 0ms infinite;}.RFWroVUB_25{stroke-dasharray:325 327;stroke-dashoffset:326;animation:RFWroVUB_draw_25 13600ms ease-out 0ms infinite,RFWroVUB_fade 13600ms linear 0ms infinite;}.RFWroVUB_26{stroke-dasharray:147 149;stroke-dashoffset:148;animation:RFWroVUB_draw_26 13600ms ease-out 0ms infinite,RFWroVUB_fade 13600ms linear 0ms infinite;}.RFWroVUB_27{stroke-dasharray:202 204;stroke-dashoffset:203;animation:RFWroVUB_draw_27 13600ms ease-out 0ms infinite,RFWroVUB_fade 13600ms linear 0ms infinite;}.RFWroVUB_28{stroke-dasharray:99 101;stroke-dashoffset:100;animation:RFWroVUB_draw_28 13600ms ease-out 0ms infinite,RFWroVUB_fade 13600ms linear 0ms infinite;}.RFWroVUB_29{stroke-dasharray:176 178;stroke-dashoffset:177;animation:RFWroVUB_draw_29 13600ms ease-out 0ms infinite,RFWroVUB_fade 13600ms linear 0ms infinite;}.RFWroVUB_30{stroke-dasharray:303 305;stroke-dashoffset:304;animation:RFWroVUB_draw_30 13600ms ease-out 0ms infinite,RFWroVUB_fade 13600ms linear 0ms infinite;}.RFWroVUB_31{stroke-dasharray:303 305;stroke-dashoffset:304;animation:RFWroVUB_draw_31 13600ms ease-out 0ms infinite,RFWroVUB_fade 13600ms linear 0ms infinite;}.RFWroVUB_32{stroke-dasharray:301 303;stroke-dashoffset:302;animation:RFWroVUB_draw_32 13600ms ease-out 0ms infinite,RFWroVUB_fade 13600ms linear 0ms infinite;}.RFWroVUB_33{stroke-dasharray:50 52;stroke-dashoffset:51;animation:RFWroVUB_draw_33 13600ms ease-out 0ms infinite,RFWroVUB_fade 13600ms linear 0ms infinite;}.RFWroVUB_34{stroke-dasharray:33 35;stroke-dashoffset:34;animation:RFWroVUB_draw_34 13600ms ease-out 0ms infinite,RFWroVUB_fade 13600ms linear 0ms infinite;}.RFWroVUB_35{stroke-dasharray:16 18;stroke-dashoffset:17;animation:RFWroVUB_draw_35 13600ms ease-out 0ms infinite,RFWroVUB_fade 13600ms linear 0ms infinite;}.RFWroVUB_36{stroke-dasharray:8 10;stroke-dashoffset:9;animation:RFWroVUB_draw_36 13600ms ease-out 0ms infinite,RFWroVUB_fade 13600ms linear 0ms infinite;}.RFWroVUB_37{stroke-dasharray:14 16;stroke-dashoffset:15;animation:RFWroVUB_draw_37 13600ms ease-out 0ms infinite,RFWroVUB_fade 13600ms linear 0ms infinite;}.RFWroVUB_38{stroke-dasharray:7106 7108;stroke-dashoffset:7107;animation:RFWroVUB_draw_38 13600ms ease-out 0ms infinite,RFWroVUB_fade 13600ms linear 0ms infinite;}@keyframes RFWroVUB_draw{100%{stroke-dashoffset:0;}}@keyframes RFWroVUB_fade{0%{stroke-opacity:1;}94.11764705882354%{stroke-opacity:1;}100%{stroke-opacity:0;}}@keyframes RFWroVUB_draw_0{5.88235294117647%{stroke-dashoffset: 88}64.70588235294117%{ stroke-dashoffset: 0;}100%{ stroke-dashoffset: 0;}}@keyframes RFWroVUB_draw_1{5.88235294117647%{stroke-dashoffset: 156}64.70588235294117%{ stroke-dashoffset: 0;}100%{ stroke-dashoffset: 0;}}@keyframes RFWroVUB_draw_2{5.88235294117647%{stroke-dashoffset: 98}64.70588235294117%{ stroke-dashoffset: 0;}100%{ stroke-dashoffset: 0;}}@keyframes RFWroVUB_draw_3{5.88235294117647%{stroke-dashoffset: 98}64.70588235294117%{ stroke-dashoffset: 0;}100%{ stroke-dashoffset: 0;}}@keyframes RFWroVUB_draw_4{5.88235294117647%{stroke-dashoffset: 2275}64.70588235294117%{ stroke-dashoffset: 0;}100%{ stroke-dashoffset: 0;}}@keyframes RFWroVUB_draw_5{5.88235294117647%{stroke-dashoffset: 203}64.70588235294117%{ stroke-dashoffset: 0;}100%{ stroke-dashoffset: 0;}}@keyframes RFWroVUB_draw_6{5.88235294117647%{stroke-dashoffset: 254}64.70588235294117%{ stroke-dashoffset: 0;}100%{ stroke-dashoffset: 0;}}@keyframes RFWroVUB_draw_7{5.88235294117647%{stroke-dashoffset: 130}64.70588235294117%{ stroke-dashoffset: 0;}100%{ stroke-dashoffset: 0;}}@keyframes RFWroVUB_draw_8{5.88235294117647%{stroke-dashoffset: 310}64.70588235294117%{ stroke-dashoffset: 0;}100%{ stroke-dashoffset: 0;}}@keyframes RFWroVUB_draw_9{5.88235294117647%{stroke-dashoffset: 211}64.70588235294117%{ stroke-dashoffset: 0;}100%{ stroke-dashoffset: 0;}}@keyframes RFWroVUB_draw_10{5.88235294117647%{stroke-dashoffset: 185}64.70588235294117%{ stroke-dashoffset: 0;}100%{ stroke-dashoffset: 0;}}@keyframes RFWroVUB_draw_11{5.88235294117647%{stroke-dashoffset: 254}64.70588235294117%{ stroke-dashoffset: 0;}100%{ stroke-dashoffset: 0;}}@keyframes RFWroVUB_draw_12{5.88235294117647%{stroke-dashoffset: 214}64.70588235294117%{ stroke-dashoffset: 0;}100%{ stroke-dashoffset: 0;}}@keyframes RFWroVUB_draw_13{5.88235294117647%{stroke-dashoffset: 383}64.70588235294117%{ stroke-dashoffset: 0;}100%{ stroke-dashoffset: 0;}}@keyframes RFWroVUB_draw_14{5.88235294117647%{stroke-dashoffset: 211}64.70588235294117%{ stroke-dashoffset: 0;}100%{ stroke-dashoffset: 0;}}@keyframes RFWroVUB_draw_15{5.88235294117647%{stroke-dashoffset: 322}64.70588235294117%{ stroke-dashoffset: 0;}100%{ stroke-dashoffset: 0;}}@keyframes RFWroVUB_draw_16{5.88235294117647%{stroke-dashoffset: 203}64.70588235294117%{ stroke-dashoffset: 0;}100%{ stroke-dashoffset: 0;}}@keyframes RFWroVUB_draw_17{5.88235294117647%{stroke-dashoffset: 2275}64.70588235294117%{ stroke-dashoffset: 0;}100%{ stroke-dashoffset: 0;}}@keyframes RFWroVUB_draw_18{5.88235294117647%{stroke-dashoffset: 203}64.70588235294117%{ stroke-dashoffset: 0;}100%{ stroke-dashoffset: 0;}}@keyframes RFWroVUB_draw_19{5.88235294117647%{stroke-dashoffset: 149}64.70588235294117%{ stroke-dashoffset: 0;}100%{ stroke-dashoffset: 0;}}@keyframes RFWroVUB_draw_20{5.88235294117647%{stroke-dashoffset: 149}64.70588235294117%{ stroke-dashoffset: 0;}100%{ stroke-dashoffset: 0;}}@keyframes RFWroVUB_draw_21{5.88235294117647%{stroke-dashoffset: 149}64.70588235294117%{ stroke-dashoffset: 0;}100%{ stroke-dashoffset: 0;}}@keyframes RFWroVUB_draw_22{5.88235294117647%{stroke-dashoffset: 244}64.70588235294117%{ stroke-dashoffset: 0;}100%{ stroke-dashoffset: 0;}}@keyframes RFWroVUB_draw_23{5.88235294117647%{stroke-dashoffset: 569}64.70588235294117%{ stroke-dashoffset: 0;}100%{ stroke-dashoffset: 0;}}@keyframes RFWroVUB_draw_24{5.88235294117647%{stroke-dashoffset: 148}64.70588235294117%{ stroke-dashoffset: 0;}100%{ stroke-dashoffset: 0;}}@keyframes RFWroVUB_draw_25{5.88235294117647%{stroke-dashoffset: 326}64.70588235294117%{ stroke-dashoffset: 0;}100%{ stroke-dashoffset: 0;}}@keyframes RFWroVUB_draw_26{5.88235294117647%{stroke-dashoffset: 148}64.70588235294117%{ stroke-dashoffset: 0;}100%{ stroke-dashoffset: 0;}}@keyframes RFWroVUB_draw_27{5.88235294117647%{stroke-dashoffset: 203}64.70588235294117%{ stroke-dashoffset: 0;}100%{ stroke-dashoffset: 0;}}@keyframes RFWroVUB_draw_28{5.88235294117647%{stroke-dashoffset: 100}64.70588235294117%{ stroke-dashoffset: 0;}100%{ stroke-dashoffset: 0;}}@keyframes RFWroVUB_draw_29{5.88235294117647%{stroke-dashoffset: 177}64.70588235294117%{ stroke-dashoffset: 0;}100%{ stroke-dashoffset: 0;}}@keyframes RFWroVUB_draw_30{5.88235294117647%{stroke-dashoffset: 304}64.70588235294117%{ stroke-dashoffset: 0;}100%{ stroke-dashoffset: 0;}}@keyframes RFWroVUB_draw_31{5.88235294117647%{stroke-dashoffset: 304}64.70588235294117%{ stroke-dashoffset: 0;}100%{ stroke-dashoffset: 0;}}@keyframes RFWroVUB_draw_32{5.88235294117647%{stroke-dashoffset: 302}64.70588235294117%{ stroke-dashoffset: 0;}100%{ stroke-dashoffset: 0;}}@keyframes RFWroVUB_draw_33{5.88235294117647%{stroke-dashoffset: 51}64.70588235294117%{ stroke-dashoffset: 0;}100%{ stroke-dashoffset: 0;}}@keyframes RFWroVUB_draw_34{5.88235294117647%{stroke-dashoffset: 34}64.70588235294117%{ stroke-dashoffset: 0;}100%{ stroke-dashoffset: 0;}}@keyframes RFWroVUB_draw_35{5.88235294117647%{stroke-dashoffset: 17}64.70588235294117%{ stroke-dashoffset: 0;}100%{ stroke-dashoffset: 0;}}@keyframes RFWroVUB_draw_36{5.88235294117647%{stroke-dashoffset: 9}64.70588235294117%{ stroke-dashoffset: 0;}100%{ stroke-dashoffset: 0;}}@keyframes RFWroVUB_draw_37{5.88235294117647%{stroke-dashoffset: 15}64.70588235294117%{ stroke-dashoffset: 0;}100%{ stroke-dashoffset: 0;}}@keyframes RFWroVUB_draw_38{5.88235294117647%{stroke-dashoffset: 7107}64.70588235294117%{ stroke-dashoffset: 0;}100%{ stroke-dashoffset: 0;}}</style></svg>