<svg id="Layer_1" data-name="Layer 1" xmlns="http://www.w3.org/2000/svg" viewBox="0 0 691.19 389.75"><defs><style>.cls-1{fill:#efefef;}</style></defs><polygon class="cls-1" points="140.9 329.5 209.4 260.32 209.4 187.75 465.1 374.27 465.1 297.63 140.9 60.25 140.9 329.5"/><polygon class="cls-1" points="224.78 374.27 293.95 305.09 293.95 269.82 224.78 220.53 224.78 374.27"/><polygon class="cls-1" points="480.47 202 224.78 15.48 224.78 92.12 548.97 329.5 548.97 60.25 480.47 129.43 480.47 202"/><polygon class="cls-1" points="465.1 15.48 395.92 84.66 395.92 119.93 465.1 169.22 465.1 15.48"/><path class="cls-1" d="M595.5,101a11.16,11.16,0,0,0-11.13-11.13H574.9A11.16,11.16,0,0,0,563.77,101V288.78a11.16,11.16,0,0,0,11.13,11.13h9.47a11.16,11.16,0,0,0,11.13-11.13V203h13.14V186.71H595.5Z"/><path class="cls-1" d="M666.15,186.71H646V131a11.16,11.16,0,0,0-11.13-11.13h-9.46A11.16,11.16,0,0,0,614.3,131V258.74a11.16,11.16,0,0,0,11.13,11.13h9.46A11.16,11.16,0,0,0,646,258.74V203h20.13a8.17,8.17,0,0,0,0-16.33Z"/><path class="cls-1" d="M113.91,89.84h-9.46A11.16,11.16,0,0,0,93.32,101v85.74H80.18V203H93.32v85.74a11.16,11.16,0,0,0,11.13,11.13h9.46A11.16,11.16,0,0,0,125,288.78V101A11.16,11.16,0,0,0,113.91,89.84Z"/><path class="cls-1" d="M74.52,131a11.16,11.16,0,0,0-11.13-11.13H53.92A11.16,11.16,0,0,0,42.79,131v55.7H22.66a8.17,8.17,0,0,0,0,16.33H42.79v55.7a11.16,11.16,0,0,0,11.13,11.13h9.47a11.16,11.16,0,0,0,11.13-11.13V203h0V186.71h0Z"/></svg>