<svg id="Layer_1" data-name="Layer 1" xmlns="http://www.w3.org/2000/svg" viewBox="0 0 2075 823.79"><defs><style>.cls-1{fill:#eaeaea;}</style></defs><path class="cls-1" d="M1548.12,436.81c-3.93,0-7.12-3.82-7.18-8.63,0-3.84,3.93-8.6,7.2-8.26,4.3.45,5.65,3.53,5.73,6.39C1553.89,433.42,1551.84,436.8,1548.12,436.81Z"/><path class="cls-1" d="M1148.39,519.88c4.59,1.23,9.49,1.8,13.68,3.84,8.73,4.27,17.61,7.32,27.41,7.76,4.57.21,9.09,1.53,13.67,1.91a60.22,60.22,0,0,0,13.35.08c5.11-.71,8.15-7.15,5-10.53-1.88-2-5.32-3-8.23-3.58-5.12-1.08-11.06-.21-15.45-2.48a82.28,82.28,0,0,0-41.06-9.17c-4.15,0-8.4-.53-12.41.21a8.37,8.37,0,0,0-5.46,4.7c-.46,1.34,1.74,4.2,3.43,5.5S1146.34,519.33,1148.39,519.88Z"/><path class="cls-1" d="M1453.74,278.54c-2.06-.11-4.16,1.11-6.26,1.18-4.66.14-8.83,1.13-12.17,4.71a8.26,8.26,0,0,1-3.8,2.21c-4.29,1.07-8.69,1.72-13,2.81-3.3.83-7.16,1.47-7.13,6.12,0,4.87,3.46,5.95,7.49,6,3.82.06,7.65,0,11.48,0v-.34c4,0,8.1.58,11.94-.17a23.41,23.41,0,0,0,9.53-4.47c3.53-2.77,6.34-6.45,9.49-9.7,1.92-2,4.36-4.41,1.14-6.51C1460.13,278.87,1456.71,278.71,1453.74,278.54Z"/><path class="cls-1" d="M1249.33,560.45a110.67,110.67,0,0,0,14.48,3c1.37.17,3-1.76,5.3-3.24-2.13-2.73-3.12-5.11-4.86-6-3.77-1.89-7.92-3-11.93-4.43s-5.67,1.28-6.64,4.16C1244.65,557,1246.1,559.62,1249.33,560.45Z"/><path class="cls-1" d="M1137.15,605.77c2.27-.51,4.16-2.68,6.21-4.17l-5.23-5.15-5.64,5.73C1134.06,603.47,1135.93,606.05,1137.15,605.77Z"/><path class="cls-1" d="M1097,608.16c-2.43-2-5.67-3-7.17-3.82-5.67.13-8.66,3-9.24,7.34-.53,4,1.94,5.39,5.33,5.52a41,41,0,0,0,8.58-.38A4.92,4.92,0,0,0,1097,608.16Z"/><path class="cls-1" d="M1548.14,419.92c-3.27-.34-7.24,4.42-7.2,8.26.06,4.81,3.25,8.63,7.18,8.63,3.72,0,5.77-3.39,5.75-10.5C1553.79,423.45,1552.44,420.37,1548.14,419.92Z"/><path class="cls-1" d="M1957.38,414.52A6.72,6.72,0,0,0,1953,410c-5.48-1.11-11.22-2.31-16.71-1.8-21.34,2-41.83-1.89-62.1-7.86a55.63,55.63,0,0,0-31.78.15c-6,1.75-11.82,4.06-18.2.47-2.14-1.2-5.46-.22-8.22-.45a86.71,86.71,0,0,1-11.16-1.33c-4.21-.91-7.39-.41-9.73,3.68-2.61,4.56-6.44,7.52-12.07,7.53-4.65,0-9.3.15-13.94.26-5.31.14-11.43-1.35-15.78.77-12.44,6.06-23.51.33-34.73-2.68-4.79-1.29-8.89-1.67-13.39-.25-9.19,2.92-17.77,3.18-25.36-4.33a21,21,0,0,0-9.25-5.33c-10.15-2.47-10.61-2.71-10-13.21.32-5.91-1.87-8.29-7.83-8.28-5,0-10,.08-15,.3-4.5.2-7.52-1.78-9.81-5.55-.84-1.39-2.73-3.23-3.87-3.06-1.33.2-2.81,2.19-3.43,3.73-.72,1.77-.27,4-.88,5.85-.76,2.26-1.65,4.76-3.27,6.39a79.35,79.35,0,0,1-9.27,7.4c-4.66,3.46-8,2.51-10.74-2.78-1.52-3-3.21-5.91-5-9.16-2.54,2.37-4.08,4.94-6.18,5.53-5.31,1.49-5.85,5.35-6,9.65-.25,8.32-.12,16.66-.71,24.95a26.86,26.86,0,0,1-3.09,10.35c-.88,1.68-3.78,3.39-5.55,3.19-1.58-.18-3.28-2.79-4.16-4.68a17.85,17.85,0,0,1-1.06-6.32c-.62-11.12-1.07-22.24-1.74-33.35-.33-5.42-4-7.64-9.16-5.92-5.57,1.85-8.58.8-12.29-4a20,20,0,0,0-3.35-2.9c-2.86-2.37-5.6-4.91-8.64-7-1.63-1.11-4.06-2.34-5.64-1.87s-3.16,2.81-3.69,4.63c-.68,2.32-.15,5-.43,7.44-.61,5.47-6.16,9.27-11,8.13-3.79-.9-7.76-1-11.6-1.74s-8.24-.81-11.25-2.86c-6.78-4.62-12.93-10.19-19.2-15.54-4.77-4.06-9-8.74-14-12.48-4.16-3.11-9-5.28-13.62-7.81-8.5-4.67-18-7.5-25.56-13.92-.33-.28-1-.15-1.44-.32-4.12-1.54-9.71-1.93-12.06-4.88-6.16-7.74-15.51-10-23.18-14.72-8.56-5.27-20.86-3.48-27.81-13.09a3.36,3.36,0,0,0-2.27-.92c-7.73-.52-13-5.88-19.19-9.5a15.8,15.8,0,0,0-3.61-1.55c-4-1.15-7.83-2.4-10.15-6.4a7.31,7.31,0,0,0-3.93-2.83c-7.53-2.29-15.09-4.15-21.65-9.1-2.77-2.09-7.17-1.93-10.7-3.14-4.76-1.62-10.28-2.57-13.88-5.66-4.64-4-9.34-5.62-15.15-6.36a19.58,19.58,0,0,1-10.55-4.67c-4.55-4.36-9.67-6-15.59-6.64a25.5,25.5,0,0,1-7.49-2.21c-5.89-2.67-10.41-8.27-17.72-8.07-1.27,0-2.75-1.17-3.84-2.14-9.37-8.32-18.57-16.83-28-25-2.64-2.28-6-3.69-9.09-5.47-2.14-1.25-4.7-2.06-6.38-3.76a159.76,159.76,0,0,1-13.25-14.78c-4.61-6-10.47-5.11-16.69-4.4-7.54.85-15.12,1.64-22.7,1.74-4.85.06-7.79-3-8.48-8.12s-1.72-10.46-2.75-15.66c-.93-4.72-3.41-8.35-8.36-9.43-9.8-2.13-25.74,4.86-29.77,14.56-1.81,4.33-4.87,7.1-10.13,7.44-5.91.38-10.07,5.34-10.42,11.34-.23,3.83,0,7.72-.68,11.46-.72,4-1.33,8.55-3.66,11.6-3.84,5-7.23,9.86-9.14,16.12-1.51,5-6.69,9-7.7,14-2.26,11.11-12.72,16.43-16.67,26.57-3.14,8.06-10.61,14.43-16.16,21.55a9,9,0,0,1-.93,1.17c-5.89,5.33-11.3,11.36-17.83,15.74C949,302,942,302.82,936.85,307.8a10.33,10.33,0,0,1-8.28,2.22A86.09,86.09,0,0,0,902,307.33c-3.27.22-6.69-1.57-10-2.5-3.94-1.11-7.81-2.51-11.79-3.36-9-1.92-17.53-4.59-21.87-13.53a58,58,0,0,1-4.1-13.53c-.24-1.11,1.63-3.75,2.73-3.87,4.91-.55,9.73-.73,14.17,2.84,2.93,2.36,7,4.7,10.48,4.67,8.1-.09,16.19-1.52,24.25-2.69,1.25-.18,2.3-1.82,3.44-2.79-1.15-.77-2.22-2-3.47-2.24-7.83-1.49-15.75-2.55-23.54-4.21-2.9-.61-6.74-1.71-8.08-3.87-4.5-7.25-7-14.86-4.13-24,2.47-7.75,4.48-15.26,11.25-20.47,1-.78,1.4-2.34,2.38-3.16,2.21-1.84,4.39-4.21,7-5,6.95-2.09,14.28-2.95,21.13-5.27,5.22-1.76,9.39-1.21,13.47,2.08,2.59,2.08,4.9,4.68,7.78,6.19,7.22,3.81,11,9.52,12.29,17.55.66,4.2.22,7.44-3,10.35-1.28,1.16-2.76,2.84-2.88,4.38A20.07,20.07,0,0,1,932,259.61a4.06,4.06,0,0,0-1,3.44c.13.62,1.84,1.25,2.86,1.28,5.64.14,14.65-8.25,15.58-13.86.43-2.65,1.07-6.31,2.91-7.51,5.72-3.69,7.49-9.4,8.19-15.14.63-5.22,1-11.68-1.55-15.8-4.37-7.23-10.09-14.45-17-19.13-6.46-4.38-14.17-7.11-20.09-12.64-.32-.3-1-.2-1.43-.39-5.27-2.23-10.46-4.65-15.8-6.68a37.11,37.11,0,0,0-9.89-2.58c-4-.34-7.81-.54-9.55-4.78-1.64-4,.52-9.35,4-12.52a36.45,36.45,0,0,0,5.28-6.87c2.15-3.2,4-6.57,6.17-9.78.91-1.37,2.25-2.45,3.23-3.78,3.2-4.34,6-9,9.55-13.06,4.92-5.64,10.14-11,15.57-16.2,10.88-10.29,22-20.37,33.07-30.41,1.12-1,3-1.12,4.55-1.73,4.34-1.75,10-2.42,12.67-5.58,3.56-4.15,7.18-5.55,12.15-6.41a27.12,27.12,0,0,0,12-4.92c4.65-3.69,9.31-6.15,15.26-6.19,7.33,0,14.21-1.33,19.5-7.09.87-1,2.21-2.07,3.34-2.07,8.4,0,16.86-.27,25.18.66,3.87.44,7.3,4.2,11.23,5,8.42,1.69,17.13,2,25.55,3.73,5.38,1.1,10.47,3.65,15.65,5.65,4.66,1.8,9.15,4.76,14,5.34,5.59.68,10.07,2.26,14.33,5.94,2.43,2.09,6,3.3,9.18,4,7.74,1.74,16.41.75,21.94,8.35a5,5,0,0,0,2.17,1.16c4.57,1.88,10.22,2.62,13.5,5.81,6.6,6.39,14.16,8.14,22.65,8.06,4.75,0,8.11,2.22,11.21,5.53,1.49,1.6,3.72,3.57,5.59,3.55,6.22-.08,10.35,3,14,7.45a12.36,12.36,0,0,0,10.82,4.94c3.76-.16,8.2-.48,11.24,1.22a164,164,0,0,1,22.9,15.31c4.69,3.78,8.13,9.14,12.07,13.83,5.17,6.17,10.37,12.33,15.36,18.64.82,1,.72,2.85.91,4.32.49,3.77,1.73,6.82,5.41,8.85,4.46,2.45,6.8,6.15,6.92,11.75.09,3.85,1.27,8.77,3.84,11.28,10.66,10.43,9,22.63,6.8,35.29-.29,1.61,1.08,3.52,1.68,5.28a58.71,58.71,0,0,0,5.91-2.44c.46-.25.46-1.54.52-2.36.67-9.77,1.65-19.53,1.73-29.31,0-2.92-2.44-5.89-3.9-8.78-2.19-4.34-4.49-8.62-6.75-12.93-1.19-2.27-1.89-5.18-3.72-6.68-4.28-3.48-6-7.53-5.86-13,.19-6.85-1-13.48-5-19.38-3.07-4.48-6.77-8.87-8.46-13.88-3-8.74-1.24-16,9-19.33,2-.67,4.21-1.19,5.9-2.38a39.26,39.26,0,0,1,19.81-7.19,22,22,0,0,0,8.8-2.69c6.5-3.67,12.67-7.22,20.65-7.59a22.12,22.12,0,0,0,15.19-6.36c2.57-2.61,7.38-3.87,11.29-4.13,10-.69,20-.55,30-.59,6.29,0,12.19-1,17.5-4.72a11.58,11.58,0,0,1,5.13-1.78c10-1.06,20.09-2.39,30.17-2.8,23.24-1,46.5-1.41,69.75-2.06,4.83-.14,9.66-.14,14.48-.39,2.31-.12,5.16.06,6.8-1.17,6.88-5.16,15.51-2.91,22.87-5.94A39.27,39.27,0,0,1,1619,59.94c13.21-1.06,26.47-1.56,39.66-2.8,7.06-.67,14.39-1.46,20.94-3.94s12.58-4.75,19.52-4.72c8.16.05,16.36.26,24.48-.35,5-.38,10.94-.8,14.63-3.61,7.29-5.56,15.15-5.88,23.49-6.25a59.7,59.7,0,0,0,13.59-2.5c4.27-1.21,6.35-6.55,4.7-10.66s-4-4.61-9.41-2.36a10,10,0,0,1-2.85.81c-8.57.79-17.13,1.87-25.72,2.16A24.19,24.19,0,0,0,1727.42,31a11.63,11.63,0,0,1-5.27,2.47c-6.21.84-12.46,1.38-18.71,1.86-11.73.9-23.52,1.29-35.2,2.6a242.25,242.25,0,0,0-31.84,5.3c-7.58,1.91-14.94,3.76-22.86,3.88-12.68.2-25.63-.41-36.82,7.59a13.16,13.16,0,0,1-6.55,2c-12.75.8-25.5,1.66-38.26,1.92-14.82.31-29.65.1-44.47,0-15-.12-29.5.6-44,6.38-9.47,3.76-20.83,3-31.38,3.69-8.09.51-15.78,1.32-21.88,7.45a7.28,7.28,0,0,1-3.9,2,186.49,186.49,0,0,1-19.66,2.21c-4.8.15-8.81,1-11.86,4.95-2.6,3.34-6.1,4.51-10.3,5.23-8,1.4-16.41,1.71-23.6,6.82a22.7,22.7,0,0,1-11.5,4.18c-13,.48-26,.37-39-.08-3.41-.12-7.58-1.45-10-3.73-4.8-4.63-10.26-5.75-16.4-5.77-6.45,0-11.8-2.12-16.21-7.2-1.84-2.13-5.11-3.56-8-4.15-5.65-1.18-10.89-2.72-15.06-7a10,10,0,0,0-4.64-2.61c-4.49-1-9.1-1.61-13.61-2.6-1.51-.33-3.55-1-4.16-2.16-3.29-6.16-8.59-7.31-15-7.84-4.55-.37-9.89-1.82-13.15-4.73-5.29-4.71-10.89-6.35-17.58-6.78a17.14,17.14,0,0,1-9-3.25c-4-3.12-7.57-6.34-12.92-6.75a56.06,56.06,0,0,1-10.27-1.52,68.06,68.06,0,0,1-10-3.87c-3.81-1.7-7.46-5.05-11.29-5.22-14.63-.63-29.3-.33-44-.2a17.25,17.25,0,0,0-6.12,1.72c-7.31,3-13.86,7.67-22.26,8.18-3.88.24-8.55,1.73-11.24,4.33a25.41,25.41,0,0,1-16.8,7.47c-2.69.2-5.37,2.14-7.8,3.69s-4.6,4.11-7.23,5.58c-4.25,2.37-9.22,3.43-11.43,8.74-.58,1.4-3.18,2-4.91,2.88-2.78,1.38-6.28,2-8.29,4.12C937,79.14,929.34,83.6,923.52,90.7c-10.5,12.82-23,24-34.67,35.87-3.41,3.44-6.87,6.62-7.12,12.07-.08,1.69-1.94,3.34-3.08,5q-4.42,6.24-8.94,12.4c-1.18,1.59-2.69,2.95-3.73,4.62-1.75,2.84-4,5.68-4.68,8.8-1.34,6.57-5,10.65-11.67,10.36-10.74-.47-21.48-2.11-32.21-2-22.91.27-45.83,1.14-68.72,2.24-5.54.26-10.93,2.78-16.48,3.46-8.74,1.07-17.55,1.51-26.34,2.09-1.62.11-3.73.19-4.84-.68-7.51-5.88-16.33-5-24.91-5.15s-16.19-1.87-23.32-7c-3.4-2.46-8.18-3.71-12.46-4.11-11.56-1.06-23.17-1.32-33-8.73-1.11-.83-2.85-.81-4.27-1.27-5-1.6-11.29-1.87-14.61-5.15-5.87-5.82-12.26-6.84-19.75-7.29-5.31-.32-11.36-1.12-15.57-3.95a42.92,42.92,0,0,0-22.72-7.45c-3.14-.16-6.89-1-9.19-3-7.64-6.46-16.81-7.25-26-8.12-20.19-1.9-40.86,2.56-60.64-5.27-7.93-3.14-16.5-4.66-24.65-7.29-2.35-.76-4.09-3.6-6.44-4.18-8.33-2-16.83-3.38-25.21-5.26a52,52,0,0,1-9.61-3.38c-3.58-1.61-6.87-4.87-10.49-5.22-14.54-1.36-29.16-1.92-43.75-2.69-5-.26-10-.37-15-.39-4,0-6.66-1.81-9.37-4.7a16.24,16.24,0,0,0-8.4-4.44c-4.36-.83-9-.11-13.44-.69-3.69-.49-8-1-10.77-3C248.23,70.24,238,68.54,227,68.9c-6,.19-12-.46-18,.14-3.78.38-8.55,1.51-8.85,6.32-.11,1.69,3.19,4.64,5.41,5.22,7,1.85,14.24,2.93,21.4,4.18,6,1,12.08,1.74,18.05,2.93,7.58,1.5,15,4,22.65,4.83,5.64.62,10,2.32,14.13,6.17,2.3,2.14,5.91,3.38,9.11,3.92,6.35,1.06,12.81,1.49,19.25,1.93,5.67.39,11.06,2,17.13.72,5.49-1.2,12.35-2.88,17.23,1.81,6.18,5.93,13.47,6.91,21.44,7.65,5.78.54,12.37,1.71,16.8,5,5.58,4.15,11.65,5.19,17.65,5.69A57.68,57.68,0,0,1,425.31,133c7.28,4.13,17.51,3.64,26.49,4,10.43.44,20.91-.75,31.36-.52,4.13.09,9.2.94,12.12,3.45,6.67,5.74,14,7.92,22.42,7.64,5.95-.21,10.79,2.33,15.63,5.49a28,28,0,0,0,9.89,3.94c4,.75,8.35.1,12.44.7,4.37.63,9.5.85,12.76,3.3,8,6.05,16.8,8.09,26.47,8.41,2.32.08,5.3.94,6.75,2.55,6.1,6.79,14.06,8.07,22.43,8.9,2.55.25,5.47.94,7.4,2.46,6.5,5.1,14,6.28,21.84,7.41,6.06.87,11.86,3.63,17.72,5.74,4,1.45,7.87,4.5,11.86,4.61,19.29.54,38.61.51,57.91.28,6.39-.07,12.75-1.78,19.15-2,5.06-.13,9.37-1.11,13.38-4.35a11.91,11.91,0,0,1,6.81-2.46c11.82-.21,23.65-.07,35.47,0a11.81,11.81,0,0,1,3.89.73c8.08,2.93,16.29,5.62,24.12,9.14,2.39,1.07,4.7,4.27,5.33,6.9,1.28,5.32-1.12,9.79-5.05,13.71a15.34,15.34,0,0,0-4.24,7.57c-1.1,6.11-2.62,11.71-6.54,16.85-1.86,2.43-2.11,6.47-2.17,9.8-.08,4.45.92,8.91,1.13,13.39.26,5.65,0,11.37,4.32,15.92.5.53.51,1.55.71,2.35,1.17,4.59,2.8,8.71,7.44,11.18,2.1,1.12,3.48,3.52,5.33,5.17,3,2.68,6,5.33,9.18,7.77a54.74,54.74,0,0,0,6.65,4.14c2.25,1.26,4.49,2.93,6.93,3.4,9.16,1.78,15.81,6.58,19.08,15.35,2.77,7.46,7.13,13.67,11.73,20.16,6.07,8.58,13.41,10.27,22.56,9.76,2.16-.13,4.43-.51,6.48-.05,14.76,3.3,24.37-6.88,34.51-14.06,8.59-6.1,15.41-14.73,22.88-22.38a10.3,10.3,0,0,0,2.37-4.73c1.23-5.38,2.62-10.56,7.24-14.25,3.5-2.79,4.84-6.52,4.37-11.05-.72-6.85,1.1-12.75,6.64-17.35,1.4-1.16,2.09-3.28,2.88-5.05,2.83-6.41,3.79-13.64,9.25-18.92,1.67-1.62,2.15-4.74,2.62-7.28,1.11-5.91,2.2-11.71,7-16a10,10,0,0,0,2.43-3.7c2.84-7.17,14.78-15,22.79-15,6.31,0,12.62-.4,18.92-.45,8.94-.06,18.08-1.66,26.56,2.52a52.82,52.82,0,0,0,23.42,5.73c3.45,0,7.43,2.11,10.19,4.42,5.25,4.42,11.28,5.87,17.68,7.14a25.33,25.33,0,0,1,10.34,4.23,22.47,22.47,0,0,0,14.19,5.16c6.77,0,12.37,2.69,17.65,7,2.92,2.36,7,3.44,10.69,4.64,2.95,1,6.31.76,9.18,1.86,8,3.07,15.88,6.44,23.7,9.93,3,1.32,5.58,3.44,8.48,5,3.26,1.71,6.53,3.69,10,4.58,5.89,1.5,12.17,1.68,17,6.14a20.14,20.14,0,0,0,14.39,5.74c5.06-.05,9.06,2.15,12.6,5.88,1.81,1.92,4.67,3,7.24,4,4.57,1.73,9.27,2.58,12.51,7.22,1.69,2.42,5.64,3.36,8.67,4.76s6.57,1.86,9,3.83a34.19,34.19,0,0,0,20.48,7.88c4.72.25,9,1.77,11.61,6.42a6.26,6.26,0,0,0,4.47,2.59c5.78.26,9.89,3.36,14,6.93a57.9,57.9,0,0,0,7.82,5.18c3,1.87,6.18,3.57,9.19,5.49,7.88,5,15.71,10.16,23.56,15.24a2.39,2.39,0,0,0,1,.23,26.75,26.75,0,0,1,17.9,9.76,7.53,7.53,0,0,0,2.72,2.12c7.48,3,11.67,11,20.06,12.76,1.61.33,2.8,2.69,4.2,4.11l3,3.08c8.55,8.73,17.37,17.22,25.48,26.35,2.42,2.72,2.74,7.26,4.21,10.9a32.36,32.36,0,0,1,1.74,19.06c-1.82,9-3.3,18.14-5,27.19-.3,1.59-.69,3.47-1.72,4.56-7.88,8.22-9.67,20.76-19.63,27.52a23.32,23.32,0,0,0-4.39,4.48c-2,2.37-3.8,4.89-5.74,7.31a23.32,23.32,0,0,1-3.48,4c-9.77,7.67-26.22,3.85-34.34-2.39A32.84,32.84,0,0,0,1420,519a11.38,11.38,0,0,1-6.23-2.53c-4.42-4.1-8.29-8.78-12.63-13-5.26-5.06-10.27-10.63-16.31-14.57-8.06-5.26-17.61-8.33-25.4-13.91q-11.2-8-22.39-16.07c-4.67-3.38-9.19-6-14.77-6.05a12.91,12.91,0,0,1-10.42-4.83,14.22,14.22,0,0,0-10.2-5.37c-5.06-.47-9.89-2.35-12.45-7.66a12.61,12.61,0,0,0-4-4.19c-5.41-4.05-11.33-7.52-16.34-12-7.05-6.32-13.55-13.29-20.1-20.15-1.4-1.47-3-3.78-2.86-5.51,1-9-3.79-14.59-10.27-19.48a8.85,8.85,0,0,1-2.42-2.5c-2.64-4.64-6.89-5.35-11.76-5.85-4.28-.44-8.41-2.32-12.62-3.51-1.21-.34-2.7-1.05-3.66-.65a128.23,128.23,0,0,0-12,5.82,5.69,5.69,0,0,0-2.55,3.27c-1.61,7.09,4.35,15.6,11.43,16.64,10.44,1.53,21.06,13.16,22,23.75a11.5,11.5,0,0,0,2.09,5.87,84.93,84.93,0,0,0,9,9.69c2.62,2.44,5.72,4.35,8.55,6.58,2.4,1.89,4.6,4.05,7.09,5.83a22.86,22.86,0,0,0,5.58,2.82c3.73,1.31,8,1.63,11.22,3.67a230.63,230.63,0,0,1,20,14.61c4.16,3.32,8.35,5.52,13.91,5.53,5,0,10.91-.24,15,2.1,10.66,6.12,22.42,10.26,32.18,18,3.7,2.94,8.46,4.51,12.23,7.37,5.91,4.49,11.26,9.72,17.09,14.32,5.39,4.23,11,8.14,16.71,12,2.71,1.85,6.26,2.71,8.52,4.93,7.6,7.48,14.74,15.42,22.15,23.07,7,7.26,10.37,24.59,5.31,33.34-3.07,5.33-7.73,9.79-12,14.39-2.21,2.41-6,3.79-7.35,6.5-4.5,9.08-12.27,15.19-19,22.25-1.87,2-4.52,3.24-7,4.6-5.13,2.88-10.38,5.54-15.51,8.42-3.8,2.12-9.52,1.5-13.1-1.08-3.15-2.28-6.48-5.16-10.08-5.79-7.09-1.25-12.5-4.61-17.35-9.57-1-1-2.71-1.14-4-1.84-3.46-1.85-7-3.6-10.3-5.71-7.73-4.93-15.33-10.06-23-15.06-.52-.34-1.3-.25-1.94-.43-5.23-1.48-10.65-2.53-15.62-4.63-3.88-1.64-7.18-4.63-10.78-7-2.75-1.75-5.52-3.48-8.38-5-3.15-1.73-6.42-3.22-9.61-4.88-2.88-1.51-6.48-2.46-8.41-4.78a18,18,0,0,0-15.13-7c-15.15.16-30.33.52-45.46-.18-7.1-.33-14.2-2.57-21.1-4.6-3.39-1-6.16-4.15-9.56-5.05-2.18-.58-5.55.49-7.36,2-2.58,2.21-.92,5,1.31,6.8,8.18,6.67,16.45,13.24,24.72,19.82a4.06,4.06,0,0,0,1.86.65c6.71.92,13.4,2.21,20.14,2.59,8.47.47,17,.08,25.47.33,2.4.07,5.17.46,7.08,1.74,10.42,6.95,22.08,9.21,34.27,10.31,3.17.29,6.11,3,9.18,4.51,3.36,1.66,6.61,3.69,10.15,4.79,5.13,1.6,10.75,1.82,14,7.24.72,1.2,2.7,2.07,4.21,2.29,10.82,1.55,18.08,9.38,26.47,15.09,2,1.38,2.78,4.91,3.69,7.59.68,2,.42,4.29,1,6.33,2,6.83.13,12.91-4.1,18.09-4,4.88-8.72,9.16-13.12,13.71a21.75,21.75,0,0,1-16.88,7c-6.45-.11-12.91,1-19.38,1.31a104.8,104.8,0,0,1-14.29-.21c-5.57-.51-11.25-2.9-16.58-2.17-8.62,1.18-15.57-.6-21.81-6.45-6.92-6.48-15.68-6-24.21-5.75-1.33,0-3,2.41-3.64,4-.29.79,1.3,2.67,2.43,3.55,6.27,4.87,12.79,9.44,19,14.4,13.07,10.46,12.81,25.43,9.59,39-2.74,11.53-10.85,21.55-21.47,28.46-7.28,4.74-15.51,6.32-23.87,7.87-11.51,2.13-22.73,2.63-33.68-2.48-6.16-2.88-12.46-5.44-18.68-8.18-6.52-2.87-10.84-11.76-9.91-18s.62-12.46.81-18.7c.15-4.91.17-9.84.35-14.75.24-6.44,1-12.89.75-19.31-.18-4.4-1.72-8.76-2.7-13.12-2.07-9.31,3.73-12.66,11.41-12.24,11,.6,21.92,1.15,32.85,2,2.28.18,4.46,1.65,6.67,2.57,4.08,1.69,8,3.91,12.28,4.87,1.57.36,3.79-2.21,5.72-3.44-1.53-1.38-2.85-3.26-4.65-4-2.07-.87-4.77-1.48-6.83-.9-6.37,1.81-7.94-2.27-10.06-6.72-1-2.07-3.32-4.39-5.44-4.88a129.07,129.07,0,0,1-26.55-8.94c-10.68-5-22.68-3.9-34,.43-1.82.7-4.17,1.93-5.62,1.33-5.15-2.12-10.71-4.12-14.83-7.66-7.08-6.09-13.34-13.16-19.6-20.13a13.58,13.58,0,0,1-3.1-7.47,19.42,19.42,0,0,0-6.1-13.16c-2-1.92-4.48-4-5.32-6.43-2.65-7.79-8-12.41-15.26-15.65-4-1.77-7.48-4.63-11.18-7a26.61,26.61,0,0,0-4.11-2.69c-14.3-5.78-29-3.66-43.59-1.77-7.18.93-14.19,3.11-21.33,4.42-5.27,1-10.12.35-14-4.24A146.14,146.14,0,0,0,915,549.06c-6.48-5.86-13.32-11.34-20.15-16.79-1.19-.95-3.08-1.15-4.7-1.42-6.91-1.14-13.42-2.69-18.92-7.78-2.39-2.22-6.55-3.21-10-3.46a118.21,118.21,0,0,0-21,.11c-3.86.41-7.66,2.58-11.18,4.52-2.81,1.55-5.12,4-7.7,6s-5.38,3.4-7.44,5.68c-7.24,8-13.73,16.8-21.37,24.42-8.32,8.29-14.82,17.75-21.07,27.53-3.22,5-6.77,9.87-10.37,14.65-2.39,3.17-5.95,3.29-9,1.57a27.91,27.91,0,0,1-8-6.58,241.43,241.43,0,0,0-24.27-26c-7-6.52-14.46-9-23.51-9.74-10.88-.86-21.68-2.67-32.54-3.89a15.91,15.91,0,0,0-6.8.63c-4,1.41-7.84,3.42-11.77,5.1-1.81.77-4.43.79-5.43,2.1-5.48,7.21-14.39,8.52-21.49,12.87-5.59,3.41-8.22,1.49-8.2-5.21,0-4.16.27-8.32.31-12.48.07-7.4-6.2-15.72-13.15-18.16C592,540.82,586,539.53,582,536.08a22.16,22.16,0,0,0-16.83-5.61,126.5,126.5,0,0,1-13.48.31c-9.91-.52-19.88-.79-29.66-2.29-5.23-.8-9.93-4.87-15.17-5.83a186,186,0,0,0-28.64-3.06c-10.09-.26-20.09-1.07-29.13-5.35-11.34-5.36-23.24-6.52-35.33-6.68-8.06-.1-16.13,1.42-24.2,1.56q-23.79.42-47.58,0c-8.24-.13-16.49-1.78-24.7-1.53-8.69.26-17.31.83-26,.11-7.79-.65-15.66-.14-23.48-.51-3.22-.16-6.4-1.23-9.58-2-3.47-.83-7-2.74-10.36-2.47-5.37.43-10.59,2.78-16,3.34-5.12.54-10.72.93-15.48-.6-8.45-2.72-16.15-8-25.68-6.18-8.38,1.58-16.39,1.73-25-.72-10.4-2.95-21.49-3.48-32.3-5a11.54,11.54,0,0,0-4.45.3c-4.93,1.32-9.82,2.85-14.74,4.25-4.51,1.28-5.74,4.29-3.29,8.3,1.38,2.26,2.94,4.41,4.22,6.71,2.54,4.58,6.45,6.25,11.52,6.27,17.83.08,35.67-.15,53.46.67,9.82.45,19.9,1.64,29.21,4.57,7.24,2.28,14.11,4,21.69,4.1,8.91.15,17.78,2,26.69,2.09,32,.41,64,.34,95.94.6,3.42,0,6.82,1.38,10.24,1.47a85.87,85.87,0,0,0,13.11-.71c7.24-.91,14.43-2.35,21.48,1,3.69,1.75,7.32,4,11.24,4.82a253.43,253.43,0,0,0,27.37,4.5c6.39.65,12.92,0,19.38-.22,4.28-.14,8.61-1,12.83-.63,8.19.75,16.33,2,24.46,3.33a42,42,0,0,1,9.52,2.55c7.56,3.15,15.17,5.71,23.53,5.44,5.82-.19,11.66.12,17.48,0,9.29-.28,17.66,2.53,25.46,7.23,7.24,4.37,14.66,9.18,12.55,19.21-1.71,8.12,1.08,15.17,4,22,5,11.54,1.45,21.28-5.57,29.89a28.38,28.38,0,0,0-6.17,17.29c-.35,8.31-1.6,16.16-5.43,23.47-2,3.78-1,6.52,1.46,9.49,4.71,5.68,9.11,11.62,13.89,17.24a57.33,57.33,0,0,0,8,7.69c3.2,2.55,6.74,4.69,10.15,7,1.36.92,2.73,1.82,4.16,2.63,4.41,2.51,8.77,5.13,13.3,7.4,3.46,1.73,7.17,4.27,10.75,4.24,16.79-.11,33.57-1.11,50.36-1.48,3.67-.08,8.13,0,10.9,1.93,7,4.9,13.13,11.09,19.95,16.31,3,2.31,6.8,3.7,10.37,5.17,4.22,1.74,9,2.5,12.81,4.78,8.44,5,16.47,10.66,24.68,16a2,2,0,0,0,1,.28c7.88.79,15.77,2.26,23.63,2.09a25.3,25.3,0,0,0,13.81-4.5c6.22-4.64,12.75-7,20.21-6.57,2.89.19,5.89,1.75,8.44,3.32,4.21,2.59,8.13,5.66,12.11,8.62,1.71,1.27,3.11,3,4.88,4.15,2.79,1.82,5.63,4.28,8.72,4.79,6.42,1.06,12.67,2,18.22,5.79a19,19,0,0,0,7.69,3.38c9,1.2,18.11,1.83,27.16,2.81,4.41.48,8.78,1.28,13.17,1.89,5,.69,10.85,3.27,14.93,1.6,8.42-3.43,16.82-3.12,25.39-3.61,5.91-.34,10.64,1.27,14.76,5.62a11.86,11.86,0,0,0,6.68,3.67c9.28.89,18.45,1.61,26.55,7.07,1.59,1.07,4.23,1.15,6.27.87,12.94-1.79,25.87-3.66,38.76-5.82a39.18,39.18,0,0,0,11.22-3.56c5.08-2.59,9.75-6,14.62-9,4.49-2.76,8.72-6.76,13.61-7.93,17.44-4.2,34.81-5,51.94,2.74a63.35,63.35,0,0,0,22.37,5.77c9.11.43,18.43-.78,26.08-7.49,2.39-2.1,6.34-2.44,9.6-3.53,1.54-.52,3.25-.68,4.67-1.42A84.62,84.62,0,0,0,1232.37,760c1.06-1.3,1.42-3.28,1.81-5,1.08-4.83,1.48-9.88,3.12-14.5,2-5.66,5.13-10.92,7.52-16.45,2.45-5.71,6.67-7.58,12.69-7.4a153.5,153.5,0,0,0,21.45-.69c3.34-.37,6.53-2.54,9.67-4.13,2.75-1.4,5.17-3.86,8-4.52,5.25-1.21,9.69-3.4,13.15-7.41,3.07-3.57,6.88-4.94,11.48-5,1.89,0,4.27-.29,5.59-1.43,8.7-7.53,17.21-15.29,25.71-23.05,5.9-5.39,11.64-11,17.59-16.29,1-.92,2.7-1.17,4.12-1.56,6.85-1.85,14.64-1.36,19.46-8.15.51-.71,1.7-1,2.61-1.35,3.93-1.66,8.29-2.69,11.71-5.08,4-2.78,7.27-6.59,10.61-10.2,7.15-7.73,14.27-15.51,21.11-23.51,1.62-1.89,2.1-4.74,3.13-7.14,1.21-2.8,1.82-6.21,3.81-8.27,4.65-4.79,6.59-10.45,8-16.72.59-2.57,2.77-5.2,4.94-6.86s5.15-2.16,7.82-3c10.89-3.58,20.54-9,28.14-17.83,4.17-4.84,8.66-9.41,12.81-14.28,3.52-4.13,6.82-8.45,10.09-12.79,1.57-2.07,2.48-4.73,4.3-6.49,6.6-6.38,13.5-12.45,20.19-18.74,3.2-3,6.32-5.67,11.17-5.79,2.1-.06,5-1.29,6.07-2.93,4.24-6.59,10.8-7.53,17.61-8.61,2.27-.36,5.08-1.54,6.35-3.29,3.25-4.5,7.48-5.84,12.68-6.54a32.65,32.65,0,0,0,12.54-4.06c6.6-4.07,13.1-7.68,21.11-7.81a9.88,9.88,0,0,0,5-1.78,46.76,46.76,0,0,1,24.59-8.26,38,38,0,0,0,16.9-5.07c5.91-3.56,11.74-5.77,18.53-5.77,32.82,0,65.63-.14,98.45,0a55.18,55.18,0,0,0,24.89-6.29,46.86,46.86,0,0,1,22.87-5.35c9.91.3,19.82.93,29.71,1.59,8.75.57,17.49,1.35,26.22,2.12,1.81.15,3.88.21,5.31,1.13,4,2.59,7.68,1.44,11.88.38a18.47,18.47,0,0,1,10.78.73c4.57,1.84,8.39,2.09,12.81-.23,3.3-1.73,7.11-2.47,10.69-3.68,1.86-.63,4.19-.82,5.41-2.08C1956.16,419,1957.63,416.42,1957.38,414.52ZM1036.9,661.36c12.71-1.24,23,4.53,31.4,13.19,2.57,2.65,3.89,8.11,3.32,11.91-1.73,11.43-4.17,22.63-12.62,31.83-5.85,6.38-11.9,10.44-20.57,9.33-6,1.44-10.08-.37-13.74-5.45-2.12-2.94-6.35-4.63-9.93-6.19-8.62-3.76-10.91-10.42-6.16-18.48a50.71,50.71,0,0,0,5-10.23c2.84-9.07,8.77-15.93,15.39-22.23A14.41,14.41,0,0,1,1036.9,661.36Zm-45.19-5c-2.2-.24-4.53.58-6.78,1-4.37.85-8.7,2.33-13.08,2.48-2.43.08-5.07-1.77-7.38-3.16-3.58-2.15-6.68-5.31-10.47-6.84-5.2-2.1-9.79-4.58-11.49-10.1-.71-2.29-.8-5.63.4-7.47a154.13,154.13,0,0,1,12.27-16.11c3.82-4.46,8.35-8.14,13.16-8.11,5.75.6,10,.63,14,1.62a16.87,16.87,0,0,1,7.05,4.15c4.33,4.09,9,6.2,14.89,4.11,4-1.4,7-.49,9.36,3.25,1.28,2,3.42,3.54,5.32,5.1,6.76,5.57,7.52,13.61,1.18,19.42C1012.17,653,1003.05,657.61,991.71,656.33Zm-52.33-64.51c3.54-3,6.8-6.27,10.29-9.29a18.67,18.67,0,0,1,4.85-3.21,69.19,69.19,0,0,1,40.67-3.5c12.84,2.63,25.55,8.09,31,22.22,2.79,7.28-2,14.11-10.69,14.16-.64-.19-2.22-.61-3.77-1.12-3.9-1.29-7.86-2.43-11.65-4a44,44,0,0,1-8.5-4.56c-9-6.33-18.91-10-29.73-8.21-3.79.63-7.07,5.05-10.28,8.06-2.26,2.14-3.72,5.16-6.06,7.18-3.54,3.06-7.28,2-9.43-2.15C933,601.53,934.26,596.08,939.38,591.82ZM704.91,682.14c-4.42,6-8.68,11.55-16.43,13.63-3.57,1-6.77,3.45-10.05,5.38-6.3,3.72-9.26,3.17-13.35-2.65-2.93-4.17-6.86-4.36-10.36-.5-8,8.76-14.61,10.09-25.46,5.31-7-3.06-13.82-6.49-21-8.73-12.7-3.92-23.21-23.06-21.16-34.64.47-2.65,2.31-5.05,3.41-7.6,2-4.67,4.38-9.25,5.79-14.1,2.1-7.26,5.3-13.75,11.55-18.07,2.19-1.52,5.82-2.57,8.09-1.79,1.54.53,2.62,4.61,2.62,7.1,0,15,6.58,26.06,19.24,33.54a21,21,0,0,0,10.32,3.09c15.45-.26,30.89-1.09,46.34-1.73,5.89-.24,10.76-2.77,13.75-7.76a111.12,111.12,0,0,0,7.58-15.5c1.8-4.47-.36-7.73-4.59-9.65-5.29-2.41-10.48-5.08-15.94-7a23.64,23.64,0,0,0-9.24-.87c-1.13.07-2.7,1.95-3,3.26-.22.86,1.33,2.29,2.29,3.27a6.74,6.74,0,0,0,2.25,1c7.78,3.22,11.3,11.54,7.21,18.94-1.2,2.18-5,4-7.66,4.09-11.3.28-22.62-.25-33.94-.29-5.34,0-9.22-2-11.93-6.69a25.7,25.7,0,0,0-4.26-4.85c-6.88-6.93-5.77-15.21,2.61-19.77,5.71-3.1,11-6,18.14-2.89,3.94,1.72,9.06.91,13.64.88a4.58,4.58,0,0,0,3.37-2.2c.38-.72-.46-2.67-1.32-3.31-2.25-1.68-4.88-2.84-7.22-4.41a29,29,0,0,1-5.38-4.33c-5.23-5.75-11.56-7-18.3-3.39-1.47.78-2.92,1.6-4.43,2.3-4.16,1.92-9.6.92-11.2-2-2.59-4.72-1.24-10.36,3.82-12.74,14-6.6,27.45-15.74,42.6-11.69,5.7,0,9.7.1,13.69,0,7.29-.21,13,2.39,18,7.9a113.61,113.61,0,0,0,15.8,14.41c6.21,4.68,8.33,10.84,9.07,18,.25,2.44.5,5.15,1.7,7.18,3.48,5.92,4.13,11.79,1.26,18.07-3.18,7-6,13.88-10.72,20.41C716.68,668.25,710.31,674.79,704.91,682.14Zm140.94,22.19c-4.48,5.55-8.94,11.3-14.29,15.94-12.55,10.87-25.9,20.46-42.77,18.78-18,0-34.27-2.49-49.06-11.33-9.48-5.67-17.4-13-19.43-24-1.48-8-.36-16.49-.28-24.76a3.38,3.38,0,0,1,1.31-2c13.65-11.43,21.34-27.26,31.07-41.62,3.78-5.57,8.87-10.25,13.41-15.3,8.53-9.5,17.16-18.91,25.57-28.51,1.46-1.66,1.75-4.3,3.06-6.16,4.75-6.74,9.23-13.77,14.71-19.89,7-7.76,14.69-14.88,22.37-22,2.07-1.91,5.13-3.65,7.84-3.83,13-.87,26-1.27,38.41,3.61a40.56,40.56,0,0,1,9.94,5.55c8.65,6.66,17.22,13.44,25.42,20.65,2.14,1.88,3.24,5.34,4,8.29.89,3.48.56,7.12-3.31,9-3.19,1.59-9.22,0-11.1-3.46-4.27-8-12.14-11.64-18.88-16.62-4.64-3.42-10-4.58-16-4.45s-12.21-2-18.16-1.48c-7,.62-14.65,1.58-20.39,5.07-13.22,8-23.27,19.85-31,33.23-4.11,7.15-4.86,15.45-3.78,23.74a4.26,4.26,0,0,0,.1.49c1.58,6.1,16.13,18.42,22.43,18.62,4.14.13,7.6,1,10.88,3.89a16.21,16.21,0,0,0,8.55,3.8c8.92.92,17.91,1.34,26.89,1.5,1.78,0,3.89-1.65,5.34-3.07,8.18-8,16.23-16.07,24.26-24.19,3.49-3.53,6.79-7.24,10.26-10.8a6.79,6.79,0,0,1,2.87-1.94c2.19-.57,4.49-.77,6.74-1.12-.35,2.59.09,5.68-1.18,7.67-5.16,8.07-10.54,16-16.41,23.6-6.41,8.25-13.53,16-20.2,24a94.46,94.46,0,0,0-5.57,8.06c-.46.69-.64,1.57-1.14,2.21C860.9,685.14,853.52,694.85,845.85,704.33Zm47.59-107.2c-.62,7.83-1.31,15-8.77,20.57-6.3,4.66-10.44,12.16-16.54,17.18-3.67,3-9.14,4.31-14,5.22-6.5,1.22-13.22,1.22-19.83,1.94-4.3.47-7-.94-9.37-4.82a92.28,92.28,0,0,0-11.37-14.88c-5.84-6.2-6.58-10.44-2.27-17.69,4-6.77,8.26-13.25,15.27-17.35a4.14,4.14,0,0,0,1.75-1.74C833,573.93,843.53,575.11,853,574c4.9.44,9.69,1.07,14.5,1.24,6,.22,11.51,1,14.78,7.14.84,1.58,2.93,2.71,4.68,3.54C891.85,588.18,893.85,591.88,893.44,597.13ZM967.35,735.2c-6.89,7.88-13.88,15.68-21.18,23.18-1.8,1.86-4.84,2.6-7.4,3.61-4.12,1.62-8.56,2.58-12.42,4.65-5.87,3.17-8.09,3.86-12.43-1.37-4.54-5.47-9.95-4.94-15.67-4.79-1.49,0-3,.37-4.47.45-6.7.33-10.57-2.66-12.1-9.29-1.67-7.23-2.66-7.56-9.41-4.31a20.83,20.83,0,0,1-8.44,2.4c-7.07.09-9.45-4.18-6.36-10.62a9.75,9.75,0,0,1,1.61-2.52c6.17-6.38,6.68-14.33,7.21-22.65.64-10.2,5.73-19,11.78-27,5.11-6.73,11.18-12.72,16.52-19.29,6.49-8,12.64-16.26,19-24.38,5.33-6.84,7.51-6.18,12.47.56,4.83,6.57,10.88,12.37,17.05,17.77,2.18,1.91,6.24,1.88,9.5,2.3,4.55.58,8.42,1.67,11.87,5.33,4.73,5,11,4.05,17.31,2.82a49.53,49.53,0,0,1,15.07-.65c2.17.25,4,3.37,6.49,5.66-2.23,3.17-3.67,5.29-5.19,7.34-5.59,7.54-11.24,15-16.79,22.61a49.25,49.25,0,0,0-4.52,7.13c-2.47,5-4.68,10.08-7,15.14C969,731.28,968.68,733.67,967.35,735.2Zm127.36-31.45c-4.55,7.52-3.42,15.17-3.17,23.14.12,3.74-1.42,7.82-3.16,11.26-1.92,3.78-2.62,7.07-.26,10.73,3.06,4.72,1.92,8.77-1.95,12.44-2.05,1.95-3.73,4.37-6,6a116.67,116.67,0,0,1-10.29,5.85l-.75-1.33c-6.51.19-12.52,1.23-16.11,7.78a6.06,6.06,0,0,1-4.35,2.59c-10.66.55-20.53,2.51-28.78,10.32-3.47,3.29-7.83.89-11.32-1.78-8.92-6.83-17.9-13.56-26.74-20.49a48.38,48.38,0,0,1-7.08-6.94,9.41,9.41,0,0,1-1-11.26c4.83-7.7,10.37-14.95,15.65-22.36,2.39-3.37,5.59-4.27,9.63-3.54,8,1.45,15.75,3.38,22.94,7.7,8.33,5,17.86,6.23,27.45,5.59a13.46,13.46,0,0,0,7.64-3.23c9.85-9,18.85-18.6,21.93-32.41,1.77-8,4.1-9.34,10.3-8.69C1095.08,695.69,1097.63,698.92,1094.71,703.75Z"/></svg>